<svg width="57" height="56" viewBox="0 0 57 56" fill="none" xmlns="http://www.w3.org/2000/svg">
<path d="M55.0926 2.04587C55.0926 1.48729 54.534 1.20801 53.9754 0.928716C43.3624 -1.86417 31.9116 1.76658 24.9294 10.1452L21.2986 14.3346L13.7578 12.3796C10.6856 11.2624 7.61345 12.6588 6.21701 15.4517L0.35194 25.7854C0.35194 25.7854 0.35194 26.0647 0.0726513 26.0647C-0.206638 26.9026 0.35194 27.4611 1.18981 27.7404L10.6856 29.6954C9.84776 32.209 9.0099 34.7226 8.73061 37.2362C8.73061 37.7948 8.73061 38.0741 9.0099 38.3534L17.3886 46.4528C17.6679 46.7321 17.9471 46.7321 18.5057 46.7321C21.0193 46.4528 23.8122 45.8942 26.3258 45.0563L28.2808 54.2728C28.2808 54.8314 29.1187 55.39 29.6773 55.39C29.9566 55.39 30.2358 55.39 30.2358 55.1107L40.5695 49.2457C43.0831 47.8492 44.2003 44.777 43.6417 41.9841L41.6867 33.8848L45.5967 30.254C54.2547 23.8304 57.8855 12.6588 55.0926 2.04587ZM3.70341 25.5061L8.45132 16.8482C9.28919 15.1724 10.9649 14.6139 12.6407 15.1724L19.0643 16.8482L16.2714 20.1996C14.5957 22.4339 12.9199 24.6682 11.8028 27.1818L3.70341 25.5061ZM39.4524 47.5699L30.7944 52.5971L29.1187 44.4977C31.6323 43.3806 33.8666 41.7049 36.1009 40.0291L39.7317 36.6777L41.4074 43.1013C41.4074 44.777 40.8488 46.7321 39.4524 47.5699ZM43.921 28.8576L34.1459 37.7948C29.9566 41.4256 24.6501 43.6599 19.0643 44.2184L11.8028 36.9569C12.6407 31.3712 14.875 26.0647 18.5057 21.8754L22.9743 16.8482L23.2536 16.5689L27.1637 12.1003C33.308 4.83876 43.3624 1.48729 52.579 3.44231C54.534 12.9381 51.4618 22.7132 43.921 28.8576ZM40.5695 10.1452C37.4974 10.1452 35.2631 12.6588 35.2631 15.4517C35.2631 18.2446 37.7766 20.7582 40.5695 20.7582C43.6417 20.7582 45.876 18.2446 45.876 15.4517C45.876 12.6588 43.6417 10.1452 40.5695 10.1452ZM40.5695 18.2446C39.1731 18.2446 38.0559 17.1275 38.0559 15.731C38.0559 14.3346 39.1731 13.2174 40.5695 13.2174C41.966 13.2174 43.0831 14.3346 43.0831 15.731C43.0831 17.1275 41.966 18.2446 40.5695 18.2446Z" fill="url(#paint0_linear_549_244)" fill-opacity="0.59"/>
<defs>
<linearGradient id="paint0_linear_549_244" x1="28.0091" y1="-2.20392e-06" x2="-6.5" y2="61.5" gradientUnits="userSpaceOnUse">
<stop stop-color="#BE1687"/>
<stop offset="1"/>
</linearGradient>
</defs>
</svg>
