<svg width="43" height="41" viewBox="0 0 43 41" fill="none" xmlns="http://www.w3.org/2000/svg">
<path d="M7.32329 40.7946H21.531C22.7166 40.7946 23.6781 39.8332 23.6781 38.6476C23.6781 37.4619 22.7166 36.5005 21.531 36.5005H7.32329C5.85984 36.5005 5.07336 35.4321 4.80411 34.972C4.28087 34.0809 3.99466 32.6383 4.76225 31.2618L18.9049 5.89611C20.0413 3.86025 22.894 3.86325 24.0263 5.89504L34.4902 24.6632C35.0677 25.7011 36.3772 26.0731 37.4111 25.4934C38.4468 24.9159 38.8191 23.6085 38.2413 22.5725L27.7775 3.80335C26.4478 1.42266 24.089 0 21.4649 0C18.8418 0 16.483 1.42266 15.1535 3.80464L1.01107 29.1712C-0.368647 31.6463 -0.334078 34.7025 1.10125 37.1472C2.44318 39.4306 4.76847 40.7946 7.32329 40.7946Z" fill="url(#paint0_linear_653_74)"/>
<path d="M21.5319 25.7666C22.7175 25.7666 23.6789 24.8051 23.6789 23.6195V15.0311C23.6789 13.8455 22.7175 12.884 21.5319 12.884C20.3462 12.884 19.3848 13.8455 19.3848 15.0311V23.6195C19.3848 24.8051 20.3462 25.7666 21.5319 25.7666Z" fill="url(#paint1_linear_653_74)"/>
<path d="M21.5319 32.2109C22.7177 32.2109 23.6789 31.2496 23.6789 30.0638C23.6789 28.878 22.7177 27.9167 21.5319 27.9167C20.346 27.9167 19.3848 28.878 19.3848 30.0638C19.3848 31.2496 20.346 32.2109 21.5319 32.2109Z" fill="url(#paint2_linear_653_74)"/>
<path d="M30.1184 38.6499V36.5028C30.1184 35.3171 29.1569 34.3557 27.9713 34.3557C26.7857 34.3557 25.8242 35.3171 25.8242 36.5028V38.6499C25.8242 39.8355 26.7857 40.7969 27.9713 40.7969C29.1569 40.7969 30.1184 39.8355 30.1184 38.6499ZM36.5597 32.2086C36.5597 31.023 35.5982 30.0615 34.4126 30.0615C33.2269 30.0615 32.2655 31.023 32.2655 32.2086V38.6499C32.2655 39.8355 33.2269 40.7969 34.4126 40.7969C35.5982 40.7969 36.5597 39.8355 36.5597 38.6499V32.2086ZM40.8538 25.7673C39.6682 25.7673 38.7067 26.7288 38.7067 27.9144V38.6499C38.7067 39.8355 39.6682 40.7969 40.8538 40.7969C42.0394 40.7969 43.0009 39.8355 43.0009 38.6499V27.9144C43.0009 26.7288 42.0394 25.7673 40.8538 25.7673Z" fill="url(#paint3_linear_653_74)"/>
<defs>
<linearGradient id="paint0_linear_653_74" x1="19.2568" y1="7.97039e-07" x2="115.904" y2="56.716" gradientUnits="userSpaceOnUse">
<stop stop-color="white"/>
<stop offset="1" stop-color="white" stop-opacity="0"/>
</linearGradient>
<linearGradient id="paint1_linear_653_74" x1="21.5319" y1="12.884" x2="35.4224" y2="15.7621" gradientUnits="userSpaceOnUse">
<stop stop-color="white"/>
<stop offset="1" stop-color="white" stop-opacity="0"/>
</linearGradient>
<linearGradient id="paint2_linear_653_74" x1="21.5319" y1="27.9167" x2="31.9813" y2="34.4121" gradientUnits="userSpaceOnUse">
<stop stop-color="white"/>
<stop offset="1" stop-color="white" stop-opacity="0"/>
</linearGradient>
<linearGradient id="paint3_linear_653_74" x1="34.4126" y1="25.7673" x2="72.9247" y2="53.1261" gradientUnits="userSpaceOnUse">
<stop stop-color="white"/>
<stop offset="1" stop-color="white" stop-opacity="0"/>
</linearGradient>
</defs>
</svg>
