<svg width="18" height="13" viewBox="0 0 18 13" fill="none" xmlns="http://www.w3.org/2000/svg">
<path d="M17.0405 0.367068C16.9251 0.250757 16.7879 0.158438 16.6367 0.0954366C16.4855 0.0324357 16.3233 0 16.1594 0C15.9956 0 15.8334 0.0324357 15.6822 0.0954366C15.531 0.158438 15.3937 0.250757 15.2784 0.367068L6.74159 8.9153C6.35071 9.30671 5.7163 9.30642 5.32578 8.91465L2.14921 5.72793C2.02944 5.61223 1.88804 5.52125 1.7331 5.46019C1.57817 5.39913 1.41272 5.36919 1.24621 5.37207C1.0797 5.37495 0.915386 5.4106 0.762653 5.47698C0.60992 5.54336 0.471757 5.63918 0.356054 5.75896C0.24035 5.87873 0.149372 6.02013 0.0883126 6.17507C0.0272534 6.33 -0.00269104 6.49545 0.000189763 6.66196C0.00307056 6.82847 0.0387201 6.99278 0.105102 7.14552C0.171485 7.29825 0.2673 7.43641 0.387077 7.55211L5.15229 12.3173C5.26765 12.4336 5.4049 12.526 5.55612 12.589C5.70734 12.652 5.86954 12.6844 6.03336 12.6844C6.19718 12.6844 6.35937 12.652 6.51059 12.589C6.66181 12.526 6.79906 12.4336 6.91443 12.3173L17.0405 2.19125C17.1665 2.07505 17.267 1.93401 17.3357 1.77703C17.4045 1.62005 17.44 1.45054 17.44 1.27916C17.44 1.10778 17.4045 0.938265 17.3357 0.781286C17.267 0.624308 17.1665 0.483273 17.0405 0.367068Z" fill="#1E1E1E"/>
</svg>
