<svg width="24" height="24" viewBox="0 0 24 24" fill="none" xmlns="http://www.w3.org/2000/svg">
<path fill-rule="evenodd" clip-rule="evenodd" d="M12.0132 12.7032L19.8984 4.818C20.1468 4.5696 20.4924 4.4424 20.8428 4.4712C21.1932 4.4988 21.5136 4.6788 21.72 4.9644C21.72 4.9644 21.75 5.0076 21.7524 5.01C23.166 6.9792 24 9.3924 24 12C24 18.6228 18.6228 24 12 24C5.3772 24 0 18.6228 0 12C0 5.3772 5.3772 0 12 0C13.9152 0 15.7272 0.45 17.334 1.2504C17.928 1.5444 18.1692 2.2656 17.874 2.8584C17.5788 3.4512 16.8588 3.6936 16.266 3.3984C14.9808 2.7588 13.5312 2.4 12 2.4C6.702 2.4 2.4 6.702 2.4 12C2.4 17.298 6.702 21.6 12 21.6C17.298 21.6 21.6 17.298 21.6 12C21.6 10.4088 21.2124 8.9064 20.5248 7.5852L12.8628 15.2484C12.3936 15.7176 11.634 15.7176 11.1648 15.2484L7.5648 11.6484C7.0968 11.1804 7.0968 10.4196 7.5648 9.9516C8.034 9.4836 8.7936 9.4836 9.2628 9.9516L12.0132 12.7032Z" fill="#661E78"/>
</svg>
