<svg width="59" height="52" viewBox="0 0 59 52" fill="none" xmlns="http://www.w3.org/2000/svg">
<path d="M29.0182 4.0052C27.8352 4.00032 26.6631 4.23027 25.5696 4.68173C24.4762 5.13319 23.4832 5.79717 22.6482 6.6352C22.462 6.82257 22.3574 7.07602 22.3574 7.3402C22.3574 7.60439 22.462 7.85784 22.6482 8.0452C22.7412 8.13893 22.8518 8.21333 22.9736 8.26409C23.0955 8.31486 23.2262 8.341 23.3582 8.341C23.4902 8.341 23.6209 8.31486 23.7428 8.26409C23.8647 8.21333 23.9753 8.13893 24.0682 8.0452C24.7182 7.39512 25.4899 6.87944 26.3393 6.52761C27.1886 6.17578 28.0989 5.9947 29.0182 5.9947C29.9375 5.9947 30.8478 6.17578 31.6972 6.52761C32.5465 6.87944 33.3182 7.39512 33.9682 8.0452C34.0612 8.13893 34.1718 8.21333 34.2936 8.26409C34.4155 8.31486 34.5462 8.341 34.6782 8.341C34.8102 8.341 34.9409 8.31486 35.0628 8.26409C35.1846 8.21333 35.2953 8.13893 35.3882 8.0452C35.5745 7.85784 35.679 7.60439 35.679 7.3402C35.679 7.07602 35.5745 6.82257 35.3882 6.6352C34.5533 5.79717 33.5603 5.13319 32.4668 4.68173C31.3734 4.23027 30.2012 4.00032 29.0182 4.0052Z" fill="url(#paint0_linear_653_82)"/>
<path d="M38.2082 3.80522C35.7705 1.36871 32.4649 0 29.0182 0C25.5716 0 22.266 1.36871 19.8282 3.80522C19.7345 3.89819 19.6601 4.00879 19.6093 4.13065C19.5586 4.25251 19.5324 4.38321 19.5324 4.51522C19.5324 4.64724 19.5586 4.77794 19.6093 4.8998C19.6601 5.02166 19.7345 5.13226 19.8282 5.22522C20.0156 5.41148 20.2691 5.51602 20.5332 5.51602C20.7974 5.51602 21.0509 5.41148 21.2382 5.22522C22.2597 4.20323 23.4726 3.39252 24.8075 2.83939C26.1424 2.28627 27.5733 2.00157 29.0182 2.00157C30.4632 2.00157 31.894 2.28627 33.2289 2.83939C34.5639 3.39252 35.7767 4.20323 36.7982 5.22522C36.9856 5.41148 37.2391 5.51602 37.5032 5.51602C37.7674 5.51602 38.0209 5.41148 38.2082 5.22522C38.302 5.13226 38.3764 5.02166 38.4271 4.8998C38.4779 4.77794 38.504 4.64724 38.504 4.51522C38.504 4.38321 38.4779 4.25251 38.4271 4.13065C38.3764 4.00879 38.302 3.89819 38.2082 3.80522ZM29.0182 8.00522C27.6947 8.00551 26.4253 8.53054 25.4882 9.46523C25.3244 9.65653 25.2388 9.9026 25.2485 10.1543C25.2582 10.406 25.3626 10.6447 25.5407 10.8228C25.7188 11.0009 25.9575 11.1052 26.2092 11.1149C26.4609 11.1247 26.7069 11.039 26.8982 10.8752C27.4607 10.3134 28.2232 9.99786 29.0182 9.99786C29.8132 9.99786 30.5757 10.3134 31.1382 10.8752C31.2279 10.9799 31.3382 11.0649 31.4623 11.125C31.5863 11.185 31.7215 11.2187 31.8592 11.224C31.9969 11.2293 32.1342 11.2061 32.2626 11.1559C32.3909 11.1056 32.5074 11.0293 32.6049 10.9319C32.7023 10.8344 32.7786 10.7179 32.8289 10.5895C32.8792 10.4612 32.9024 10.3239 32.897 10.1862C32.8917 10.0485 32.858 9.91332 32.798 9.78925C32.7379 9.66519 32.6529 9.55487 32.5482 9.46523C31.6112 8.53054 30.3418 8.00551 29.0182 8.00522ZM50.5882 21.9352H50.2982C49.6881 19.734 48.447 17.7596 46.728 16.2554C45.009 14.7513 42.8873 13.7832 40.6246 13.4706C38.3619 13.158 36.0572 13.5145 33.9948 14.4962C31.9323 15.478 30.2024 17.0419 29.0182 18.9952C27.9167 17.1733 26.3386 15.6869 24.4541 14.6962C22.5696 13.7055 20.4504 13.2483 18.3251 13.3739C16.1998 13.4994 14.1491 14.203 12.3944 15.4087C10.6397 16.6143 9.24758 18.2763 8.36824 20.2152H8.30824C6.99946 20.2123 5.70859 20.5194 4.54127 21.1112C3.37394 21.703 2.36333 22.5629 1.59212 23.6203C0.820912 24.6777 0.311026 25.9027 0.104185 27.195C-0.102656 28.4874 -0.000576138 29.8103 0.402073 31.0556C0.804722 32.3009 1.4965 33.4332 2.4208 34.3598C3.34509 35.2864 4.47565 35.981 5.71995 36.3868C6.96425 36.7925 8.28693 36.8979 9.57978 36.6943C10.8726 36.4906 12.0989 35.9838 13.1582 35.2152C14.648 36.0688 16.3071 36.5843 18.0182 36.7252V43.2152C17.3304 43.3948 16.7028 43.7544 16.2001 44.2571C15.6974 44.7598 15.3378 45.3874 15.1582 46.0752H8.01824C7.75302 46.0752 7.49867 46.1806 7.31113 46.3681C7.1236 46.5557 7.01824 46.81 7.01824 47.0752C7.01824 47.3404 7.1236 47.5948 7.31113 47.7823C7.49867 47.9699 7.75302 48.0752 8.01824 48.0752H15.1582C15.3885 48.9226 15.8912 49.6706 16.5888 50.204C17.2864 50.7373 18.1401 51.0262 19.0182 51.0262C19.8963 51.0262 20.75 50.7373 21.4476 50.204C22.1452 49.6706 22.648 48.9226 22.8782 48.0752H35.1582C35.3885 48.9226 35.8912 49.6706 36.5888 50.204C37.2864 50.7373 38.1401 51.0262 39.0182 51.0262C39.8963 51.0262 40.75 50.7373 41.4476 50.204C42.1452 49.6706 42.648 48.9226 42.8782 48.0752H50.0182C50.2835 48.0752 50.5378 47.9699 50.7253 47.7823C50.9129 47.5948 51.0182 47.3404 51.0182 47.0752C51.0182 46.81 50.9129 46.5557 50.7253 46.3681C50.5378 46.1806 50.2835 46.0752 50.0182 46.0752H42.8782C42.6987 45.3874 42.339 44.7598 41.8364 44.2571C41.3337 43.7544 40.7061 43.3948 40.0182 43.2152V36.7352C41.9957 36.5798 43.8983 35.9111 45.5382 34.7952C46.4257 35.6183 47.501 36.2119 48.6704 36.524C49.8398 36.8362 51.0678 36.8576 52.2474 36.5863C53.427 36.3149 54.5223 35.7592 55.4378 34.9674C56.3533 34.1757 57.0612 33.172 57.4998 32.0439C57.9384 30.9158 58.0944 29.6975 57.9542 28.4953C57.8139 27.2931 57.3817 26.1434 56.6952 25.1466C56.0087 24.1497 55.0887 23.3359 54.0156 22.7762C52.9424 22.2164 51.7486 21.9277 50.5382 21.9352H50.5882ZM13.6382 33.1552C13.4556 33.0342 13.2383 32.9764 13.0197 32.9909C12.8011 33.0053 12.5933 33.0912 12.4282 33.2352C11.6643 33.9057 10.749 34.3807 9.76108 34.6194C8.7731 34.8582 7.74194 34.8536 6.75614 34.606C5.77034 34.3585 4.85936 33.8753 4.10144 33.1981C3.34352 32.5208 2.7613 31.6697 2.40479 30.7179C2.04829 29.7661 1.92814 28.7419 2.05467 27.7334C2.1812 26.7249 2.55063 25.7622 3.13123 24.9279C3.71184 24.0936 4.48626 23.4128 5.38799 22.9437C6.28973 22.4747 7.29183 22.2316 8.30824 22.2352C8.50824 22.2352 8.71824 22.2352 8.91824 22.2352C9.13142 22.2494 9.34354 22.1949 9.5235 22.0797C9.70345 21.9645 9.84179 21.7947 9.91824 21.5952C10.6184 19.7554 11.8613 18.1719 13.482 17.0546C15.1027 15.9373 17.0247 15.339 18.9932 15.339C20.9618 15.339 22.8838 15.9373 24.5045 17.0546C26.1252 18.1719 27.3681 19.7554 28.0682 21.5952C28.2649 22.1075 28.4154 22.6362 28.5182 23.1752C28.5692 23.4308 28.7179 23.6564 28.9327 23.8039C29.1475 23.9515 29.4114 24.0093 29.6682 23.9652C29.9624 23.916 30.26 23.8892 30.5582 23.8852C31.4718 23.8855 32.3704 24.1163 33.1711 24.5561C33.9717 24.996 34.6485 25.6307 35.1386 26.4016C35.6288 27.1725 35.9166 28.0546 35.9753 28.9662C36.034 29.8778 35.8618 30.7895 35.4745 31.6169C35.0873 32.4443 34.4976 33.1606 33.76 33.6996C33.0224 34.2385 32.1607 34.5827 31.2548 34.7001C30.3489 34.8176 29.428 34.7046 28.5773 34.3717C27.7266 34.0387 26.9737 33.4965 26.3882 32.7952C26.2953 32.6836 26.1792 32.5936 26.0479 32.5315C25.9167 32.4693 25.7735 32.4364 25.6282 32.4352C25.4039 32.4337 25.1855 32.5077 25.0082 32.6452C23.4021 33.9195 21.4332 34.6515 19.3847 34.736C17.3363 34.8204 15.3138 34.253 13.6082 33.1152L13.6382 33.1552ZM19.0182 49.0752C18.6227 49.0752 18.236 48.9579 17.9071 48.7382C17.5782 48.5184 17.3219 48.206 17.1705 47.8406C17.0191 47.4751 16.9795 47.073 17.0567 46.685C17.1338 46.2971 17.3243 45.9407 17.604 45.661C17.8837 45.3813 18.2401 45.1908 18.6281 45.1137C19.016 45.0365 19.4182 45.0761 19.7836 45.2275C20.1491 45.3788 20.4614 45.6352 20.6812 45.9641C20.9009 46.293 21.0182 46.6797 21.0182 47.0752C21.0182 47.6057 20.8075 48.1144 20.4325 48.4894C20.0574 48.8645 19.5487 49.0752 19.0182 49.0752ZM35.1582 46.0752H22.8782C22.6987 45.3874 22.339 44.7598 21.8364 44.2571C21.3337 43.7544 20.7061 43.3948 20.0182 43.2152V36.7452C21.9994 36.5634 23.9004 35.8746 25.5382 34.7452C26.6971 35.8347 28.1769 36.5207 29.7573 36.7009C31.3376 36.8811 32.9339 36.5459 34.3082 35.7452C35.4837 36.2653 36.7375 36.5863 38.0182 36.6952V43.1852C37.3267 43.3673 36.6967 43.7315 36.1937 44.2397C35.6907 44.748 35.3331 45.3818 35.1582 46.0752ZM41.0182 47.0752C41.0182 47.4708 40.9009 47.8575 40.6812 48.1864C40.4614 48.5153 40.1491 48.7716 39.7836 48.923C39.4182 49.0744 39.016 49.114 38.6281 49.0368C38.2401 48.9596 37.8837 48.7691 37.604 48.4894C37.3243 48.2097 37.1338 47.8534 37.0567 47.4654C36.9795 47.0774 37.0191 46.6753 37.1705 46.3099C37.3219 45.9444 37.5782 45.632 37.9071 45.4123C38.236 45.1925 38.6227 45.0752 39.0182 45.0752C39.5487 45.0752 40.0574 45.2859 40.4325 45.661C40.8075 46.0361 41.0182 46.5448 41.0182 47.0752ZM50.5882 34.7852C49.7899 34.7814 49.0024 34.6 48.2829 34.254C47.5633 33.9081 46.9298 33.4064 46.4282 32.7852C46.2545 32.5851 46.0083 32.4622 45.7439 32.4434C45.4795 32.4247 45.2185 32.5116 45.0182 32.6852C43.3144 34.0456 41.1986 34.7861 39.0182 34.7852C38.0273 34.7796 37.0429 34.6246 36.0982 34.3252C37.0627 33.26 37.6971 31.9376 37.9243 30.5187C38.1516 29.0997 37.9619 27.6454 37.3784 26.3322C36.7949 25.019 35.8426 23.9035 34.6372 23.1212C33.4318 22.3389 32.0252 21.9234 30.5882 21.9252H30.2982C30.2382 21.7052 30.1682 21.4852 30.0882 21.2652C30.9029 19.355 32.3085 17.7563 34.0987 16.7039C35.889 15.6514 37.9694 15.2006 40.0347 15.4176C42.1 15.6347 44.0413 16.5081 45.5736 17.9098C47.1059 19.3114 48.1485 21.1674 48.5482 23.2052C48.5992 23.4608 48.7479 23.6864 48.9627 23.8339C49.1775 23.9815 49.4414 24.0393 49.6982 23.9952C49.9924 23.9471 50.2901 23.9237 50.5882 23.9252C51.3203 23.8938 52.0511 24.0108 52.7367 24.2693C53.4222 24.5277 54.0484 24.9223 54.5775 25.4291C55.1066 25.936 55.5277 26.5447 55.8153 27.2185C56.1029 27.8924 56.2512 28.6175 56.2512 29.3502C56.2512 30.0829 56.1029 30.808 55.8153 31.4819C55.5277 32.1558 55.1066 32.7645 54.5775 33.2713C54.0484 33.7782 53.4222 34.1727 52.7367 34.4312C52.0511 34.6896 51.3203 34.8067 50.5882 34.7752V34.7852Z" fill="url(#paint1_linear_653_82)"/>
<defs>
<linearGradient id="paint0_linear_653_82" x1="29.0182" y1="4.00513" x2="38.1468" y2="19.3273" gradientUnits="userSpaceOnUse">
<stop stop-color="#BE1687"/>
<stop offset="1" stop-color="white"/>
</linearGradient>
<linearGradient id="paint1_linear_653_82" x1="29.0021" y1="-9.27388e-07" x2="138.5" y2="68" gradientUnits="userSpaceOnUse">
<stop stop-color="#BE1687"/>
<stop offset="1" stop-color="white"/>
</linearGradient>
</defs>
</svg>
