<svg width="12" height="12" viewBox="0 0 12 12" fill="none" xmlns="http://www.w3.org/2000/svg">
<path d="M0.334425 0.32073C0.129062 0.526155 0.013695 0.804734 0.013695 1.0952C0.013695 1.38568 0.129062 1.66425 0.334425 1.86968L4.2079 5.74315L0.334425 9.61662C0.229799 9.71767 0.146346 9.83855 0.0889352 9.9722C0.0315244 10.1058 0.0013053 10.2496 4.13605e-05 10.395C-0.00122257 10.5405 0.0264937 10.6847 0.0815733 10.8194C0.136653 10.954 0.217993 11.0763 0.320846 11.1792C0.4237 11.282 0.546008 11.3633 0.680634 11.4184C0.815259 11.4735 0.959506 11.5012 1.10496 11.5C1.25041 11.4987 1.39415 11.4685 1.5278 11.4111C1.66145 11.3537 1.78232 11.2702 1.88338 11.1656L5.75685 7.2921L9.63032 11.1656C9.83692 11.3651 10.1136 11.4755 10.4009 11.473C10.6881 11.4705 10.9628 11.3553 11.1659 11.1522C11.369 10.9491 11.4842 10.6744 11.4867 10.3872C11.4892 10.0999 11.3788 9.82323 11.1793 9.61662L7.3058 5.74315L11.1793 1.86968C11.3788 1.66308 11.4892 1.38637 11.4867 1.09915C11.4842 0.811926 11.369 0.537177 11.1659 0.334074C10.9628 0.13097 10.6881 0.015764 10.4009 0.0132681C10.1136 0.0107722 9.83692 0.121187 9.63032 0.32073L5.75685 4.1942L1.88338 0.32073C1.67795 0.115367 1.39937 0 1.1089 0C0.818429 0 0.53985 0.115367 0.334425 0.32073Z" fill="#FBFBFB" fill-opacity="0.5"/>
</svg>
