<svg width="67" height="64" viewBox="0 0 67 64" fill="none" xmlns="http://www.w3.org/2000/svg">
<path d="M20.5956 45.041H18.3071C17.0432 45.041 16.0186 46.0482 16.0186 47.2907V60.7891C16.0186 62.0315 17.0432 63.0388 18.3071 63.0388H20.5956C21.8595 63.0388 22.8841 62.0315 22.8841 60.7891V47.2907C22.8841 46.0482 21.8595 45.041 20.5956 45.041Z" fill="url(#paint0_linear_549_301)"/>
<path d="M6.86413 51.7915H4.57562C3.31171 51.7915 2.28711 52.7987 2.28711 54.0412V60.7904C2.28711 62.0329 3.31171 63.0401 4.57562 63.0401H6.86413C8.12804 63.0401 9.15264 62.0329 9.15264 60.7904V54.0412C9.15264 52.7987 8.12804 51.7915 6.86413 51.7915Z" fill="url(#paint1_linear_549_301)"/>
<path d="M34.326 38.293H32.0375C30.7736 38.293 29.749 39.3002 29.749 40.5427V60.7902C29.749 62.0327 30.7736 63.0399 32.0375 63.0399H34.326C35.59 63.0399 36.6146 62.0327 36.6146 60.7902V40.5427C36.6146 39.3002 35.59 38.293 34.326 38.293Z" fill="url(#paint2_linear_549_301)"/>
<path d="M48.0575 31.5439H45.769C44.5051 31.5439 43.4805 32.5512 43.4805 33.7937V60.7903C43.4805 62.0328 44.5051 63.04 45.769 63.04H48.0575C49.3214 63.04 50.346 62.0328 50.346 60.7903V33.7937C50.346 32.5512 49.3214 31.5439 48.0575 31.5439Z" fill="url(#paint3_linear_549_301)"/>
<path d="M61.7889 24.7949H59.5004C58.2365 24.7949 57.2119 25.8022 57.2119 27.0446V60.7905C57.2119 62.0329 58.2365 63.0402 59.5004 63.0402H61.7889C63.0528 63.0402 64.0774 62.0329 64.0774 60.7905V27.0446C64.0774 25.8022 63.0528 24.7949 61.7889 24.7949Z" fill="url(#paint4_linear_549_301)"/>
<path d="M7.86103 14.5129C8.69665 16.2429 10.0143 17.7043 11.6609 18.7277C13.3076 19.751 15.2157 20.2942 17.1638 20.2942C19.1119 20.2942 21.0201 19.751 22.6667 18.7277C24.3134 17.7043 25.631 16.2429 26.4666 14.5129C26.9585 13.4998 27.2719 12.412 27.3935 11.2958C27.4398 10.9226 27.4627 10.5469 27.4621 10.1709C27.4647 9.68498 27.4264 9.19964 27.3477 8.71988C27.258 8.06364 27.0969 7.41877 26.8671 6.79636C26.1643 4.81107 24.8503 3.09008 23.1074 1.87221C21.3645 0.654338 19.2793 0 17.1409 0C15.0026 0 12.9173 0.654338 11.1745 1.87221C9.43159 3.09008 8.11757 4.81107 7.41477 6.79636C7.18498 7.41877 7.02386 8.06364 6.93418 8.71988C6.92858 8.81729 6.92858 8.91493 6.93418 9.01234C6.88234 9.39636 6.85939 9.78361 6.86553 10.1709C6.8649 10.5469 6.88783 10.9226 6.93418 11.2958C7.05577 12.412 7.36916 13.4998 7.86103 14.5129ZM17.7359 11.2958H16.5917C15.8823 11.2965 15.1979 11.0381 14.6714 10.5706C14.145 10.1032 13.814 9.46013 13.7427 8.76627C13.6714 8.07242 13.8649 7.37727 14.2856 6.81578C14.7064 6.25429 15.3243 5.86652 16.0196 5.72775V4.54664C16.0196 4.24831 16.1401 3.9622 16.3547 3.75125C16.5693 3.54029 16.8603 3.42178 17.1638 3.42178C17.4673 3.42178 17.7583 3.54029 17.9729 3.75125C18.1875 3.9622 18.3081 4.24831 18.3081 4.54664V5.6715H19.4523C19.7558 5.6715 20.0469 5.79001 20.2614 6.00097C20.476 6.21192 20.5966 6.49803 20.5966 6.79636C20.5966 7.0947 20.476 7.38081 20.2614 7.59176C20.0469 7.80271 19.7558 7.92122 19.4523 7.92122H16.5917C16.44 7.92122 16.2944 7.98048 16.1871 8.08596C16.0798 8.19143 16.0196 8.33449 16.0196 8.48365C16.0196 8.63282 16.0798 8.77588 16.1871 8.88135C16.2944 8.98683 16.44 9.04609 16.5917 9.04609H17.7359C18.4946 8.9715 19.2524 9.19625 19.8425 9.6709C20.4326 10.1455 20.8068 10.8312 20.8827 11.577C20.9585 12.3229 20.7299 13.0678 20.2471 13.6479C19.7642 14.228 19.0668 14.5958 18.3081 14.6704V15.7952C18.3081 16.0936 18.1875 16.3797 17.9729 16.5906C17.7583 16.8016 17.4673 16.9201 17.1638 16.9201C16.8603 16.9201 16.5693 16.8016 16.3547 16.5906C16.1401 16.3797 16.0196 16.0936 16.0196 15.7952V14.6704H14.8753C14.5718 14.6704 14.2808 14.5519 14.0662 14.3409C13.8516 14.13 13.7311 13.8439 13.7311 13.5455C13.7311 13.2472 13.8516 12.9611 14.0662 12.7501C14.2808 12.5392 14.5718 12.4207 14.8753 12.4207H17.7359C17.8877 12.4207 18.0332 12.3614 18.1405 12.2559C18.2478 12.1505 18.3081 12.0074 18.3081 11.8582C18.3081 11.7091 18.2478 11.566 18.1405 11.4605C18.0332 11.3551 17.8877 11.2958 17.7359 11.2958ZM66.0922 3.81548L65.9205 3.658C65.7428 3.52105 65.5278 3.43885 65.3026 3.42178H60.6455C60.342 3.42178 60.051 3.54029 59.8364 3.75125C59.6218 3.9622 59.5013 4.24831 59.5013 4.54664C59.5013 4.84497 59.6218 5.13109 59.8364 5.34204C60.051 5.55299 60.342 5.6715 60.6455 5.6715H62.4191L56.366 11.5208C42.2445 25.1498 23.2221 32.7495 3.43276 32.6682H1.14425C0.84078 32.6682 0.549734 32.7867 0.335144 32.9976C0.120555 33.2086 0 33.4947 0 33.793C0 34.0914 0.120555 34.3775 0.335144 34.5884C0.549734 34.7994 0.84078 34.9179 1.14425 34.9179H4.73721C24.6778 34.677 43.7513 26.8658 57.9679 13.1181L64.0783 7.22381V9.04609C64.0783 9.34442 64.1988 9.63053 64.4134 9.84148C64.628 10.0524 64.9191 10.1709 65.2225 10.1709C65.526 10.1709 65.817 10.0524 66.0316 9.84148C66.2462 9.63053 66.3668 9.34442 66.3668 9.04609V4.54664C66.3668 4.27854 66.2694 4.01924 66.0922 3.81548Z" fill="url(#paint5_linear_549_301)"/>
<defs>
<linearGradient id="paint0_linear_549_301" x1="15.7082" y1="39.9021" x2="-2.71191" y2="53.0689" gradientUnits="userSpaceOnUse">
<stop stop-color="#3EDD17"/>
<stop offset="1" stop-color="#B60D0D" stop-opacity="0.72"/>
</linearGradient>
<linearGradient id="paint1_linear_549_301" x1="1.97676" y1="48.5797" x2="-10.082" y2="62.3711" gradientUnits="userSpaceOnUse">
<stop stop-color="#3EDD17"/>
<stop offset="1" stop-color="#B60D0D" stop-opacity="0.72"/>
</linearGradient>
<linearGradient id="paint2_linear_549_301" x1="29.4387" y1="31.2269" x2="7.52822" y2="42.6172" gradientUnits="userSpaceOnUse">
<stop stop-color="#3EDD17"/>
<stop offset="1" stop-color="#B60D0D" stop-opacity="0.72"/>
</linearGradient>
<linearGradient id="paint3_linear_549_301" x1="43.1701" y1="22.5508" x2="19.3178" y2="32.2935" gradientUnits="userSpaceOnUse">
<stop stop-color="#3EDD17"/>
<stop offset="1" stop-color="#B60D0D" stop-opacity="0.72"/>
</linearGradient>
<linearGradient id="paint4_linear_549_301" x1="56.9016" y1="13.8746" x2="31.8988" y2="22.285" gradientUnits="userSpaceOnUse">
<stop stop-color="#3EDD17"/>
<stop offset="1" stop-color="#B60D0D" stop-opacity="0.72"/>
</linearGradient>
<linearGradient id="paint5_linear_549_301" x1="-3" y1="-9.97021" x2="-22.6604" y2="60.0506" gradientUnits="userSpaceOnUse">
<stop stop-color="#3EDD17"/>
<stop offset="1" stop-color="#B60D0D" stop-opacity="0.72"/>
</linearGradient>
</defs>
</svg>
