<svg width="60" height="36" viewBox="0 0 60 36" fill="none" xmlns="http://www.w3.org/2000/svg">
<path d="M10.4111 0.000678523C10.2435 0.0083622 10.0805 0.0581879 9.93717 0.145566C9.79387 0.232945 9.67486 0.355066 9.59111 0.500678L0.133108 16.9547C0.000940189 17.1848 -0.0345399 17.4582 0.0344674 17.7147C0.103475 17.9712 0.271321 18.1899 0.501108 18.3227L6.64511 21.8847C6.87422 22.0173 7.14637 22.0537 7.40201 21.9859C7.65764 21.918 7.87594 21.7515 8.00911 21.5227L10.2831 17.5687L11.9691 18.5487L13.8211 19.6227C13.826 21.9704 14.7583 24.2212 16.4151 25.8847C16.1726 26.3417 16.0492 26.8525 16.0562 27.3698C16.0632 27.8871 16.2004 28.3944 16.4551 28.8447C17.0551 29.8927 18.1911 30.2247 19.3251 30.1467C19.2911 30.7247 19.2391 31.3167 19.5451 31.8507C20.3411 33.2387 22.0791 33.6807 23.5011 33.0107C23.5411 33.4367 23.4351 33.8707 23.6611 34.2647C24.0701 34.9684 24.741 35.4817 25.5272 35.6923C26.3135 35.903 27.1511 35.7938 27.8571 35.3887L30.0011 34.1467L32.1451 35.3887C32.8511 35.7938 33.6888 35.903 34.475 35.6923C35.2613 35.4817 35.9322 34.9684 36.3411 34.2647C36.5671 33.8707 36.4611 33.4367 36.5011 33.0107C37.9211 33.6807 39.6611 33.2387 40.4591 31.8507C40.7651 31.3167 40.7111 30.7247 40.6771 30.1467C41.8131 30.2227 42.9471 29.8927 43.5471 28.8467C44.1511 27.7987 43.8671 26.6487 43.2311 25.7007C43.7471 25.4407 44.2871 25.1887 44.5951 24.6547C44.6351 24.5867 44.6551 24.5147 44.6891 24.4427C44.8281 24.3515 44.9423 24.2271 45.0211 24.0807C45.8071 22.7207 46.2151 21.1687 46.2151 19.5967L47.0051 19.1387L48.0331 18.5447L49.0551 17.9507L49.7231 17.5647L51.9931 21.5147C52.0588 21.6287 52.1463 21.7286 52.2506 21.8087C52.355 21.8888 52.4741 21.9475 52.6012 21.9815C52.7282 22.0155 52.8608 22.0241 52.9912 22.0068C53.1216 21.9895 53.2473 21.9466 53.3611 21.8807L59.5011 18.3207C59.7295 18.1884 59.8963 17.9712 59.9653 17.7165C60.0342 17.4617 59.9996 17.19 59.8691 16.9607L50.4111 0.506678C50.3191 0.346766 50.1847 0.215422 50.0226 0.127178C49.8606 0.0389334 49.6774 -0.00277112 49.4931 0.00667809C49.3348 0.0143868 49.1805 0.0596308 49.0431 0.138678L42.9011 3.70068C42.6732 3.83394 42.5072 4.05192 42.4394 4.30707C42.3716 4.56222 42.4074 4.83384 42.5391 5.06268L42.8191 5.55068L42.1431 5.94268L41.1211 6.53468L40.0971 7.12868L39.2851 7.59867C37.6229 6.6351 35.6932 6.23584 33.7851 6.46067C32.6043 6.60494 31.4651 6.98805 30.4371 7.58668C30.4358 7.58667 30.4344 7.58667 30.4331 7.58668L30.1631 7.74668L30.0151 7.83267L29.5451 7.57867C28.5062 7.00989 27.3675 6.6466 26.1911 6.50868V6.50068C24.2911 6.27868 22.3811 6.67867 20.7331 7.60667L18.8851 6.53468L17.1911 5.55068L17.4671 5.06668C17.5988 4.83697 17.6342 4.56426 17.5656 4.30824C17.4971 4.05223 17.33 3.83376 17.1011 3.70068L10.9611 0.140678C10.7956 0.0421965 10.6034 -0.00641225 10.4111 0.000678523ZM10.8251 2.37268L15.2391 4.93268L6.77911 19.6507L2.36511 17.0907L10.8251 2.37268ZM49.1771 2.37268L57.6371 17.0927L53.2231 19.6507L44.7671 4.93068L49.1771 2.37268ZM43.8131 7.28268L48.7271 15.8307L48.0511 16.2207L47.0291 16.8147L46.0051 17.4087L45.9551 17.4407C45.7634 16.6782 45.473 15.9439 45.0911 15.2567C45.086 15.2459 45.0806 15.2352 45.0751 15.2247C45.0651 15.2047 45.0591 15.1847 45.0471 15.1647C45.0378 15.1443 45.0278 15.1243 45.0171 15.1047L42.5911 10.8807C42.1669 10.1488 41.641 9.48077 41.0291 8.89667L41.0951 8.85667L42.1191 8.26467L43.1451 7.67068L43.8131 7.28268ZM16.1931 7.28667L17.8831 8.26667L18.9691 8.90067C18.3581 9.48311 17.8335 10.1498 17.4111 10.8807L14.9851 15.1047C14.5736 15.8444 14.2699 16.6391 14.0831 17.4647L12.9731 16.8187L11.2791 15.8347L16.1931 7.28667ZM35.3691 8.39667C36.6891 8.49067 37.9651 8.97067 39.0371 9.79067C39.7511 10.3387 40.3751 11.0387 40.8571 11.8767L43.2811 16.1007C44.1611 17.6327 44.3891 19.3407 44.0771 20.9327C43.8954 20.7469 43.6904 20.5856 43.4671 20.4527L35.2851 15.7047C35.3382 15.0861 35.2163 14.4651 34.9331 13.9127C34.911 13.8472 34.8822 13.7842 34.8471 13.7247V13.7207C34.8391 13.7067 34.8271 13.6967 34.8191 13.6807C34.7998 13.653 34.7791 13.6263 34.7571 13.6007C34.6591 13.4487 34.5611 13.2927 34.4451 13.1607C34.2954 12.9961 34.1292 12.8474 33.9491 12.7167H33.9451C33.3959 12.3222 32.7442 12.0953 32.0687 12.0634C31.3933 12.0314 30.7231 12.1958 30.1391 12.5367C30.1256 12.5444 30.1123 12.5524 30.0991 12.5607L30.0491 12.5927L25.5811 15.1867C25.5185 15.219 25.4595 15.2579 25.4051 15.3027L25.3251 15.3507C24.3171 15.9327 23.1251 15.5447 22.1791 14.6907L24.8431 13.1387L27.6131 11.5327C27.6218 11.5281 27.6305 11.5235 27.6391 11.5187L27.6471 11.5147L30.5471 9.83467C30.5464 9.83467 30.5478 9.83467 30.5471 9.83467L31.4371 9.31467C32.625 8.62037 33.9966 8.30045 35.3691 8.39667ZM24.6191 8.44067C25.7514 8.3789 26.8821 8.58587 27.9191 9.04467L26.6451 9.78467C26.6177 9.80007 26.591 9.81676 26.5651 9.83467L23.8411 11.4127L20.0011 13.6467C19.7723 13.7796 19.6055 13.9978 19.5373 14.2535C19.4691 14.5091 19.505 14.7814 19.6371 15.0107C21.0251 17.4227 24.0151 18.4267 26.3291 17.0847L30.8051 14.4867C30.8187 14.4777 30.832 14.4683 30.8451 14.4587L31.0751 14.3107L31.1451 14.2707C31.3207 14.1673 31.514 14.0974 31.7151 14.0647C32.0951 14.0047 32.4631 14.0967 32.7511 14.3107C32.8631 14.3927 32.9511 14.5107 33.0311 14.6267C32.8184 14.6508 32.6191 14.7426 32.4624 14.8886C32.3058 15.0345 32.2001 15.2268 32.1609 15.4372C32.1217 15.6477 32.1511 15.8652 32.2448 16.0577C32.3384 16.2502 32.4914 16.4076 32.6811 16.5067L33.5911 17.0327C33.5924 17.034 33.5938 17.0353 33.5951 17.0367C33.649 17.0756 33.7066 17.1091 33.7671 17.1367L42.4691 22.1827C42.5938 22.2519 42.7032 22.3455 42.7908 22.458C42.8784 22.5705 42.9424 22.6995 42.979 22.8373C43.0156 22.9751 43.024 23.1189 43.0038 23.26C42.9835 23.4011 42.935 23.5367 42.8611 23.6587C42.7941 23.7831 42.7024 23.8926 42.5916 23.9804C42.4808 24.0682 42.3533 24.1325 42.2169 24.1693C42.0804 24.2062 41.9379 24.2149 41.798 24.1948C41.6581 24.1748 41.5237 24.1264 41.4031 24.0527L31.6771 18.4127L30.6531 17.8187C30.5395 17.7527 30.4141 17.7098 30.2839 17.6924C30.1537 17.675 30.0214 17.6833 29.8944 17.7171C29.7675 17.7508 29.6484 17.8091 29.5441 17.8889C29.4397 17.9686 29.352 18.0681 29.2861 18.1817C29.2202 18.2953 29.1773 18.4207 29.1598 18.5509C29.1424 18.6811 29.1508 18.8134 29.1845 18.9404C29.2182 19.0673 29.2766 19.1863 29.3563 19.2907C29.436 19.3951 29.5355 19.4827 29.6491 19.5487L30.6731 20.1427L31.2671 20.4867L40.3991 25.7827H40.4071L41.4231 26.3727C41.9511 26.6787 42.1191 27.3127 41.8131 27.8467C41.7463 27.971 41.6547 28.0805 41.5442 28.1682C41.4336 28.256 41.3062 28.3203 41.1699 28.3572C41.0337 28.3941 40.8913 28.4028 40.7515 28.3827C40.6118 28.3627 40.4775 28.3144 40.3571 28.2407L39.3331 27.6467L29.6071 22.0067L28.5831 21.4127C28.3546 21.2931 28.0887 21.2665 27.841 21.3384C27.5933 21.4102 27.3829 21.575 27.2538 21.7983C27.1247 22.0216 27.0869 22.2861 27.1483 22.5367C27.2097 22.7872 27.3654 23.0043 27.5831 23.1427L28.6071 23.7367L38.3291 29.3767H38.3331C38.4572 29.4457 38.5661 29.539 38.6533 29.651C38.7405 29.7631 38.8042 29.8915 38.8406 30.0288C38.877 30.166 38.8853 30.3091 38.8652 30.4497C38.845 30.5902 38.7967 30.7252 38.7231 30.8467C38.6563 30.971 38.5647 31.0805 38.4542 31.1682C38.3436 31.256 38.2162 31.3203 38.0799 31.3572C37.9437 31.3941 37.8013 31.4028 37.6615 31.3827C37.5218 31.3627 37.3875 31.3144 37.2671 31.2407L35.2151 30.0527L33.3211 28.9527L24.4691 23.8187C24.3555 23.7527 24.23 23.7098 24.0999 23.6924C23.9697 23.675 23.8374 23.6833 23.7104 23.7171C23.5835 23.7508 23.4644 23.8091 23.3601 23.8889C23.2557 23.9686 23.168 24.0681 23.1021 24.1817C23.0362 24.2953 22.9933 24.4207 22.9758 24.5509C22.9584 24.6811 22.9668 24.8134 23.0005 24.9403C23.0342 25.0673 23.0926 25.1863 23.1723 25.2907C23.252 25.3951 23.3515 25.4827 23.4651 25.5487L25.5131 26.7367L34.2131 31.7827C34.338 31.8519 34.4497 31.9456 34.5375 32.0582C34.6253 32.1709 34.6894 32.3001 34.726 32.4381C34.7626 32.5762 34.771 32.7202 34.7505 32.8615C34.7301 33.0029 34.6813 33.1386 34.6071 33.2607C34.5401 33.3852 34.4484 33.4947 34.3375 33.5824C34.2266 33.6701 34.099 33.7342 33.9624 33.7708C33.8258 33.8073 33.6832 33.8155 33.5433 33.7948C33.4035 33.7742 33.2693 33.7251 33.1491 33.6507L23.0251 27.7827H23.0211C23.0171 27.7826 23.0131 27.7826 23.0091 27.7827L22.3991 27.4327L19.2191 25.5887C19.0151 25.4687 18.8451 25.3147 18.6591 25.1787C18.5235 24.9595 18.3086 24.8012 18.0591 24.7367C16.8781 23.6708 16.1001 22.2307 15.8561 20.6586C15.612 19.0866 15.9168 17.4784 16.7191 16.1047L19.1451 11.8807C19.7001 10.8978 20.4911 10.0686 21.4468 9.46805C22.4025 8.86747 23.4928 8.51438 24.6191 8.44067ZM5.87311 14.9607C5.66084 14.9556 5.45113 15.0081 5.26601 15.1126C5.0809 15.2171 4.92721 15.3698 4.82111 15.5547C4.66537 15.8274 4.6236 16.1512 4.70496 16.4548C4.78632 16.7585 4.98416 17.0174 5.25511 17.1747C5.5262 17.3322 5.84842 17.3752 6.15102 17.2943C6.45363 17.2133 6.7119 17.0149 6.86911 16.7427C7.02484 16.4699 7.06661 16.1462 6.98526 15.8425C6.9039 15.5388 6.70606 15.28 6.43511 15.1227C6.26404 15.0229 6.07081 14.9679 5.87311 14.9627V14.9607ZM54.1291 14.9607C53.9321 14.9662 53.7396 15.0212 53.5691 15.1207C53.2978 15.2776 53.0995 15.5364 53.0178 15.8401C52.9361 16.1438 52.9775 16.4677 53.1331 16.7407C53.2897 17.0136 53.5476 17.2128 53.8503 17.2945C54.153 17.3763 54.4755 17.3339 54.7471 17.1767C55.0181 17.0194 55.2159 16.7605 55.2973 16.4568C55.3786 16.1532 55.3368 15.8294 55.1811 15.5567C55.0753 15.3714 54.9217 15.2183 54.7365 15.1135C54.5514 15.0086 54.3416 14.9558 54.1291 14.9607ZM18.0551 27.1947C18.1131 27.2307 18.1571 27.2787 18.2151 27.3127L19.7471 28.1987C19.7128 28.2141 19.6794 28.2315 19.6471 28.2507C19.5266 28.3253 19.3921 28.3744 19.2518 28.395C19.1115 28.4155 18.9686 28.4071 18.8317 28.3701C18.6949 28.3332 18.567 28.2686 18.4562 28.1802C18.3453 28.0919 18.2537 27.9818 18.1871 27.8567C18.0735 27.6565 18.0273 27.4251 18.0551 27.1967V27.1947ZM21.7311 29.3527L23.8711 30.5907L22.7351 31.2507C22.6148 31.3244 22.4807 31.3729 22.341 31.3931C22.2013 31.4132 22.059 31.4047 21.9227 31.368C21.7865 31.3313 21.6591 31.2673 21.5484 31.1797C21.4378 31.0921 21.3461 30.9829 21.2791 30.8587C21.2059 30.7368 21.1581 30.6014 21.1383 30.4606C21.1185 30.3198 21.1273 30.1765 21.164 30.0391C21.2008 29.9018 21.2648 29.7733 21.3523 29.6612C21.4397 29.5491 21.5488 29.4557 21.6731 29.3867C21.6935 29.376 21.7135 29.3647 21.7331 29.3527H21.7311ZM25.8611 31.7427L28.0091 32.9887L26.8531 33.6567C26.7328 33.7308 26.5987 33.7797 26.4589 33.8002C26.3191 33.8207 26.1766 33.8124 26.0401 33.7759C25.9036 33.7394 25.7759 33.6754 25.665 33.5878C25.5541 33.5003 25.4623 33.391 25.3951 33.2667C25.3213 33.1443 25.273 33.0084 25.253 32.8669C25.233 32.7255 25.2418 32.5814 25.2788 32.4434C25.3157 32.3054 25.3802 32.1763 25.4682 32.0638C25.5562 31.9513 25.6661 31.8577 25.7911 31.7887C25.8151 31.7743 25.8384 31.759 25.8611 31.7427Z" fill="url(#paint0_linear_653_72)"/>
<defs>
<linearGradient id="paint0_linear_653_72" x1="0.00110729" y1="17.8987" x2="183" y2="135" gradientUnits="userSpaceOnUse">
<stop stop-color="white"/>
<stop offset="1" stop-color="#BE1687"/>
</linearGradient>
</defs>
</svg>
