<svg width="57" height="54" viewBox="0 0 57 54" fill="none" xmlns="http://www.w3.org/2000/svg">
<path d="M51.0572 46.9794L29.6201 53.2608C26.6882 54.1189 23.5754 54.1448 20.6296 53.3355L2.30003 48.2863C1.76966 48.14 1.31916 47.7889 1.04761 47.3104C0.776071 46.8319 0.705736 46.2651 0.852082 45.7348C0.998427 45.2044 1.34947 44.7539 1.82797 44.4824C2.30648 44.2108 2.87325 44.1405 3.40362 44.2868L21.7332 49.3318C23.9354 49.9379 26.2629 49.9178 28.4543 49.2737L49.8914 42.9924C50.6037 42.7827 51.2092 42.3091 51.5844 41.6684C51.9597 41.0276 52.0764 40.2678 51.9108 39.544C51.7452 38.8201 51.3097 38.1867 50.6931 37.7728C50.0766 37.359 49.3254 37.1959 48.5928 37.3168L37.5154 39.1423C37.4656 39.1547 37.4241 39.1381 37.3785 39.1423C37.3743 39.2418 37.3868 39.3373 37.3785 39.4327C37.2192 41.1605 36.4205 42.7665 35.1389 43.9361C33.8572 45.1057 32.185 45.7546 30.4499 45.7555C30.3379 45.7555 30.2259 45.7555 30.118 45.7472L21.2727 45.4651C20.2544 45.4345 19.2389 45.3431 18.2316 45.1913L14.8254 44.681C14.2807 44.5995 13.7907 44.3051 13.4631 43.8624C13.1356 43.4197 12.9973 42.8649 13.0787 42.3203C13.1601 41.7756 13.4546 41.2856 13.8973 40.958C14.34 40.6305 14.8947 40.4922 15.4394 40.5736L18.8456 41.0881C19.6934 41.2172 20.5482 41.2948 21.4054 41.3204L30.2757 41.6025C31.0044 41.6402 31.7197 41.3957 32.2729 40.9197C32.8261 40.4438 33.1746 39.7731 33.2462 39.0468C33.3188 38.3184 33.1033 37.5904 32.6458 37.0189C32.1883 36.4474 31.5251 36.0777 30.7984 35.9891L24.5544 35.2009C22.849 34.986 21.2453 34.2714 19.945 33.1472C18.5113 31.9046 16.8139 31.0042 14.9811 30.514C13.1483 30.0238 11.2281 29.9567 9.3655 30.3177L3.24181 31.4793C2.70611 31.5718 2.15552 31.4503 1.70849 31.141C1.26147 30.8316 0.953746 30.3591 0.851528 29.8252C0.749309 29.2913 0.860768 28.7386 1.16192 28.286C1.46307 27.8334 1.92985 27.5171 2.46183 27.4052L8.58552 26.2435C11.0618 25.7645 13.6145 25.8543 16.0509 26.5062C18.4874 27.158 20.7439 28.3549 22.6501 30.0065C23.3338 30.5969 24.1767 30.9722 25.073 31.0852L31.3129 31.8735C32.3616 32.0048 33.3664 32.3744 34.2502 32.954C35.134 33.5336 35.8735 34.3079 36.4118 35.2175C36.5473 35.1458 36.6907 35.0901 36.8391 35.0515L47.9207 33.226C49.6938 32.9384 51.5098 33.337 52.9996 34.3406C54.4893 35.3443 55.5408 36.8776 55.9404 38.6289C56.3399 40.3802 56.0574 42.2179 55.1503 43.7683C54.2432 45.3187 52.7796 46.4696 51.0572 46.9794ZM16.4019 9.30794C16.4031 7.53917 16.9079 5.80731 17.8573 4.31492C18.8066 2.82252 20.1613 1.6313 21.7628 0.880575C23.3644 0.129852 25.1466 -0.149331 26.901 0.07568C28.6554 0.300691 30.3094 1.02059 31.6697 2.15118C33.0299 1.02059 34.684 0.300691 36.4384 0.07568C38.1927 -0.149331 39.9749 0.129852 41.5765 0.880575C43.178 1.6313 44.5327 2.82252 45.4821 4.31492C46.4314 5.80731 46.9362 7.53917 46.9374 9.30794C46.6992 13.4726 45.062 17.4349 42.291 20.553C39.52 23.6711 35.7775 25.7625 31.6697 26.4883C27.5675 25.7516 23.832 23.6576 21.0631 20.5426C18.2942 17.4275 16.6526 13.4681 16.4019 9.30794ZM20.5508 9.31624C20.8043 12.3792 22.0143 15.2851 24.0096 17.6228C26.0049 19.9606 28.6845 21.612 31.6697 22.3436C34.6554 21.6118 37.3356 19.9597 39.3309 17.6212C41.3263 15.2826 42.5358 12.3758 42.7885 9.31209C42.7883 8.21271 42.437 7.14213 41.7859 6.25632C41.1348 5.37052 40.2178 4.71578 39.1686 4.38749C38.1194 4.0592 36.9927 4.07453 35.9528 4.43123C34.9129 4.78793 34.0141 5.46737 33.3873 6.37056C33.187 6.63684 32.9276 6.85291 32.6295 7.00172C32.3314 7.15052 32.0028 7.22799 31.6697 7.22799C31.3365 7.22799 31.0079 7.15052 30.7098 7.00172C30.4117 6.85291 30.1523 6.63684 29.952 6.37056C29.2241 5.31819 28.131 4.57402 26.885 4.28265C25.6391 3.99129 24.3293 4.17354 23.2102 4.794C22.4049 5.24327 21.7339 5.89914 21.2665 6.69403C20.799 7.48892 20.552 8.39408 20.5508 9.31624Z" fill="#BE1687"/>
</svg>
