<svg width="43" height="61" viewBox="0 0 43 61" fill="none" xmlns="http://www.w3.org/2000/svg">
<path d="M40.8516 60.0469C40.8516 59.7941 40.7511 59.5517 40.5724 59.3729C40.3937 59.1942 40.1512 59.0938 39.8984 59.0938H5.58594C5.33315 59.0938 5.09072 59.1942 4.91198 59.3729C4.73323 59.5517 4.63281 59.7941 4.63281 60.0469C4.63281 60.2997 4.73323 60.5421 4.91198 60.7208C5.09072 60.8996 5.33315 61 5.58594 61H39.8984C40.1512 61 40.3937 60.8996 40.5724 60.7208C40.7511 60.5421 40.8516 60.2997 40.8516 60.0469Z" fill="#D00E0E"/>
<path d="M1.33001 17.8304C0.533197 18.3603 -0.675366 19.973 0.47029 22.2643C1.42151 24.1648 3.40592 26.4905 5.51613 27.1043C6.02334 27.2632 6.55862 27.3121 7.08622 27.2477C7.61383 27.1832 8.12161 27.007 8.57567 26.7306C10.6706 25.4763 13.1449 23.7798 14.1934 23.0516C15.5163 23.7207 17.1862 23.8598 18.8828 23.4233L18.9056 23.4157C18.8065 26.5629 17.7409 28.5282 12.5311 33.3663C7.88751 37.6763 5.13298 43.3379 5.15967 48.5134C5.17873 51.9084 6.41588 54.8231 8.74342 56.9371C8.91881 57.0977 9.148 57.1868 9.38582 57.1868H36.0733C36.3261 57.1868 36.5685 57.0864 36.7473 56.9077C36.926 56.7289 37.0265 56.4865 37.0265 56.2337C37.0265 55.9809 36.926 55.7385 36.7473 55.5597C36.5685 55.381 36.3261 55.2806 36.0733 55.2806H9.76517C8.01332 53.5554 7.08307 51.2203 7.06782 48.5038C7.04304 43.925 9.63554 38.6581 13.8293 34.7636C19.386 29.6053 20.8233 27.1615 20.8233 22.8743C20.8233 22.7961 20.7966 22.7275 20.7795 22.6551C21.8222 22.0927 22.7239 21.3493 23.3396 20.4495C24.1116 19.3249 25.7739 16.4369 24.5405 13.8806C24.4859 13.768 24.4097 13.6672 24.3162 13.584C24.2227 13.5008 24.1137 13.4368 23.9954 13.3958C23.8772 13.3547 23.752 13.3373 23.627 13.3446C23.5021 13.3519 23.3798 13.3838 23.2671 13.4384C23.1545 13.4929 23.0537 13.5692 22.9705 13.6627C22.8873 13.7562 22.8234 13.8652 22.7823 13.9835C22.7412 14.1017 22.7238 14.2269 22.7312 14.3518C22.7385 14.4768 22.7703 14.5991 22.8249 14.7117C23.3796 15.8612 22.985 17.6035 21.7688 19.3725C21.0673 20.3943 19.813 21.2197 18.4119 21.5781C16.9879 21.9421 15.6345 21.782 14.6909 21.1358C14.5304 21.0258 14.3401 20.9676 14.1455 20.969C13.9509 20.9703 13.7614 21.0312 13.6024 21.1434C13.5681 21.1663 10.215 23.5281 7.59967 25.097C7.3704 25.2381 7.11301 25.3272 6.84559 25.3582C6.57818 25.3891 6.30723 25.3611 6.05179 25.2762C4.57635 24.8454 2.95413 22.9658 2.17829 21.4141C1.55113 20.1598 2.19354 19.5612 2.4852 19.3477C9.05604 13.6728 12.3539 7.77679 12.4892 7.52707C12.5519 7.41168 12.5904 7.28468 12.6022 7.15387C12.614 7.02307 12.5989 6.89123 12.5578 6.76648C12.1455 5.49405 11.8019 4.20039 11.5284 2.89107C13.5224 4.09201 16.9517 5.76951 20.5221 5.76951C25.486 5.76951 37.0265 7.62239 37.0265 24.7863C37.0265 24.8797 37.0093 34.2108 33.2711 44.4721C33.2269 44.5901 33.2064 44.7158 33.211 44.8417C33.2156 44.9677 33.2452 45.0915 33.2979 45.2059C33.3507 45.3204 33.4257 45.4233 33.5184 45.5086C33.6112 45.5939 33.72 45.6599 33.8385 45.7029C33.957 45.7459 34.0828 45.7649 34.2087 45.759C34.3346 45.753 34.4581 45.7221 34.572 45.6681C34.6858 45.6141 34.7879 45.538 34.8722 45.4443C34.9565 45.3506 35.0213 45.2411 35.063 45.1222C38.9155 34.5463 38.9346 25.1713 38.9327 24.7806C38.9327 5.3692 24.8398 3.86135 20.5221 3.86135C15.7394 3.86135 10.968 0.233758 10.9223 0.195633C10.78 0.0884359 10.6109 0.0226269 10.4337 0.00547109C10.2564 -0.0116847 10.0778 0.0204799 9.91767 0.0984139C9.75819 0.176995 9.62387 0.298613 9.52989 0.449526C9.4359 0.600438 9.386 0.774629 9.38582 0.952414C9.38582 2.82245 10.2722 5.84767 10.6173 6.95139C9.82045 8.28195 6.67895 13.2058 1.33001 17.8304Z" fill="#D00E0E"/>
<path d="M32.2448 2.93562C29.1929 0.878781 25.7808 0 20.8359 0C20.5832 0 20.3407 0.100418 20.162 0.279164C19.9832 0.457909 19.8828 0.700341 19.8828 0.953125C19.8828 1.20591 19.9832 1.44834 20.162 1.62709C20.3407 1.80583 20.5832 1.90625 20.8359 1.90625C25.3728 1.90625 28.4667 2.68591 31.1812 4.51591C35.5922 7.49347 40.8516 13.4257 40.8516 24.7812C40.8516 27.5472 40.8516 31.3349 38.9739 38.8475C38.9192 39.0904 38.9618 39.345 39.0925 39.5569C39.2231 39.7688 39.4315 39.9212 39.6731 39.9815C39.9146 40.0418 40.1702 40.0051 40.3851 39.8794C40.6 39.7537 40.7571 39.5489 40.823 39.3088C42.7578 31.5713 42.7578 27.6463 42.7578 24.7812C42.7578 12.5889 37.041 6.17053 32.2448 2.93562Z" fill="#D00E0E"/>
</svg>
