<svg width="19" height="19" viewBox="0 0 19 19" fill="none" xmlns="http://www.w3.org/2000/svg">
<path d="M14.2754 3.23979C14.0548 3.23979 13.8391 3.30521 13.6557 3.42779C13.4722 3.55036 13.3293 3.72458 13.2448 3.92841C13.1604 4.13224 13.1383 4.35653 13.1813 4.57291C13.2244 4.7893 13.3306 4.98806 13.4866 5.14406C13.6426 5.30007 13.8414 5.40631 14.0578 5.44935C14.2742 5.49239 14.4985 5.4703 14.7023 5.38587C14.9061 5.30145 15.0803 5.15847 15.2029 4.97503C15.3255 4.79158 15.3909 4.57591 15.3909 4.35529C15.3909 4.05944 15.2734 3.77571 15.0642 3.56651C14.855 3.35732 14.5713 3.23979 14.2754 3.23979ZM18.5515 5.48938C18.5334 4.7181 18.389 3.95501 18.1239 3.23049C17.8875 2.61059 17.5196 2.04926 17.0456 1.58513C16.5853 1.10866 16.0226 0.743098 15.4002 0.516116C14.6776 0.242968 13.9137 0.0952105 13.1413 0.0792124C12.156 0.0234374 11.8399 0.0234375 9.31144 0.0234375C6.78298 0.0234375 6.46692 0.0234374 5.48157 0.0792124C4.70923 0.0952105 3.94529 0.242968 3.22268 0.516116C2.60142 0.745396 2.03926 1.11064 1.57732 1.58513C1.10084 2.04544 0.735285 2.60808 0.508303 3.23049C0.235156 3.9531 0.087398 4.71704 0.0713999 5.48938C0.0156249 6.47473 0.015625 6.79079 0.015625 9.31925C0.015625 11.8477 0.0156249 12.1638 0.0713999 13.1491C0.087398 13.9215 0.235156 14.6854 0.508303 15.408C0.735285 16.0304 1.10084 16.5931 1.57732 17.0534C2.03926 17.5279 2.60142 17.8931 3.22268 18.1224C3.94529 18.3955 4.70923 18.5433 5.48157 18.5593C6.46692 18.6151 6.78298 18.6151 9.31144 18.6151C11.8399 18.6151 12.156 18.6151 13.1413 18.5593C13.9137 18.5433 14.6776 18.3955 15.4002 18.1224C16.0226 17.8954 16.5853 17.5299 17.0456 17.0534C17.5217 16.591 17.8899 16.0292 18.1239 15.408C18.389 14.6835 18.5334 13.9204 18.5515 13.1491C18.5515 12.1638 18.6073 11.8477 18.6073 9.31925C18.6073 6.79079 18.6073 6.47473 18.5515 5.48938ZM16.8782 13.0376C16.8715 13.6277 16.7646 14.2123 16.5622 14.7666C16.4138 15.1712 16.1754 15.5367 15.865 15.8356C15.5635 16.1429 15.1987 16.3808 14.796 16.5328C14.2417 16.7352 13.657 16.8421 13.067 16.8489C12.1374 16.8953 11.7934 16.9046 9.34863 16.9046C6.90383 16.9046 6.55988 16.9046 5.6303 16.8489C5.0176 16.8603 4.40752 16.766 3.82691 16.57C3.44186 16.4102 3.0938 16.1729 2.80437 15.8728C2.49583 15.5742 2.26042 15.2083 2.11648 14.8038C1.88953 14.2415 1.76365 13.6436 1.74465 13.0376C1.74465 12.108 1.68887 11.7641 1.68887 9.31925C1.68887 6.87445 1.68887 6.53051 1.74465 5.60093C1.74881 4.99768 1.85894 4.39986 2.07 3.83472C2.23365 3.44236 2.48484 3.0926 2.80437 2.81218C3.08679 2.49256 3.43582 2.23872 3.82691 2.06852C4.39354 1.86405 4.99074 1.75718 5.59312 1.75246C6.5227 1.75246 6.86664 1.69668 9.31144 1.69668C11.7562 1.69668 12.1002 1.69668 13.0298 1.75246C13.6198 1.75923 14.2045 1.8661 14.7588 2.06852C15.1812 2.22529 15.5604 2.48018 15.865 2.81218C16.1696 3.09773 16.4076 3.44684 16.5622 3.83472C16.7688 4.40078 16.8757 4.99835 16.8782 5.60093C16.9247 6.53051 16.934 6.87445 16.934 9.31925C16.934 11.7641 16.9247 12.108 16.8782 13.0376ZM9.31144 4.5505C8.36867 4.55234 7.4476 4.83358 6.6646 5.3587C5.88161 5.88381 5.27183 6.62923 4.91232 7.50076C4.55281 8.3723 4.4597 9.33084 4.64475 10.2553C4.8298 11.1797 5.28471 12.0286 5.952 12.6945C6.6193 13.3605 7.46902 13.8138 8.39382 13.997C9.31861 14.1803 10.277 14.0853 11.1478 13.7241C12.0186 13.3629 12.7629 12.7517 13.2865 11.9677C13.81 11.1837 14.0895 10.262 14.0895 9.31925C14.0907 8.69188 13.9679 8.07046 13.7281 7.49073C13.4883 6.91099 13.1363 6.38439 12.6922 5.9412C12.2482 5.49802 11.7209 5.14699 11.1407 4.90832C10.5605 4.66965 9.93881 4.54805 9.31144 4.5505ZM9.31144 12.4148C8.69921 12.4148 8.10072 12.2332 7.59167 11.8931C7.08262 11.5529 6.68586 11.0695 6.45157 10.5039C6.21728 9.93822 6.15597 9.31582 6.27541 8.71535C6.39486 8.11488 6.68967 7.56332 7.12259 7.1304C7.5555 6.69749 8.10707 6.40267 8.70754 6.28323C9.30801 6.16379 9.93041 6.22509 10.496 6.45938C11.0617 6.69367 11.5451 7.09043 11.8853 7.59948C12.2254 8.10854 12.4069 8.70702 12.4069 9.31925C12.4069 9.72576 12.3269 10.1283 12.1713 10.5039C12.0158 10.8794 11.7877 11.2207 11.5003 11.5081C11.2129 11.7956 10.8716 12.0236 10.496 12.1791C10.1205 12.3347 9.71795 12.4148 9.31144 12.4148Z" fill="white"/>
</svg>
