<svg width="63" height="63" viewBox="0 0 63 63" fill="none" xmlns="http://www.w3.org/2000/svg">
<path d="M31.5 0C14.1036 0 0 14.1036 0 31.5C0 48.8965 14.1036 63 31.5 63C48.8965 63 63 48.8965 63 31.5C63 14.1036 48.8965 0 31.5 0ZM31.5 60.0178C15.7811 60.0178 2.98225 47.2189 2.98225 31.5C2.98225 15.7811 15.7811 2.98225 31.5 2.98225C47.2189 2.98225 60.0178 15.7811 60.0178 31.5C60.0178 47.2189 47.2189 60.0178 31.5 60.0178Z" fill="#FEFEFE"/>
<path d="M46.4709 30.0127H20.1277L29.5715 20.5689C30.1306 20.0097 30.1306 19.0157 29.5715 18.4565C29.0123 17.8973 28.0182 17.8973 27.459 18.4565L15.4058 30.4476C15.2815 30.5719 15.1573 30.7583 15.0951 30.9447C14.9709 31.3174 14.9709 31.7524 15.0951 32.063C15.1573 32.2494 15.2815 32.4358 15.4058 32.56L27.459 44.5512C27.7697 44.8618 28.1425 44.9861 28.5153 44.9861C28.888 44.9861 29.2608 44.8618 29.5715 44.5512C30.1306 43.992 30.1306 42.9979 29.5715 42.4387L20.1277 32.995H46.533C47.3407 32.995 48.0241 32.3115 48.0241 31.5038C48.0241 30.6961 47.3407 30.0127 46.4709 30.0127Z" fill="#FEFEFE"/>
</svg>
