<svg width="20" height="19" viewBox="0 0 20 19" fill="none" xmlns="http://www.w3.org/2000/svg">
<path d="M19.7322 11.4775V18.2975C19.7322 18.465 19.5886 18.6086 19.4211 18.6086H15.9034C15.7359 18.6086 15.5923 18.465 15.5923 18.2975V11.9561C15.5923 10.281 14.9941 9.13238 13.4865 9.13238C12.3379 9.13238 11.6679 9.89813 11.3568 10.64C11.2371 10.9032 11.2132 11.2861 11.2132 11.645V18.2975C11.2132 18.465 11.0696 18.6086 10.9021 18.6086H7.40836C7.24085 18.6086 7.09727 18.465 7.09727 18.2975C7.09727 16.5985 7.14513 8.39056 7.09727 6.47617C7.09727 6.30867 7.24085 6.16509 7.40836 6.16509H10.926C11.0935 6.16509 11.2371 6.30867 11.2371 6.47617V7.93589C11.2371 7.95982 11.2132 7.95982 11.2132 7.98375H11.2371V7.93589C11.7875 7.09835 12.7686 5.87793 14.9702 5.87793C17.6982 5.87793 19.7322 7.67266 19.7322 11.4775ZM0.971243 18.6325H4.48892C4.65643 18.6325 4.80001 18.4889 4.80001 18.3214V6.47617C4.80001 6.30867 4.65643 6.16509 4.48892 6.16509H0.971243C0.803735 6.16509 0.660156 6.30867 0.660156 6.47617V18.3214C0.684086 18.4889 0.803735 18.6325 0.971243 18.6325Z" fill="#FEFEFE" fill-opacity="0.9"/>
<path d="M2.6239 4.59448C3.85299 4.59448 4.84937 3.59811 4.84937 2.36902C4.84937 1.13993 3.85299 0.143555 2.6239 0.143555C1.39481 0.143555 0.398438 1.13993 0.398438 2.36902C0.398438 3.59811 1.39481 4.59448 2.6239 4.59448Z" fill="#FEFEFE" fill-opacity="0.9"/>
</svg>
