<svg width="31" height="31" viewBox="0 0 31 31" fill="none" xmlns="http://www.w3.org/2000/svg">
<path d="M5.16667 16.7891C5.88003 16.7891 6.45833 16.2108 6.45833 15.4975C6.45833 14.7841 5.88003 14.2058 5.16667 14.2058C4.4533 14.2058 3.875 14.7841 3.875 15.4975C3.875 16.2108 4.4533 16.7891 5.16667 16.7891Z" fill="#661E78"/>
<path d="M25.9121 14.2058H10.2571C9.58657 14.2058 9.04297 14.7494 9.04297 15.42V15.575C9.04297 16.2455 9.58657 16.7891 10.2571 16.7891H25.9121C26.5827 16.7891 27.1263 16.2455 27.1263 15.575V15.42C27.1263 14.7494 26.5827 14.2058 25.9121 14.2058Z" fill="#661E78"/>
<path d="M25.9108 20.6692H5.08917C4.4186 20.6692 3.875 21.2128 3.875 21.8834V22.0384C3.875 22.7089 4.4186 23.2525 5.08917 23.2525H25.9108C26.5814 23.2525 27.125 22.7089 27.125 22.0384V21.8834C27.125 21.2128 26.5814 20.6692 25.9108 20.6692Z" fill="#661E78"/>
<path d="M25.9108 7.75H5.08917C4.4186 7.75 3.875 8.2936 3.875 8.96417V9.11917C3.875 9.78973 4.4186 10.3333 5.08917 10.3333H25.9108C26.5814 10.3333 27.125 9.78973 27.125 9.11917V8.96417C27.125 8.2936 26.5814 7.75 25.9108 7.75Z" fill="#661E78"/>
</svg>
