<svg width="51" height="37" viewBox="0 0 51 37" fill="none" xmlns="http://www.w3.org/2000/svg">
<path d="M40.4623 14.6185H37.2888C37.0784 14.6185 36.8766 14.6995 36.7278 14.8438C36.579 14.9881 36.4954 15.1838 36.4954 15.3879C36.4954 15.5919 36.579 15.7876 36.7278 15.9319C36.8766 16.0762 37.0784 16.1573 37.2888 16.1573H38.8756V17.696C38.8756 17.9001 38.9591 18.0958 39.1079 18.2401C39.2567 18.3844 39.4585 18.4654 39.6689 18.4654C39.8793 18.4654 40.0812 18.3844 40.2299 18.2401C40.3787 18.0958 40.4623 17.9001 40.4623 17.696V16.1573C41.0936 16.1573 41.699 15.9141 42.1453 15.4812C42.5917 15.0483 42.8424 14.4612 42.8424 13.8491V12.3103C42.8424 11.6981 42.5917 11.111 42.1453 10.6782C41.699 10.2453 41.0936 10.0021 40.4623 10.0021H38.8756C38.6651 10.0021 38.4633 9.92106 38.3145 9.77677C38.1658 9.63248 38.0822 9.43678 38.0822 9.23272V7.69394C38.0822 7.48988 38.1658 7.29418 38.3145 7.14989C38.4633 7.0056 38.6651 6.92454 38.8756 6.92454H42.0491C42.2595 6.92454 42.4613 6.84348 42.6101 6.69919C42.7589 6.5549 42.8424 6.35921 42.8424 6.15515C42.8424 5.95109 42.7589 5.7554 42.6101 5.61111C42.4613 5.46682 42.2595 5.38576 42.0491 5.38576H40.4623V3.84697C40.4623 3.64292 40.3787 3.44722 40.2299 3.30293C40.0812 3.15864 39.8793 3.07758 39.6689 3.07758C39.4585 3.07758 39.2567 3.15864 39.1079 3.30293C38.9591 3.44722 38.8756 3.64292 38.8756 3.84697V5.38576C38.2443 5.38576 37.6389 5.62894 37.1925 6.06181C36.7462 6.49467 36.4954 7.08177 36.4954 7.69394V9.23272C36.4954 9.84489 36.7462 10.432 37.1925 10.8649C37.6389 11.2977 38.2443 11.5409 38.8756 11.5409H40.4623C40.6727 11.5409 40.8745 11.622 41.0233 11.7663C41.1721 11.9105 41.2557 12.1062 41.2557 12.3103V13.8491C41.2557 14.0531 41.1721 14.2488 41.0233 14.3931C40.8745 14.5374 40.6727 14.6185 40.4623 14.6185ZM48.0153 26.3133L31.7351 27.632V25.747C31.7409 24.5871 31.358 23.4568 30.6439 22.5262C29.9299 21.5957 28.9235 20.9152 27.7762 20.5874L15.7755 17.0975C15.6402 16.6086 15.3429 16.1765 14.9295 15.8676C14.516 15.5587 14.0094 15.3901 13.4874 15.3879H0.793379C0.582962 15.3879 0.381163 15.4689 0.232375 15.6132C0.0835879 15.7575 0 15.9532 0 16.1573L0 33.0839C0 33.288 0.0835879 33.4837 0.232375 33.628C0.381163 33.7722 0.582962 33.8533 0.793379 33.8533H13.4874C13.9407 33.8519 14.3841 33.725 14.7656 33.4876C15.147 33.2502 15.4506 32.9121 15.6407 32.513L28.3078 36.1984C30.0291 36.702 31.8692 36.6751 33.5742 36.1215L49.0308 31.125C49.6237 30.9349 50.124 30.5403 50.4369 30.0162C50.7498 29.492 50.8534 28.8748 50.7282 28.2815C50.603 27.6881 50.2576 27.16 49.7575 26.7972C49.2575 26.4344 48.6376 26.2622 48.0153 26.3133ZM9.52054 32.3145H1.58676V16.9267H9.52054V32.3145ZM14.2808 31.5451C14.2808 31.7492 14.1972 31.9449 14.0484 32.0892C13.8997 32.2335 13.6979 32.3145 13.4874 32.3145H11.1073V16.9267H13.4874C13.6979 16.9267 13.8997 17.0077 14.0484 17.152C14.1972 17.2963 14.2808 17.492 14.2808 17.696V31.5451ZM48.531 29.6632L33.0728 34.6596C31.6778 35.1135 30.1719 35.1361 28.7632 34.7243L15.8676 30.9727V18.7301L27.3208 22.0616C28.1399 22.2964 28.8583 22.7826 29.3682 23.4471C29.8781 24.1116 30.1518 24.9187 30.1484 25.747V27.3304L23.3031 24.6744C23.2057 24.6328 23.1006 24.6107 22.9941 24.6093C22.8876 24.6079 22.782 24.6274 22.6834 24.6664C22.5848 24.7055 22.4954 24.7634 22.4204 24.8367C22.3454 24.91 22.2864 24.9972 22.2468 25.093C22.2073 25.1889 22.1881 25.2915 22.1903 25.3948C22.1925 25.498 22.2162 25.5997 22.2598 25.6939C22.3034 25.7881 22.3662 25.8728 22.4443 25.943C22.5224 26.0132 22.6143 26.0674 22.7144 26.1024L30.6482 29.18H30.6688C30.7074 29.19 30.7466 29.1972 30.7863 29.2016C30.838 29.2164 30.8912 29.2262 30.9449 29.2308C30.9545 29.2308 30.9624 29.2308 30.9719 29.2231C30.9814 29.2154 30.9973 29.2231 31.0116 29.2231L48.1486 27.8382C48.3842 27.8172 48.6195 27.8813 48.8095 28.018C48.9995 28.1548 49.1308 28.3547 49.1783 28.5795C49.2258 28.8042 49.1863 29.0381 49.0671 29.2363C48.948 29.4346 48.7577 29.5833 48.5326 29.654L48.531 29.6632ZM39.6689 21.543C41.8657 21.543 44.0132 20.9113 45.8398 19.7277C47.6664 18.5441 49.0901 16.8618 49.9307 14.8936C50.7714 12.9254 50.9914 10.7596 50.5628 8.67009C50.1342 6.58063 49.0764 4.66133 47.523 3.15491C45.9696 1.64848 43.9905 0.622597 41.8359 0.206976C39.6813 -0.208645 37.4479 0.00466711 35.4184 0.819937C33.3888 1.63521 31.654 3.01582 30.4335 4.78718C29.2131 6.55855 28.5616 8.64111 28.5616 10.7715C28.565 13.6273 29.7363 16.3652 31.8186 18.3845C33.9009 20.4039 36.7241 21.5398 39.6689 21.543ZM39.6689 1.53879C41.5519 1.53879 43.3926 2.08028 44.9583 3.09479C46.5239 4.10929 47.7442 5.55124 48.4648 7.2383C49.1854 8.92536 49.3739 10.7817 49.0065 12.5727C48.6392 14.3637 47.7324 16.0088 46.401 17.3C45.0695 18.5912 43.3731 19.4706 41.5263 19.8268C39.6795 20.1831 37.7652 20.0002 36.0256 19.3014C34.2859 18.6026 32.799 17.4192 31.7529 15.9009C30.7068 14.3826 30.1484 12.5976 30.1484 10.7715C30.1513 8.32372 31.1553 5.97699 32.9401 4.24614C34.7249 2.51529 37.1448 1.54164 39.6689 1.53879Z" fill="url(#paint0_linear_653_84)"/>
<defs>
<linearGradient id="paint0_linear_653_84" x1="-58.5" y1="-65.5" x2="95.5" y2="37" gradientUnits="userSpaceOnUse">
<stop stop-color="#BE1687"/>
<stop offset="0.661513" stop-color="white"/>
</linearGradient>
</defs>
</svg>
