<svg width="99" height="99" viewBox="0 0 99 99" fill="none" xmlns="http://www.w3.org/2000/svg">
<path d="M33.9326 43.8754C33.7649 43.7913 33.5724 43.7709 33.3908 43.8181C33.2093 43.8654 33.0511 43.977 32.9457 44.1322L32.8776 44.0997L32.8065 44.0642C32.6965 44.0051 32.5721 43.9783 32.4476 43.9868C32.3785 43.8758 32.2828 43.7838 32.1692 43.7192C31.7417 43.4779 31.3262 43.2162 30.9239 42.9349C30.8408 42.8744 30.7463 42.831 30.6462 42.8074C30.546 42.7837 30.4422 42.7803 30.3407 42.7973C30.2392 42.8144 30.1422 42.8514 30.0552 42.9064C29.9682 42.9614 29.8931 43.0332 29.8342 43.1176C29.7754 43.202 29.7339 43.2973 29.7123 43.3979C29.6908 43.4985 29.6895 43.6024 29.7086 43.7036C29.7276 43.8047 29.7667 43.901 29.8235 43.9868C29.8802 44.0726 29.9535 44.1462 30.0391 44.2034C30.48 44.5112 30.9379 44.8005 31.4081 45.0665C31.5458 45.1439 31.6896 45.1748 31.8459 45.164C31.9262 45.2998 32.0438 45.4099 32.1846 45.4811L32.4089 45.5909C32.5327 45.6497 32.6595 45.6992 32.7864 45.7487L33.0014 45.8322C33.1825 45.9122 33.3875 45.9192 33.5736 45.8517C33.7598 45.7843 33.9128 45.6477 34.0007 45.4703L34.2791 44.9149C34.3701 44.731 34.3848 44.5185 34.3199 44.3239C34.255 44.1292 34.1158 43.968 33.9326 43.8754ZM25.4696 36.1333C25.3882 35.949 25.2381 35.8038 25.0512 35.7285C24.8643 35.6532 24.6554 35.6538 24.4689 35.7302C24.2825 35.8066 24.1332 35.9527 24.0529 36.1375C23.9725 36.3223 23.9675 36.5311 24.0388 36.7196C24.2461 37.2223 24.475 37.7127 24.7256 38.1876C24.7688 38.2845 24.8315 38.3715 24.9097 38.4433C24.9879 38.515 25.08 38.5699 25.1803 38.6045C25.2806 38.6392 25.387 38.6529 25.4928 38.6448C25.5986 38.6366 25.7016 38.6069 25.7954 38.5573C25.8893 38.5077 25.9719 38.4394 26.0383 38.3566C26.1046 38.2738 26.1533 38.1782 26.1812 38.0758C26.2091 37.9734 26.2156 37.8664 26.2005 37.7614C26.1853 37.6563 26.1488 37.5555 26.093 37.4652C25.8634 37.0318 25.6554 36.5873 25.4696 36.1333ZM30.695 17.7317C31.0941 17.4424 31.5025 17.1733 31.9279 16.9227C32.1043 16.8177 32.232 16.6472 32.283 16.4483C32.334 16.2495 32.3042 16.0385 32.2001 15.8615C32.0946 15.6857 31.924 15.5586 31.7254 15.5076C31.5268 15.4567 31.3161 15.486 31.1389 15.5893C30.6749 15.8646 30.2232 16.1616 29.7885 16.4772C29.7062 16.5367 29.6363 16.6119 29.583 16.6984C29.5297 16.7849 29.4939 16.8811 29.4777 16.9814C29.4616 17.0817 29.4653 17.1843 29.4888 17.2831C29.5123 17.382 29.555 17.4753 29.6145 17.5577C29.674 17.6401 29.7492 17.7099 29.8357 17.7632C29.9222 17.8166 30.0184 17.8523 30.1187 17.8685C30.219 17.8846 30.3216 17.8809 30.4204 17.8574C30.5193 17.8339 30.6126 17.7912 30.695 17.7317ZM47.3951 16.785C47.822 17.0279 48.2397 17.2909 48.6418 17.5724C48.7248 17.6313 48.8187 17.6731 48.9181 17.6953C49.0174 17.7175 49.1201 17.7198 49.2203 17.7019C49.3205 17.6841 49.4162 17.6465 49.5017 17.5913C49.5872 17.5361 49.6609 17.4645 49.7185 17.3806C49.8358 17.2124 49.8814 17.0044 49.8455 16.8025C49.8095 16.6007 49.6948 16.4213 49.5266 16.3039C49.0858 15.9961 48.6295 15.7084 48.1592 15.4408C47.9814 15.3463 47.7738 15.3248 47.5805 15.381C47.3871 15.4371 47.2233 15.5665 47.1238 15.7415C47.0243 15.9165 46.997 16.1235 47.0476 16.3183C47.0983 16.5132 47.2229 16.6806 47.3951 16.785ZM27.708 39.9247C27.5789 39.7662 27.3924 39.6652 27.1891 39.6438C26.9859 39.6224 26.7824 39.6823 26.6232 39.8105C26.4639 39.9386 26.3619 40.1246 26.3394 40.3277C26.3169 40.5309 26.3757 40.7347 26.503 40.8946C26.8417 41.3138 27.1975 41.7191 27.5719 42.1058C27.6421 42.1795 27.7263 42.2384 27.8196 42.2792C27.9129 42.32 28.0133 42.3418 28.1151 42.3434C28.2169 42.345 28.318 42.3263 28.4125 42.2884C28.507 42.2506 28.593 42.1943 28.6655 42.1228C28.813 41.9803 28.8978 41.785 28.9013 41.5799C28.9048 41.3748 28.8266 41.1767 28.6841 41.0292C28.3416 40.6765 28.0159 40.3079 27.708 39.9247ZM24.6127 33.318C24.5168 32.8364 24.443 32.3507 24.3915 31.8624C24.3632 31.6646 24.2595 31.4853 24.1021 31.3623C23.9446 31.2392 23.7456 31.1819 23.5468 31.2023C23.348 31.2227 23.1649 31.3192 23.0357 31.4717C22.9065 31.6242 22.8414 31.8207 22.8539 32.0202C22.908 32.5616 22.9916 33.0953 23.0952 33.6212C23.1354 33.8224 23.2539 33.9995 23.4246 34.1133C23.5953 34.2272 23.8043 34.2686 24.0055 34.2284C24.2068 34.1882 24.3838 34.0697 24.4976 33.8989C24.6115 33.7282 24.6529 33.5193 24.6127 33.318ZM38.8625 14.8081L38.9043 14.8066C39.3853 14.7803 39.8308 14.7741 40.3924 14.7942H40.4078C40.8286 14.7942 41.1658 14.4554 41.1735 14.0347C41.1813 13.6139 40.8409 13.2628 40.4202 13.2473C39.8772 13.2288 39.3451 13.2319 38.8207 13.2628C38.6208 13.2753 38.4335 13.365 38.2983 13.5129C38.1631 13.6608 38.0906 13.8553 38.096 14.0556C38.1014 14.2559 38.1843 14.4463 38.3273 14.5866C38.4703 14.727 38.6621 14.8064 38.8625 14.8081ZM43.2943 15.184C43.7769 15.2954 44.2472 15.4284 44.7097 15.5847C44.9003 15.6364 45.1036 15.6134 45.2779 15.5204C45.4522 15.4273 45.5843 15.2712 45.6473 15.0839C45.7103 14.8967 45.6994 14.6924 45.6169 14.5129C45.5343 14.3334 45.3863 14.1922 45.2031 14.1182C44.6912 13.9463 44.1713 13.7987 43.6454 13.6758C43.4491 13.6389 43.2461 13.6792 43.0788 13.7884C42.9115 13.8976 42.7928 14.0671 42.7475 14.2617C42.7022 14.4563 42.7338 14.6609 42.8356 14.8327C42.9375 15.0045 43.1018 15.1304 43.2943 15.184ZM24.3621 25.0685C24.4567 25.1059 24.5578 25.1241 24.6595 25.1223C24.7613 25.1205 24.8616 25.0986 24.9549 25.058C25.0481 25.0173 25.1325 24.9586 25.203 24.8853C25.2735 24.812 25.3289 24.7255 25.366 24.6308C25.5454 24.1714 25.745 23.7228 25.9662 23.2865C26.0587 23.1034 26.0747 22.8909 26.0106 22.696C25.9464 22.501 25.8075 22.3396 25.6243 22.247C25.4412 22.1545 25.2287 22.1386 25.0338 22.2027C24.8388 22.2668 24.6773 22.4057 24.5848 22.5889C24.3435 23.0684 24.1223 23.5619 23.9243 24.0662C23.8494 24.2571 23.8535 24.47 23.9356 24.658C24.0177 24.846 24.1711 24.9937 24.3621 25.0685ZM54.9469 27.1909C55.0444 27.6657 55.1155 28.1515 55.1681 28.6418C55.1785 28.7428 55.2086 28.8407 55.2568 28.93C55.305 29.0193 55.3703 29.0983 55.4491 29.1623C55.5278 29.2264 55.6183 29.2743 55.7156 29.3034C55.8128 29.3325 55.9148 29.3421 56.0158 29.3317C56.1168 29.3214 56.2147 29.2912 56.304 29.243C56.3933 29.1948 56.4722 29.1295 56.5363 29.0508C56.6004 28.9721 56.6483 28.8815 56.6774 28.7843C56.7064 28.687 56.7161 28.585 56.7057 28.484C56.6515 27.9462 56.571 27.4114 56.4644 26.8815C56.4234 26.6802 56.3041 26.5036 56.1328 26.3903C55.9615 26.277 55.7522 26.2364 55.551 26.2774C55.3497 26.3184 55.173 26.4377 55.0597 26.609C54.9465 26.7803 54.9059 26.9896 54.9469 27.1909ZM23.5345 29.6225L23.601 29.6256C23.7947 29.6255 23.9812 29.5526 24.1236 29.4214C24.266 29.2901 24.3539 29.1102 24.3698 28.9172C24.411 28.4286 24.4761 27.9423 24.5647 27.46C24.6013 27.2582 24.5564 27.0501 24.4398 26.8814C24.3233 26.7126 24.1446 26.597 23.9429 26.5597C23.7412 26.5244 23.5338 26.5698 23.3653 26.6862C23.1969 26.8025 23.081 26.9805 23.0426 27.1816C22.9451 27.7091 22.8755 28.2443 22.8291 28.7872C22.8202 28.8885 22.8314 28.9905 22.8621 29.0873C22.8928 29.1842 22.9424 29.2741 23.0079 29.3517C23.0735 29.4294 23.1538 29.4933 23.2442 29.5397C23.3345 29.5862 23.4332 29.6144 23.5345 29.6225ZM26.9237 21.0993C27.0421 21.0994 27.159 21.0723 27.2652 21.02C27.3715 20.9677 27.4642 20.8916 27.5363 20.7976C27.8348 20.4094 28.1535 20.0366 28.4891 19.6777C28.6291 19.5278 28.704 19.3285 28.6973 19.1235C28.6907 18.9185 28.603 18.7245 28.4536 18.584C28.3035 18.4444 28.1043 18.3698 27.8994 18.3765C27.6945 18.3831 27.5006 18.4705 27.3599 18.6196C26.9918 19.0141 26.6391 19.4255 26.3096 19.854C26.2214 19.9686 26.1671 20.1056 26.1528 20.2494C26.1385 20.3933 26.1649 20.5383 26.2288 20.6679C26.2927 20.7976 26.3917 20.9067 26.5146 20.983C26.6374 21.0592 26.7791 21.0995 26.9237 21.0993ZM35.0464 39.9959C34.9448 40.1453 34.8533 40.3014 34.7726 40.463L34.2776 41.4546C34.1857 41.6382 34.1705 41.8507 34.2353 42.0455C34.3001 42.2403 34.4397 42.4014 34.6233 42.4933C34.8069 42.5852 35.0194 42.6004 35.2142 42.5356C35.409 42.4707 35.5701 42.3312 35.662 42.1476L36.1586 41.1529C36.2081 41.0524 36.2637 40.9565 36.3241 40.8668C36.4329 40.6973 36.4713 40.492 36.4311 40.2946C36.3909 40.0972 36.2753 39.9232 36.1089 39.8098C35.9424 39.6963 35.7382 39.6523 35.5398 39.687C35.3414 39.7218 35.1643 39.8326 35.0464 39.9959ZM52.0249 39.7066C51.7248 40.0949 51.4046 40.4692 51.0689 40.8281C50.9664 40.9384 50.8983 41.0762 50.8728 41.2246C50.8474 41.373 50.8657 41.5257 50.9256 41.6638C50.9855 41.802 51.0843 41.9197 51.2101 42.0026C51.3358 42.0855 51.4829 42.13 51.6335 42.1306C51.7394 42.1309 51.8442 42.1094 51.9413 42.0673C52.0385 42.0252 52.1259 41.9636 52.1981 41.8862C52.5663 41.4917 52.9174 41.0802 53.2484 40.6533C53.3106 40.573 53.3563 40.4812 53.383 40.3831C53.4097 40.2851 53.4168 40.1828 53.404 40.0821C53.3911 39.9813 53.3585 39.8841 53.3081 39.7959C53.2576 39.7077 53.1903 39.6303 53.11 39.5682C53.0296 39.506 52.9378 39.4603 52.8398 39.4336C52.7418 39.4069 52.6395 39.3998 52.5387 39.4127C52.438 39.4255 52.3407 39.4581 52.2526 39.5085C52.1644 39.559 52.087 39.6263 52.0249 39.7066ZM56.0251 30.8848C55.8213 30.8701 55.6199 30.9357 55.4639 31.0675C55.3078 31.1993 55.2094 31.3868 55.1898 31.5902C55.1485 32.0788 55.0835 32.5651 54.9949 33.0473C54.9706 33.2436 55.0222 33.4418 55.1393 33.6012C55.2564 33.7606 55.43 33.8693 55.6245 33.9049C55.8191 33.9404 56.0199 33.9003 56.1858 33.7926C56.3517 33.685 56.4702 33.5179 56.517 33.3258C56.6144 32.7983 56.684 32.2631 56.7304 31.7201C56.7476 31.5158 56.6829 31.3131 56.5507 31.1565C56.4184 30.9998 56.2293 30.9021 56.0251 30.8848ZM51.8532 20.5857C51.9153 20.669 51.9936 20.7389 52.0833 20.7912C52.1731 20.8436 52.2725 20.8773 52.3755 20.8904C52.4786 20.9035 52.5833 20.8957 52.6832 20.8674C52.7832 20.8392 52.8765 20.7911 52.9575 20.726C53.0385 20.6609 53.1055 20.5802 53.1546 20.4886C53.2037 20.3971 53.2339 20.2965 53.2433 20.1931C53.2527 20.0896 53.2411 19.9853 53.2093 19.8864C53.1775 19.7875 53.1261 19.696 53.0582 19.6174C52.7201 19.1979 52.3635 18.7937 51.9893 18.4062C51.8465 18.2596 51.6515 18.1755 51.4469 18.1724C51.2423 18.1693 51.0448 18.2474 50.8976 18.3897C50.7505 18.5319 50.6657 18.7266 50.6619 18.9312C50.658 19.1358 50.7354 19.3336 50.8771 19.4812C51.2189 19.8324 51.5453 20.2021 51.8532 20.5857ZM55.1959 35.4388C55.1014 35.4015 55.0004 35.3833 54.8988 35.3851C54.7972 35.3869 54.697 35.4088 54.6038 35.4495C54.5107 35.4902 54.4265 35.5488 54.3561 35.6221C54.2857 35.6954 54.2305 35.7819 54.1936 35.8766C54.0154 36.3341 53.8151 36.7827 53.5934 37.2208C53.5007 37.404 53.4845 37.6165 53.5485 37.8116C53.6124 38.0067 53.7513 38.1683 53.9345 38.2611C54.1177 38.3538 54.3302 38.3699 54.5253 38.306C54.7203 38.242 54.882 38.1032 54.9748 37.92C55.2161 37.4404 55.4373 36.947 55.6353 36.4427C55.7088 36.2512 55.704 36.0385 55.6217 35.8505C55.5395 35.6626 55.3865 35.5147 55.1959 35.4388ZM54.8092 24.8551C54.936 24.8548 55.0607 24.8235 55.1725 24.7637C55.2843 24.704 55.3796 24.6176 55.4502 24.5124C55.5208 24.4071 55.5644 24.2861 55.5773 24.16C55.5901 24.0339 55.5718 23.9066 55.5239 23.7893C55.3182 23.2894 55.089 22.7995 54.8371 22.3213C54.7323 22.1568 54.5695 22.0378 54.381 21.9879C54.1926 21.9379 53.9922 21.9607 53.8197 22.0517C53.6473 22.1427 53.5154 22.2953 53.4502 22.479C53.3851 22.6628 53.3915 22.8644 53.4681 23.0437C53.697 23.4768 53.9059 23.9208 54.0915 24.3755C54.2168 24.6741 54.5045 24.8551 54.8092 24.8551ZM35.6218 13.7485C35.0978 13.88 34.5805 14.0369 34.0718 14.2188C33.9761 14.2529 33.8881 14.3055 33.8128 14.3737C33.7375 14.4418 33.6763 14.5241 33.6328 14.6159C33.5892 14.7077 33.5642 14.8072 33.5591 14.9086C33.554 15.0101 33.569 15.1115 33.6031 15.2072C33.6372 15.3029 33.6899 15.3909 33.758 15.4662C33.8262 15.5416 33.9085 15.6028 34.0003 15.6463C34.0921 15.6898 34.1915 15.7148 34.293 15.7199C34.3944 15.725 34.4959 15.71 34.5916 15.6759C35.051 15.5135 35.5212 15.3696 35.9992 15.249C36.0978 15.2246 36.1905 15.1809 36.2721 15.1205C36.3537 15.0601 36.4225 14.9841 36.4745 14.897C36.5266 14.8098 36.5609 14.7132 36.5754 14.6127C36.5899 14.5123 36.5844 14.4099 36.5592 14.3116C36.5359 14.2123 36.493 14.1187 36.4329 14.0364C36.3728 13.954 36.2968 13.8845 36.2094 13.832C36.122 13.7795 36.025 13.7451 35.9241 13.7308C35.8231 13.7164 35.7204 13.7224 35.6218 13.7485ZM40.1974 38.8558C39.7888 38.6267 39.3416 38.4747 38.878 38.4072V30.2506H47.4183C47.5503 30.2513 47.6802 30.2181 47.7957 30.1541C47.9112 30.0902 48.0083 29.9976 48.0777 29.8853C48.1471 29.7731 48.1865 29.6448 48.1921 29.5129C48.1977 29.3811 48.1694 29.2499 48.1097 29.1322L46.7345 26.3849L48.1097 23.6377C48.1683 23.5199 48.1961 23.3891 48.1904 23.2576C48.1847 23.1261 48.1458 22.9982 48.0772 22.8859C48.0075 22.7739 47.9104 22.6816 47.7951 22.6174C47.6799 22.5533 47.5502 22.5195 47.4183 22.5193H38.878V21.7459C38.878 21.5407 38.7965 21.344 38.6514 21.199C38.5064 21.0539 38.3097 20.9724 38.1045 20.9724C37.8994 20.9724 37.7027 21.0539 37.5576 21.199C37.4126 21.344 37.3311 21.5407 37.3311 21.7459V39.1018C37.3311 39.3069 37.4126 39.5036 37.5576 39.6487C37.7027 39.7937 37.8994 39.8752 38.1045 39.8752C38.1432 39.8752 38.1772 39.8582 38.2144 39.8536C38.2468 39.8582 38.2747 39.8752 38.3072 39.8752C38.7001 39.8876 39.0822 39.9974 39.4116 40.1908C39.4991 40.2429 39.5959 40.2771 39.6967 40.2915C39.7974 40.3059 39.9 40.3002 39.9985 40.2748C40.097 40.2493 40.1895 40.2046 40.2707 40.1432C40.3518 40.0818 40.42 40.0049 40.4712 39.917C40.5231 39.8294 40.5572 39.7324 40.5716 39.6316C40.5859 39.5308 40.5802 39.4281 40.5547 39.3295C40.5293 39.231 40.4846 39.1384 40.4233 39.0571C40.362 38.9758 40.2852 38.9074 40.1974 38.8558ZM38.9104 24.0646H46.1668L45.1784 26.0384C45.125 26.1459 45.0972 26.2642 45.0972 26.3842C45.0972 26.5041 45.125 26.6225 45.1784 26.7299L46.1668 28.7037H38.9104V24.0646ZM42.9694 43.0216L42.278 41.6371C42.1863 41.4535 42.0254 41.3139 41.8308 41.2489C41.6361 41.1839 41.4236 41.1989 41.24 41.2906C41.0565 41.3823 40.9168 41.5432 40.8518 41.7378C40.7868 41.9325 40.8018 42.145 40.8935 42.3286L41.585 43.713C41.6833 43.8849 41.8436 44.0127 42.0331 44.07C42.2226 44.1274 42.4269 44.1101 42.604 44.0217C42.7812 43.9332 42.9177 43.7803 42.9857 43.5943C43.0536 43.4083 43.0478 43.2034 42.9694 43.0216ZM48.8615 42.7741C48.4655 43.0618 48.054 43.3309 47.6302 43.58C47.4537 43.685 47.3261 43.8555 47.275 44.0544C47.224 44.2532 47.2538 44.4642 47.3579 44.6411C47.4629 44.8176 47.6335 44.9453 47.8323 44.9963C48.0312 45.0473 48.2421 45.0175 48.4191 44.9134C48.8847 44.6365 49.3364 44.3426 49.7711 44.0255C49.8532 43.9658 49.9228 43.8904 49.9759 43.8038C50.0289 43.7172 50.0644 43.621 50.0803 43.5206C50.0962 43.4203 50.0921 43.3178 50.0684 43.2191C50.0447 43.1203 50.0017 43.0272 49.942 42.945C49.8823 42.8628 49.8069 42.7932 49.7203 42.7402C49.6337 42.6871 49.5375 42.6516 49.4371 42.6358C49.3368 42.6199 49.2343 42.6239 49.1356 42.6477C49.0368 42.6714 48.9437 42.7143 48.8615 42.7741ZM44.9696 44.8283C44.7487 44.9071 44.5259 44.9803 44.3013 45.048C44.1298 45.0986 43.9558 45.1405 43.78 45.1733L43.5681 45.2181C43.3677 45.2624 43.1931 45.3845 43.0827 45.5576C42.9723 45.7306 42.9352 45.9404 42.9795 46.1408C43.0238 46.3412 43.1459 46.5159 43.319 46.6262C43.492 46.7366 43.7018 46.7737 43.9022 46.7294L44.0971 46.6877C44.3199 46.6413 44.5395 46.5933 44.7514 46.5283C44.9959 46.4541 45.2387 46.3721 45.4816 46.2886C45.6642 46.2125 45.8108 46.0695 45.8914 45.8888C45.972 45.7081 45.9804 45.5034 45.9149 45.3167C45.8495 45.13 45.7151 44.9754 45.5393 44.8846C45.3635 44.7938 45.1597 44.7737 44.9696 44.8283Z" fill="#BE1687"/>
<path d="M61.6537 85.7632H14.8097C14.2296 85.7632 13.7006 85.4693 13.3959 84.9743C13.2465 84.7338 13.1615 84.459 13.1491 84.1761C13.1366 83.8933 13.1971 83.612 13.3247 83.3594L34.7721 40.463C35.4327 39.1435 36.7568 38.3252 38.2309 38.3252C39.7051 38.3252 41.0308 39.1435 41.6898 40.463L63.1387 83.3609C63.3986 83.8791 63.3708 84.4839 63.0676 84.9758C62.9193 85.2174 62.7114 85.4168 62.4638 85.5547C62.2161 85.6926 61.9372 85.7644 61.6537 85.7632ZM38.2325 39.8721C37.3353 39.8721 36.5588 40.3516 36.1566 41.1544L14.7092 84.0524L14.8097 84.2163H61.6537C61.6692 84.2163 61.7171 84.2163 61.7512 84.1622L40.3084 41.1544C40.1192 40.7661 39.8238 40.4394 39.4563 40.2124C39.0888 39.9854 38.6644 39.8674 38.2325 39.8721Z" fill="#661E78"/>
<path d="M32.2559 57.3487L32.1569 57.3471C31.7818 57.3317 31.4194 57.2075 31.1137 56.9897C30.808 56.7719 30.5723 56.4699 30.4352 56.1205L29.0755 52.4049C29.0049 52.2121 29.0138 51.9991 29.1003 51.8129C29.1867 51.6266 29.3436 51.4823 29.5364 51.4118C29.7293 51.3412 29.9422 51.3501 30.1285 51.4366C30.3147 51.523 30.459 51.6799 30.5295 51.8727L31.88 55.5667C31.9604 55.7662 32.1553 55.7972 32.2342 55.8018C32.3134 55.8066 32.3922 55.7881 32.461 55.7485C32.5297 55.7089 32.5853 55.65 32.6209 55.5791L34.9706 50.8162C35.1334 50.4699 35.3966 50.1806 35.726 49.9858C36.0553 49.7911 36.4357 49.6999 36.8176 49.7241C37.6096 49.7597 38.2747 50.2423 38.5578 50.9817L40.2021 55.2681C40.226 55.3501 40.2749 55.4225 40.3421 55.4753C40.4092 55.528 40.4912 55.5583 40.5765 55.562C40.6577 55.5669 40.7384 55.5476 40.8086 55.5066C40.8788 55.4656 40.9353 55.4047 40.9709 55.3316L43.2851 50.6213C43.6269 49.9283 44.3277 49.5076 45.1243 49.5478C45.9148 49.5834 46.5815 50.0644 46.8661 50.8039C46.9056 50.8992 46.9255 51.0015 46.9249 51.1047C46.9242 51.2079 46.9029 51.3099 46.8621 51.4048C46.8214 51.4996 46.7622 51.5853 46.6878 51.6569C46.6134 51.7285 46.5255 51.7844 46.4292 51.8215C46.3329 51.8585 46.2301 51.876 46.127 51.8727C46.0238 51.8694 45.9224 51.8455 45.8286 51.8025C45.7348 51.7594 45.6506 51.698 45.5809 51.6218C45.5112 51.5457 45.4575 51.4564 45.4229 51.3592C45.3954 51.2829 45.3456 51.2167 45.2799 51.1692C45.2142 51.1217 45.1357 51.0952 45.0547 51.0931C44.9789 51.0962 44.7732 51.104 44.6649 51.3221L44.3741 51.8789L42.36 56.0075C42.0089 56.7315 41.319 57.1368 40.4868 57.1074C40.0996 57.0887 39.7269 56.9542 39.4171 56.7211C39.1073 56.488 38.8748 56.1672 38.7496 55.8003L37.1115 51.534C37.0841 51.4581 37.0345 51.3923 36.9691 51.3451C36.9036 51.2979 36.8255 51.2715 36.7449 51.2695C36.6645 51.2648 36.5846 51.2841 36.5153 51.3248C36.4459 51.3656 36.3901 51.426 36.3551 51.4984L33.9992 56.2782C33.8363 56.6007 33.5871 56.8716 33.2792 57.0606C32.9714 57.2496 32.6171 57.3493 32.2559 57.3487ZM83.3012 85.7632H61.6542C61.4491 85.7632 61.2524 85.6818 61.1073 85.5367C60.9623 85.3917 60.8808 85.1949 60.8808 84.9898C60.8808 84.7847 60.9623 84.5879 61.1073 84.4429C61.2524 84.2978 61.4491 84.2164 61.6542 84.2164L61.7548 84.0524L54.4071 69.3571C54.3537 69.2497 54.3259 69.1313 54.3259 69.0113C54.3259 68.8914 54.3537 68.773 54.4071 68.6656L63.1825 51.1163C63.5014 50.4721 63.9946 49.9303 64.606 49.5524C65.2174 49.1745 65.9226 48.9757 66.6413 48.9785C68.1155 48.9785 69.4412 49.7968 70.0986 51.1163L85.5782 82.0755C85.9773 82.8721 85.934 83.7987 85.4668 84.5567C85.0012 85.3115 84.1906 85.7632 83.3012 85.7632ZM63.314 84.2164H83.3012C83.4723 84.2182 83.6409 84.1753 83.7904 84.092C83.9398 84.0087 84.065 83.8879 84.1535 83.7415C84.2453 83.5967 84.2975 83.4304 84.3051 83.2592C84.3127 83.088 84.2754 82.9177 84.1968 82.7654L68.7172 51.8078C68.5288 51.4192 68.2337 51.0923 67.8664 50.8652C67.499 50.6382 67.0747 50.5203 66.6429 50.5254C65.7441 50.5254 64.9692 51.005 64.567 51.8078L55.9633 69.0106L63.1392 83.3594C63.2753 83.6316 63.3326 83.9271 63.314 84.2164Z" fill="#661E78"/>
<path d="M62.076 62.9514L61.9987 62.9499C61.706 62.9376 61.4231 62.8405 61.1845 62.6706C60.9459 62.5006 60.7617 62.265 60.6545 61.9924L59.5933 59.0904C59.5661 59.0159 59.5538 58.9367 59.5572 58.8574C59.5606 58.7781 59.5795 58.7003 59.613 58.6283C59.6465 58.5563 59.6938 58.4917 59.7522 58.438C59.8107 58.3843 59.8792 58.3427 59.9537 58.3154C60.0283 58.2882 60.1075 58.2759 60.1868 58.2793C60.266 58.2827 60.3439 58.3017 60.4159 58.3351C60.4878 58.3686 60.5525 58.4159 60.6062 58.4744C60.6598 58.5328 60.7015 58.6013 60.7287 58.6759L61.7837 61.5592C61.8456 61.7155 61.9987 61.7402 62.059 61.7433C62.1209 61.7449 62.2756 61.7356 62.3607 61.5701L64.1953 57.8514C64.3225 57.5809 64.5282 57.355 64.7856 57.203C65.043 57.051 65.3402 56.9799 65.6385 56.999C66.2572 57.0269 66.777 57.4043 66.9966 57.9798L68.2805 61.3257C68.2998 61.3874 68.3371 61.442 68.3876 61.4825C68.4381 61.5229 68.4995 61.5474 68.564 61.5527C68.6284 61.558 68.693 61.544 68.7495 61.5123C68.8059 61.4807 68.8516 61.4329 68.8807 61.3752L70.6875 57.6982C70.8169 57.4318 71.0227 57.2098 71.2785 57.0605C71.5344 56.9113 71.8289 56.8414 72.1245 56.8598C72.4227 56.8708 72.7109 56.9698 72.9528 57.1444C73.1948 57.3189 73.3797 57.5611 73.4842 57.8405C73.534 57.9883 73.5248 58.1496 73.4586 58.2907C73.3923 58.4319 73.2741 58.542 73.1286 58.5981C72.9831 58.6541 72.8216 58.6519 72.6777 58.5917C72.5339 58.5316 72.4188 58.4182 72.3566 58.2752C72.3356 58.2153 72.2968 58.1633 72.2454 58.1263C72.1939 58.0892 72.1323 58.0688 72.0688 58.0679C72.0101 58.071 71.8492 58.0757 71.7641 58.2474L71.5383 58.6821L69.9666 61.9057C69.6928 62.4704 69.1545 62.7875 68.5048 62.7643C68.2024 62.7497 67.9114 62.6446 67.6694 62.4626C67.4275 62.2805 67.2459 62.0299 67.1482 61.7433L65.869 58.4129C65.8479 58.3536 65.8092 58.3021 65.758 58.2653C65.7069 58.2285 65.6458 58.2083 65.5828 58.2072C65.5199 58.2034 65.4574 58.2185 65.4031 58.2505C65.3488 58.2824 65.3053 58.3298 65.2781 58.3866L63.4388 62.1192C63.3106 62.3702 63.1154 62.5808 62.8749 62.7277C62.6344 62.8746 62.3579 62.952 62.076 62.9514Z" fill="#661E78"/>
</svg>
