<svg width="63" height="63" viewBox="0 0 63 63" fill="none" xmlns="http://www.w3.org/2000/svg">
<path d="M31.5 63C48.8964 63 63 48.8964 63 31.5C63 14.1035 48.8964 0 31.5 0C14.1035 0 0 14.1035 0 31.5C0 48.8964 14.1035 63 31.5 63ZM31.5 2.98224C47.2189 2.98224 60.0178 15.7811 60.0178 31.5C60.0178 47.2189 47.2189 60.0178 31.5 60.0178C15.7811 60.0178 2.98224 47.2189 2.98224 31.5C2.98224 15.7811 15.7811 2.98224 31.5 2.98224Z" fill="#FEFEFE"/>
<path d="M16.5291 32.9873H42.8723L33.4285 42.4311C32.8694 42.9903 32.8694 43.9843 33.4285 44.5435C33.9877 45.1027 34.9818 45.1027 35.541 44.5435L47.5942 32.5524C47.7185 32.4281 47.8427 32.2417 47.9049 32.0553C48.0291 31.6826 48.0291 31.2476 47.9049 30.937C47.8427 30.7506 47.7185 30.5642 47.5942 30.44L35.541 18.4488C35.2303 18.1382 34.8575 18.0139 34.4847 18.0139C34.112 18.0139 33.7392 18.1382 33.4285 18.4488C32.8694 19.008 32.8694 20.0021 33.4285 20.5613L42.8723 30.005L16.467 30.005C15.6593 30.005 14.9759 30.6885 14.9759 31.4962C14.9759 32.3039 15.6593 32.9873 16.5291 32.9873Z" fill="#FEFEFE"/>
</svg>
