<svg width="204" height="176" viewBox="0 0 204 176" fill="none" xmlns="http://www.w3.org/2000/svg">
<path d="M79.8145 158.613H153.88M87.2084 166.029H106.724M116.873 166.029H143.052M102.004 173.446H120.57" stroke="#661E78" stroke-width="4" stroke-linecap="round" stroke-linejoin="round"/>
<path d="M2 151.613H24.0409" stroke="#BE1687" stroke-width="4" stroke-linecap="round" stroke-linejoin="round"/>
<path fill-rule="evenodd" clip-rule="evenodd" d="M64.3364 58.2803C64.1272 58.2827 63.9206 58.3266 63.7284 58.4093C63.5362 58.4921 63.3624 58.612 63.2169 58.7624C63.0714 58.9127 62.9571 59.0904 62.8807 59.2852C62.8042 59.4799 62.7672 59.6878 62.7716 59.8969C62.7716 60.9982 62.3007 61.4989 61.2068 61.4989C59.0561 61.4618 59.0561 64.7139 61.2068 64.6805C62.2599 64.6805 62.7716 64.977 62.7716 66.2155C62.7419 68.3662 65.9828 68.3662 65.9531 66.2155C65.9531 65.0882 66.4797 64.6805 67.5254 64.6805C69.6761 64.7176 69.6761 61.4692 67.5254 61.4989C66.1052 61.4989 65.9531 60.6905 65.9531 59.8969C65.9561 59.6838 65.9164 59.4723 65.8362 59.2748C65.756 59.0773 65.637 58.8979 65.4863 58.7472C65.3356 58.5965 65.1561 58.4775 64.9586 58.3973C64.7611 58.3171 64.5495 58.2773 64.3364 58.2803Z" fill="#661E78"/>
<path fill-rule="evenodd" clip-rule="evenodd" d="M54.6999 87.4409C54.2178 87.4409 53.8359 87.8488 53.8433 88.3308C53.8433 88.9352 53.5837 89.2096 52.983 89.2096C51.8038 89.2096 51.8038 90.9709 52.983 90.9523C53.5615 90.9523 53.8433 91.1156 53.8433 91.7979C53.8248 92.9771 55.6046 92.9771 55.5861 91.7979C55.5861 91.1786 55.8827 90.9562 56.4538 90.9562C57.633 90.9562 57.633 89.1911 56.4538 89.2096C55.6751 89.2096 55.5898 88.7645 55.5898 88.327C55.5913 88.2098 55.5693 88.0937 55.5251 87.9852C55.4808 87.8768 55.4153 87.7784 55.3323 87.6957C55.2493 87.6131 55.1505 87.5478 55.0419 87.504C54.9333 87.4603 54.817 87.4389 54.6999 87.4409ZM63.0913 13.3158C62.9384 13.3167 62.7873 13.3483 62.6467 13.4084C62.5062 13.4684 62.379 13.5559 62.2726 13.6657C62.1663 13.7755 62.0829 13.9053 62.0274 14.0477C61.9718 14.1901 61.9452 14.3421 61.9492 14.4949C61.9492 15.2996 61.6043 15.663 60.8071 15.663C59.2423 15.6259 59.2423 18.0028 60.8071 17.9806C61.5747 17.9806 61.9492 18.1919 61.9492 19.1004C61.9269 20.6652 64.289 20.6652 64.2668 19.1004C64.2668 18.2772 64.6524 17.9806 65.4126 17.9806C66.9811 18.0177 66.9811 15.6408 65.4126 15.663C64.378 15.663 64.2668 15.0697 64.2668 14.4949C64.2688 14.34 64.2397 14.1865 64.1813 14.043C64.123 13.8995 64.0365 13.7689 63.9269 13.6594C63.8174 13.5498 63.687 13.4633 63.5435 13.405C63.4 13.3466 63.2462 13.3177 63.0913 13.3196V13.3158Z" fill="#BE1687"/>
<path fill-rule="evenodd" clip-rule="evenodd" d="M136.274 11.0574C136.159 11.0589 136.045 11.0831 135.939 11.1287C135.834 11.1743 135.738 11.2404 135.658 11.3231C135.578 11.4059 135.515 11.5037 135.473 11.6108C135.431 11.7179 135.411 11.8325 135.413 11.9476C135.413 12.552 135.154 12.8264 134.553 12.8264C133.37 12.8264 133.37 14.5876 134.553 14.5691C135.132 14.5691 135.413 14.7323 135.413 15.4146C135.395 16.5938 137.175 16.5938 137.156 15.4146C137.156 14.7954 137.449 14.5729 138.02 14.5729C139.203 14.5729 139.203 12.8079 138.02 12.8264C137.242 12.8264 137.16 12.3813 137.16 11.9437C137.161 11.8266 137.139 11.7104 137.095 11.602C137.051 11.4935 136.985 11.3952 136.902 11.3125C136.819 11.2299 136.721 11.1646 136.612 11.1208C136.503 11.077 136.391 11.0554 136.274 11.0574Z" fill="#661E78"/>
<path fill-rule="evenodd" clip-rule="evenodd" d="M170.896 33.9884C170.743 33.9894 170.592 34.0207 170.452 34.0808C170.311 34.1408 170.184 34.2283 170.078 34.3381C169.971 34.4479 169.888 34.5779 169.832 34.7204C169.777 34.8628 169.75 35.0148 169.754 35.1676C169.754 35.9685 169.413 36.3356 168.616 36.3356C167.047 36.2986 167.047 38.6717 168.616 38.6532C169.383 38.6532 169.754 38.8647 169.754 39.7694C169.732 41.338 172.098 41.338 172.076 39.7694C172.076 38.9499 172.457 38.6532 173.218 38.6532C174.786 38.6903 174.786 36.3134 173.218 36.3356C172.187 36.3356 172.076 35.7423 172.076 35.1676C172.078 35.012 172.049 34.8575 171.991 34.7133C171.932 34.5692 171.846 34.4381 171.736 34.3281C171.626 34.2181 171.495 34.1314 171.351 34.0731C171.206 34.0147 171.052 33.9859 170.896 33.9884Z" fill="#BE1687"/>
<path fill-rule="evenodd" clip-rule="evenodd" d="M161.196 63.5606C160.714 63.5606 160.332 63.9685 160.34 64.4505C160.34 65.0512 160.08 65.3293 159.479 65.3293C158.3 65.3293 158.3 67.0906 159.479 67.072C160.058 67.072 160.34 67.2353 160.34 67.9176C160.321 69.0968 162.101 69.0968 162.082 67.9176C162.082 67.2983 162.379 67.0759 162.95 67.0759C164.129 67.0759 164.129 65.3108 162.95 65.3293C162.171 65.3293 162.086 64.8842 162.086 64.4467C162.088 64.3296 162.066 64.2134 162.021 64.1049C161.977 63.9965 161.912 63.8981 161.829 63.8155C161.746 63.7328 161.647 63.6675 161.538 63.6238C161.43 63.58 161.313 63.5586 161.196 63.5606ZM159.961 92.6209C159.752 92.6233 159.546 92.6672 159.353 92.7499C159.161 92.8326 158.987 92.9526 158.842 93.103C158.696 93.2533 158.582 93.431 158.506 93.6258C158.429 93.8205 158.392 94.0284 158.397 94.2375C158.397 95.3388 157.926 95.8395 156.832 95.8395C154.681 95.8024 154.681 99.0508 156.832 99.0211C157.885 99.0211 158.397 99.3141 158.397 100.556C158.367 102.707 161.608 102.707 161.578 100.556C161.578 99.4253 162.105 99.0211 163.15 99.0211C165.301 99.0582 165.301 95.8098 163.15 95.8395C161.73 95.8395 161.578 95.0274 161.578 94.2375C161.581 94.0244 161.541 93.8129 161.461 93.6154C161.381 93.4179 161.262 93.2385 161.111 93.0878C160.961 92.9371 160.781 92.8181 160.584 92.7379C160.386 92.6577 160.175 92.6179 159.961 92.6209Z" fill="#661E78"/>
<path fill-rule="evenodd" clip-rule="evenodd" d="M71.4784 33.6325C71.3258 33.6339 71.1751 33.6657 71.0349 33.726C70.8948 33.7862 70.7681 33.8738 70.6621 33.9835C70.5561 34.0933 70.4731 34.2232 70.4178 34.3653C70.3625 34.5075 70.336 34.6591 70.34 34.8116C70.34 35.6126 69.9951 35.9797 69.1979 35.9797C67.6294 35.9426 67.6294 38.3158 69.1979 38.2973C69.9655 38.2973 70.34 38.5087 70.34 39.4135C70.3177 40.982 72.6761 40.982 72.6575 39.4135C72.6575 38.5903 73.0395 38.2973 73.8033 38.2973C75.3682 38.3343 75.3682 35.9575 73.8033 35.9797C72.7651 35.9797 72.6538 35.3864 72.6538 34.8116C72.6563 34.6564 72.6276 34.5023 72.5695 34.3583C72.5114 34.2144 72.4249 34.0837 72.3153 33.9738C72.2057 33.8638 72.0752 33.7769 71.9314 33.7183C71.7877 33.6597 71.6336 33.6305 71.4784 33.6325ZM99.9343 0C99.8165 0.0019318 99.7002 0.0271176 99.592 0.0740081C99.4839 0.120899 99.386 0.188692 99.3041 0.2734C99.2221 0.358108 99.1577 0.457996 99.1144 0.567622C99.0711 0.677247 99.0498 0.794467 99.0518 0.912314C99.0518 1.53527 98.7848 1.81716 98.1693 1.81716C96.9567 1.79862 96.9567 3.6229 98.1693 3.60806C98.7626 3.60806 99.0518 3.77134 99.0518 4.47217C99.037 5.68101 100.861 5.68101 100.843 4.47217C100.843 3.83438 101.139 3.60806 101.729 3.60806C102.938 3.62661 102.938 1.79862 101.729 1.81716C100.928 1.81716 100.839 1.35729 100.839 0.912314C100.841 0.792911 100.818 0.674424 100.773 0.563774C100.728 0.453124 100.662 0.352578 100.578 0.267968C100.493 0.183359 100.393 0.116415 100.283 0.0710659C100.172 0.0257166 100.054 0.00285141 99.9343 0.00384752V0Z" fill="#BE1687"/>
<path d="M86.4147 89.2799C78.8057 96.4106 74.0186 106.782 74.0186 118.337C74.0186 123.398 74.9827 128.408 76.8145 133.087C82.5249 118.485 96.0632 108.948 111.096 108.94C126.143 108.94 139.685 118.507 145.381 133.121C147.224 128.426 148.173 123.409 148.177 118.337C148.177 106.623 143.256 96.1214 135.462 88.9833" stroke="#BE1687" stroke-width="4" stroke-miterlimit="100" stroke-linejoin="round"/>
<path d="M91.6689 103.793C93.8827 102.826 96.1558 102.028 98.4548 101.405M108.634 99.7998C116.013 99.4327 123.462 100.764 130.378 103.797M103.194 100.312C102.382 100.419 104.002 100.163 103.194 100.312Z" stroke="#BE1687" stroke-width="4" stroke-miterlimit="100" stroke-linecap="round" stroke-linejoin="round"/>
<path d="M85.1426 74.0396C85.1834 87.3109 89.0064 100.66 96.0852 112.215C100.869 110.257 105.915 108.951 111.096 108.94C116.309 108.94 121.467 109.956 126.273 111.922C133.329 100.356 137.045 87.3109 137.052 74.0396C137.015 52.9109 128.98 32.7128 112.405 18.1548C99.6857 29.3644 90.4081 43.9002 86.7964 59.6225M85.6209 65.867C85.4986 66.4862 85.3873 67.1055 85.2835 67.7284" stroke="#BE1687" stroke-width="4" stroke-miterlimit="100" stroke-linecap="round" stroke-linejoin="round"/>
<path d="M44.0498 117.71C47.8601 116.434 51.9451 116.214 55.8706 117.073C59.7961 117.932 63.4154 119.839 66.3439 122.591C69.2724 125.343 71.4007 128.836 72.5027 132.701C73.6046 136.565 73.639 140.656 72.6021 144.538C75.0013 138.98 80.5523 134.838 86.4816 136.054C87.3604 139.636 88.7361 141.739 90.2638 143.366C88.2691 141.37 87.068 138.716 86.8842 135.9C86.7004 133.084 87.5463 130.297 89.2644 128.058C90.9826 125.819 93.4559 124.281 96.2238 123.73C98.9917 123.179 101.866 123.653 104.31 125.063L104.347 131.226V109.923C108.129 108.499 112.053 108.725 116.054 109.923V137.83L116.091 124.659C120.652 122.026 126.904 122.864 130.626 126.587C131.707 127.668 132.564 128.951 133.149 130.362C133.734 131.774 134.035 133.287 134.035 134.816C134.035 136.344 133.734 137.857 133.149 139.269C132.564 140.68 131.707 141.963 130.626 143.044C132.744 141.101 133.111 138.516 134.535 135.939C140.468 134.719 147.365 138.294 149.768 143.848C148.951 140.789 149.336 137.533 150.843 134.749M155.545 129.906C158.393 128.263 161.776 127.818 164.952 128.669C168.128 129.52 170.835 131.598 172.48 134.445C175.906 140.378 173.874 148.165 167.945 151.587H31.9688C27.5228 144.03 28.0493 134.148 32.5695 126.847M36.526 122.193C36.9895 121.663 37.479 121.151 37.9944 120.665" stroke="#BE1687" stroke-width="4" stroke-linecap="round" stroke-linejoin="round"/>
<path d="M125.065 60.1307C125.07 61.8984 124.727 63.6497 124.054 65.2844C123.381 66.919 122.392 68.4049 121.144 69.6567C119.896 70.9085 118.413 71.9017 116.781 72.5794C115.148 73.2571 113.398 73.6059 111.63 73.6059C108.052 73.6079 104.619 72.1901 102.085 69.6638C99.5512 67.1374 98.1231 63.7089 98.1143 60.1307C98.1211 56.5509 99.5483 53.1201 102.082 50.5915C104.617 48.063 108.05 46.6434 111.63 46.6443C115.969 46.6443 119.807 48.6875 122.258 51.8654" stroke="#BE1687" stroke-width="4" stroke-miterlimit="34.178" stroke-linecap="round" stroke-linejoin="round"/>
<path d="M180.315 151.613H202" stroke="#BE1687" stroke-width="4" stroke-linecap="round" stroke-linejoin="round"/>
</svg>
