<svg width="29" height="33" viewBox="0 0 29 33" fill="none" xmlns="http://www.w3.org/2000/svg">
<path d="M25.4663 19.7149C25.232 20.5698 24.8959 21.3934 24.4653 22.1682L25.7018 25.0598L23.085 27.6766L20.1476 26.486C19.3734 26.9211 18.5498 27.2615 17.6943 27.5L16.5233 30.4112H13.998V24.5233C16.0801 24.5233 18.0769 23.6962 19.5492 22.224C21.0214 20.7518 21.8485 18.755 21.8485 16.6729C21.8485 14.5908 21.0214 12.594 19.5492 11.1218C18.0769 9.64952 16.0801 8.82242 13.998 8.82242V2.93457H16.5233L17.6943 5.85887C18.5492 6.09314 19.3728 6.42919 20.1476 6.8598L23.0392 5.62335L25.656 8.27289L24.4653 11.1776C24.9005 11.9517 25.2409 12.7754 25.4794 13.6308L28.3906 14.8019V18.5439L25.4663 19.7149Z" fill="#FC6459"/>
<path d="M9.74541 26.4852C9.5719 26.4852 9.4055 26.4163 9.28282 26.2936C9.16013 26.1709 9.0912 26.0045 9.0912 25.831C9.0912 25.6575 9.16013 25.4911 9.28282 25.3684C9.4055 25.2457 9.5719 25.1768 9.74541 25.1768C10.0924 25.1768 10.4252 25.039 10.6706 24.7936C10.916 24.5482 11.0538 24.2154 11.0538 23.8684C11.0538 23.6949 11.1227 23.5285 11.2454 23.4058C11.3681 23.2831 11.5345 23.2142 11.708 23.2142C13.0753 23.2142 12.2379 26.4852 9.74541 26.4852ZM4.83887 17.3263C4.83887 17.1528 4.90779 16.9864 5.03048 16.8637C5.15317 16.741 5.31957 16.6721 5.49307 16.6721C5.66658 16.6721 5.83298 16.741 5.95567 16.8637C6.07835 16.9864 6.14728 17.1528 6.14728 17.3263C6.14728 17.6733 6.28513 18.0061 6.5305 18.2515C6.77588 18.4969 7.10868 18.6347 7.45569 18.6347C7.6292 18.6347 7.7956 18.7037 7.91828 18.8264C8.04097 18.949 8.1099 19.1154 8.1099 19.2889C8.1099 20.6562 4.83887 19.8189 4.83887 17.3263ZM6.80148 14.7095C5.43419 14.7095 6.27158 11.4385 8.7641 11.4385C8.93761 11.4385 9.10401 11.5074 9.22669 11.6301C9.34938 11.7528 9.41831 11.9192 9.41831 12.0927C9.41831 12.2662 9.34938 12.4326 9.22669 12.5553C9.10401 12.678 8.93761 12.7469 8.7641 12.7469C8.41709 12.7469 8.08429 12.8847 7.83892 13.1301C7.59354 13.3755 7.45569 13.7083 7.45569 14.0553C7.45569 14.2288 7.38677 14.3952 7.26408 14.5179C7.14139 14.6406 6.97499 14.7095 6.80148 14.7095ZM14.652 16.6721C14.4784 16.6721 14.312 16.6032 14.1894 16.4805C14.0667 16.3578 13.9977 16.1914 13.9977 16.0179C13.9972 15.7532 13.9164 15.4949 13.766 15.2771C13.6156 15.0593 13.4026 14.8922 13.1553 14.798C12.9079 14.7037 12.6378 14.6867 12.3806 14.7492C12.1234 14.8116 11.8911 14.9506 11.7146 15.1478C11.657 15.2127 11.5872 15.2656 11.5092 15.3035C11.4312 15.3414 11.3465 15.3635 11.26 15.3687C11.1734 15.3739 11.0867 15.3619 11.0047 15.3336C10.9228 15.3052 10.8472 15.261 10.7823 15.2034C10.7175 15.1459 10.6646 15.0761 10.6267 14.9981C10.5888 14.9201 10.5666 14.8354 10.5614 14.7488C10.5563 14.6623 10.5682 14.5755 10.5966 14.4936C10.6249 14.4116 10.6692 14.3361 10.7267 14.2712C11.0792 13.8715 11.5453 13.589 12.0627 13.4613C12.5801 13.3337 13.1241 13.3671 13.622 13.557C14.1199 13.7469 14.5479 14.0843 14.8489 14.5241C15.1499 14.9639 15.3094 15.485 15.3062 16.0179C15.3062 16.1914 15.2372 16.3578 15.1145 16.4805C14.9919 16.6032 14.8255 16.6721 14.652 16.6721ZM14.652 22.56C14.4784 22.56 14.312 22.4911 14.1894 22.3684C14.0667 22.2457 13.9977 22.0793 13.9977 21.9058C13.9977 21.3853 13.791 20.8861 13.4229 20.518C13.0548 20.1499 12.5556 19.9432 12.0351 19.9432C11.5146 19.9432 11.0154 20.1499 10.6474 20.518C10.2793 20.8861 10.0725 21.3853 10.0725 21.9058C10.0725 22.0793 10.0036 22.2457 9.8809 22.3684C9.75821 22.4911 9.59181 22.56 9.41831 22.56C9.2448 22.56 9.0784 22.4911 8.95571 22.3684C8.83303 22.2457 8.7641 22.0793 8.7641 21.9058C8.7641 21.0382 9.10873 20.2062 9.72216 19.5928C10.3356 18.9794 11.1676 18.6347 12.0351 18.6347C12.9027 18.6347 13.7347 18.9794 14.3481 19.5928C14.9615 20.2062 15.3062 21.0382 15.3062 21.9058C15.3062 22.0793 15.2372 22.2457 15.1145 22.3684C14.9919 22.4911 14.8255 22.56 14.652 22.56Z" fill="#BFBFBF"/>
<path d="M15.1429 2.08324C14.7603 1.64827 14.269 1.32272 13.7194 1.13987C13.1697 0.957023 12.5813 0.923435 12.0144 1.04254C11.4474 1.16165 10.9223 1.42918 10.4927 1.81778C10.063 2.20638 9.74433 2.7021 9.5691 3.25427C8.55738 3.62762 7.6857 4.30438 7.07326 5.19201C6.46082 6.07964 6.13753 7.13478 6.14761 8.21314C5.4386 8.31682 4.76382 8.58542 4.17752 8.99736C3.59123 9.40929 3.10977 9.95306 2.77188 10.5849C2.43399 11.2168 2.24909 11.9192 2.23205 12.6355C2.21502 13.3518 2.36631 14.0622 2.67378 14.7094C2.04846 15.2702 1.56732 15.9734 1.27101 16.7593C0.974705 17.5453 0.871933 18.3911 0.97138 19.2252C1.07083 20.0592 1.36957 20.8571 1.84237 21.5514C2.31517 22.2457 2.94814 22.816 3.68779 23.2141C3.49418 23.9535 3.46489 24.7264 3.60198 25.4784C3.73907 26.2304 4.03922 26.9432 4.48132 27.5668C4.92342 28.1903 5.49675 28.7095 6.16098 29.0877C6.82522 29.466 7.56425 29.6941 8.32611 29.7561C8.56196 30.4277 8.97601 31.0226 9.52392 31.477C10.0718 31.9313 10.733 32.2282 11.4366 32.3357C12.1403 32.4432 12.8599 32.3574 13.5186 32.0874C14.1772 31.8174 14.75 31.3734 15.1756 30.8029C15.3719 30.5412 15.3065 32.3141 15.3065 2.51501C15.3062 2.35599 15.2481 2.2025 15.1429 2.08324ZM13.9981 30.1748C13.7177 30.4915 13.3648 30.7355 12.9695 30.8859C12.5742 31.0363 12.1484 31.0887 11.7284 31.0385C11.3085 30.9883 10.907 30.8371 10.5583 30.5979C10.2095 30.3586 9.92399 30.0383 9.72611 29.6645C10.0531 29.606 10.3732 29.5139 10.6812 29.3898C10.7611 29.3571 10.8338 29.3091 10.8952 29.2483C10.9565 29.1876 11.0052 29.1154 11.0386 29.0358C11.0721 28.9562 11.0895 28.8708 11.0899 28.7845C11.0903 28.6982 11.0737 28.6127 11.0411 28.5328C11.0084 28.4529 10.9604 28.3802 10.8996 28.3189C10.8389 28.2575 10.7667 28.2088 10.6871 28.1754C10.6075 28.142 10.5221 28.1245 10.4358 28.1241C10.3495 28.1237 10.2639 28.1403 10.1841 28.173C9.5275 28.421 8.81644 28.4885 8.12495 28.3684C7.43345 28.2483 6.7868 27.945 6.25236 27.49C5.71792 27.0351 5.31524 26.4452 5.08625 25.7817C4.85727 25.1183 4.81036 24.4056 4.95041 23.7178C5.59203 23.8777 6.25866 23.911 6.91303 23.8159C7.08653 23.7899 7.24259 23.696 7.34688 23.5549C7.45116 23.4139 7.49513 23.2371 7.4691 23.0636C7.44307 22.8901 7.34919 22.734 7.2081 22.6298C7.06701 22.5255 6.89027 22.4815 6.71676 22.5075C6.16005 22.5891 5.5923 22.5501 5.05201 22.393C4.51171 22.236 4.01149 21.9646 3.58525 21.5973C3.15901 21.23 2.81672 20.7754 2.58158 20.2642C2.34643 19.753 2.22393 19.1973 2.22237 18.6346C2.22331 18.0058 2.37534 17.3863 2.66565 16.8284C2.95597 16.2706 3.37607 15.7906 3.8906 15.429C4.03007 15.3312 4.12587 15.1828 4.15763 15.0154C4.1894 14.8481 4.15462 14.6749 4.06069 14.5328C3.6853 13.9597 3.49931 13.2832 3.52896 12.5988C3.55861 11.9144 3.8024 11.2566 4.22593 10.7181C4.64947 10.1796 5.23137 9.78776 5.88956 9.59772C6.54774 9.40769 7.24897 9.4291 7.89433 9.65894C8.05291 9.69958 8.22095 9.6793 8.3653 9.60209C8.50965 9.52489 8.61981 9.39638 8.67404 9.24192C8.72826 9.08746 8.72261 8.91829 8.6582 8.7678C8.59378 8.6173 8.47529 8.49643 8.32611 8.42903C8.04388 8.33009 7.75236 8.25995 7.45602 8.21968C7.44396 7.35866 7.71537 6.51756 8.22843 5.82598C8.7415 5.13441 9.46774 4.63074 10.2953 4.39258C10.4125 4.35926 10.5182 4.29382 10.6003 4.20366C10.6823 4.1135 10.7376 4.00219 10.7598 3.8823C10.8241 3.5403 10.9782 3.22155 11.2063 2.95872C11.4344 2.69589 11.7282 2.49844 12.0578 2.3866C12.3873 2.27475 12.7407 2.25254 13.0816 2.32224C13.4226 2.39194 13.7389 2.55104 13.9981 2.78324V30.1748Z" fill="#424242"/>
</svg>
