<svg width="35" height="35" viewBox="0 0 35 35" fill="none" xmlns="http://www.w3.org/2000/svg">
<path d="M17.25 0C13.3704 0 9.67232 1.29512 6.64393 3.66602L6.65257 2.25219C6.65485 1.76795 6.26541 1.37279 5.77545 1.36993C5.29349 1.36993 4.90061 1.75939 4.89833 2.24192L4.87892 5.54997C4.87664 6.03421 5.26608 6.42937 5.75033 6.43222C5.75033 6.43222 9.0578 6.45221 9.06352 6.45221C9.54548 6.45221 9.93722 6.06276 9.94064 5.58022C9.94407 5.09598 9.55348 4.70082 9.06923 4.69797L8.21067 4.69275C10.8388 2.7949 13.9702 1.75424 17.25 1.75424C25.7939 1.75424 32.7458 8.70555 32.7458 17.2501C32.7458 19.9751 32.0229 22.6573 30.6546 25.0065C30.4114 25.4251 30.553 25.9624 30.9721 26.2057C31.3766 26.4405 31.9274 26.3072 32.1713 25.8893C33.6949 23.2723 34.5 20.2851 34.5 17.2501C34.5 7.7382 26.7613 0 17.25 0Z" fill="url(#paint0_linear_73_3714)"/>
<path d="M28.7497 28.0674L25.4422 28.0474H25.4365C24.9546 28.0474 24.5628 28.4369 24.5594 28.9194C24.556 29.4037 24.9466 29.7988 25.4308 29.8017L26.2894 29.8069C23.6612 31.7048 20.5298 32.7454 17.2501 32.7454C8.70612 32.7454 1.75424 25.7941 1.75424 17.2496C1.75424 14.5246 2.47718 11.8424 3.84541 9.49313C4.08867 9.07456 3.94705 8.53721 3.52791 8.29394C3.11104 8.04897 2.57312 8.19286 2.32872 8.6103C0.805175 11.2274 0 14.2145 0 17.2496C0 26.7615 7.73877 34.4997 17.2501 34.4997C21.1296 34.4997 24.8277 33.2045 27.8561 30.8336L27.8475 32.2475C27.8452 32.7317 28.2346 33.1269 28.7189 33.1297H28.7246C29.2065 33.1297 29.5994 32.7403 29.6017 32.2577L29.6211 28.9497C29.6234 28.4654 29.234 28.0703 28.7497 28.0674Z" fill="url(#paint1_linear_73_3714)"/>
<path d="M11.4025 14.619H16.0805C16.5647 14.619 16.9576 14.2261 16.9576 13.7419C16.9576 13.2576 16.5647 12.8647 16.0805 12.8647H11.4025C10.9183 12.8647 10.5254 13.2576 10.5254 13.7419C10.5254 14.2261 10.9183 14.619 11.4025 14.619Z" fill="url(#paint2_linear_73_3714)"/>
<path d="M23.0978 14.619C23.5822 14.619 23.9749 14.2263 23.9749 13.7419C23.9749 13.2574 23.5822 12.8647 23.0978 12.8647C22.6134 12.8647 22.2207 13.2574 22.2207 13.7419C22.2207 14.2263 22.6134 14.619 23.0978 14.619Z" fill="url(#paint3_linear_73_3714)"/>
<path d="M19.589 14.619C20.0735 14.619 20.4662 14.2263 20.4662 13.7419C20.4662 13.2574 20.0735 12.8647 19.589 12.8647C19.1046 12.8647 18.7119 13.2574 18.7119 13.7419C18.7119 14.2263 19.1046 14.619 19.589 14.619Z" fill="url(#paint4_linear_73_3714)"/>
<path d="M7.0166 23.097C7.0166 24.2254 7.93484 25.1437 9.06322 25.1437H25.4362C26.5645 25.1437 27.4828 24.2254 27.4828 23.097V18.4191C27.4828 17.9838 27.3439 17.5816 27.1112 17.2496C27.3439 16.9175 27.4828 16.5153 27.4828 16.0801V11.4021C27.4828 10.2737 26.5645 9.35547 25.4362 9.35547H9.06322C7.93484 9.35547 7.0166 10.2737 7.0166 11.4021V16.0801C7.0166 16.5153 7.1555 16.9175 7.38814 17.2496C7.1555 17.5816 7.0166 17.9838 7.0166 18.4191V23.097ZM25.7285 23.097C25.7285 23.2581 25.5972 23.3894 25.4362 23.3894H9.06322C8.90218 23.3894 8.77084 23.2581 8.77084 23.097V18.4191C8.77084 18.258 8.90218 18.1267 9.06322 18.1267H25.4362C25.5972 18.1267 25.7285 18.258 25.7285 18.4191V23.097ZM8.77084 11.4021C8.77084 11.241 8.90218 11.1097 9.06322 11.1097H25.4362C25.5972 11.1097 25.7285 11.241 25.7285 11.4021V16.0801C25.7285 16.2411 25.5972 16.3724 25.4362 16.3724H9.06322C8.90218 16.3724 8.77084 16.2411 8.77084 16.0801V11.4021Z" fill="url(#paint5_linear_73_3714)"/>
<path d="M16.0805 19.8813H11.4025C10.9183 19.8813 10.5254 20.2742 10.5254 20.7585C10.5254 21.2427 10.9183 21.6356 11.4025 21.6356H16.0805C16.5647 21.6356 16.9576 21.2427 16.9576 20.7585C16.9576 20.2742 16.5647 19.8813 16.0805 19.8813Z" fill="url(#paint6_linear_73_3714)"/>
<path d="M23.0978 21.6356C23.5822 21.6356 23.9749 21.2429 23.9749 20.7585C23.9749 20.274 23.5822 19.8813 23.0978 19.8813C22.6134 19.8813 22.2207 20.274 22.2207 20.7585C22.2207 21.2429 22.6134 21.6356 23.0978 21.6356Z" fill="url(#paint7_linear_73_3714)"/>
<path d="M19.589 21.6356C20.0735 21.6356 20.4662 21.2429 20.4662 20.7585C20.4662 20.274 20.0735 19.8813 19.589 19.8813C19.1046 19.8813 18.7119 20.274 18.7119 20.7585C18.7119 21.2429 19.1046 21.6356 19.589 21.6356Z" fill="url(#paint8_linear_73_3714)"/>
<defs>
<linearGradient id="paint0_linear_73_3714" x1="-2.58115" y1="13.1603" x2="34.4439" y2="13.1603" gradientUnits="userSpaceOnUse">
<stop stop-color="#FD6700"/>
<stop offset="1" stop-color="#FFCE00"/>
</linearGradient>
<linearGradient id="paint1_linear_73_3714" x1="-2.58108" y1="21.337" x2="34.444" y2="21.337" gradientUnits="userSpaceOnUse">
<stop stop-color="#FD6700"/>
<stop offset="1" stop-color="#FFCE00"/>
</linearGradient>
<linearGradient id="paint2_linear_73_3714" x1="-2.58114" y1="13.7419" x2="34.4439" y2="13.7419" gradientUnits="userSpaceOnUse">
<stop stop-color="#FD6700"/>
<stop offset="1" stop-color="#FFCE00"/>
</linearGradient>
<linearGradient id="paint3_linear_73_3714" x1="-2.58078" y1="13.7419" x2="34.4443" y2="13.7419" gradientUnits="userSpaceOnUse">
<stop stop-color="#FD6700"/>
<stop offset="1" stop-color="#FFCE00"/>
</linearGradient>
<linearGradient id="paint4_linear_73_3714" x1="-2.58109" y1="13.7419" x2="34.444" y2="13.7419" gradientUnits="userSpaceOnUse">
<stop stop-color="#FD6700"/>
<stop offset="1" stop-color="#FFCE00"/>
</linearGradient>
<linearGradient id="paint5_linear_73_3714" x1="-2.58145" y1="17.2496" x2="34.4436" y2="17.2496" gradientUnits="userSpaceOnUse">
<stop stop-color="#FD6700"/>
<stop offset="1" stop-color="#FFCE00"/>
</linearGradient>
<linearGradient id="paint6_linear_73_3714" x1="-2.58114" y1="20.7585" x2="34.4439" y2="20.7585" gradientUnits="userSpaceOnUse">
<stop stop-color="#FD6700"/>
<stop offset="1" stop-color="#FFCE00"/>
</linearGradient>
<linearGradient id="paint7_linear_73_3714" x1="-2.58078" y1="20.7585" x2="34.4443" y2="20.7585" gradientUnits="userSpaceOnUse">
<stop stop-color="#FD6700"/>
<stop offset="1" stop-color="#FFCE00"/>
</linearGradient>
<linearGradient id="paint8_linear_73_3714" x1="-2.58109" y1="20.7585" x2="34.444" y2="20.7585" gradientUnits="userSpaceOnUse">
<stop stop-color="#FD6700"/>
<stop offset="1" stop-color="#FFCE00"/>
</linearGradient>
</defs>
</svg>
