<svg width="31" height="33" viewBox="0 0 31 33" fill="none" xmlns="http://www.w3.org/2000/svg">
<path d="M3.73956 18.1719C3.59781 18.1719 3.4619 18.2282 3.36166 18.3285C3.26143 18.4287 3.20509 18.5646 3.20508 18.7064V22.4477H4.27404V19.2408H26.7222V22.4477H27.7912V18.7064C27.7912 18.5646 27.7348 18.4287 27.6346 18.3285C27.5344 18.2282 27.3985 18.1719 27.2567 18.1719H3.73956Z" fill="#231F20"/>
<path d="M14.9707 14.9629V22.4456H16.0397V14.9629H14.9707Z" fill="#231F20"/>
<path d="M26.7242 24.5861C26.5824 24.5861 26.4465 24.6425 26.3463 24.7427L25.4339 25.6551H24.5862C24.487 25.6551 24.3896 25.6827 24.3052 25.7349C24.2207 25.7871 24.1525 25.8617 24.1081 25.9505L23.5736 27.0195C23.5365 27.0937 23.5171 27.1755 23.5171 27.2585C23.5171 27.3415 23.5365 27.4234 23.5736 27.4976L23.9891 28.3275L23.5736 29.1574C23.5365 29.2316 23.5171 29.3135 23.5171 29.3965C23.5171 29.4794 23.5365 29.5613 23.5736 29.6355L24.1081 30.7045C24.1525 30.7933 24.2207 30.8679 24.3052 30.9201C24.3896 30.9723 24.487 30.9999 24.5862 30.9999H25.4339L26.3463 31.9123C26.4465 32.0125 26.5824 32.0688 26.7242 32.0689H27.7931C27.9349 32.0688 28.0708 32.0125 28.171 31.9123L29.0834 30.9999H29.931C30.0303 30.9999 30.1277 30.9723 30.2121 30.9201C30.2966 30.8679 30.3647 30.7932 30.4091 30.7045L30.9436 29.6355C30.9807 29.5613 31 29.4794 31 29.3965C31 29.3135 30.9807 29.2316 30.9436 29.1574L30.5282 28.3275L30.9436 27.4976C30.9807 27.4234 31 27.3415 31 27.2585C31 27.1755 30.9807 27.0937 30.9436 27.0195L30.4091 25.9505C30.3647 25.8617 30.2966 25.7871 30.2121 25.7349C30.1277 25.6827 30.0303 25.6551 29.931 25.6551H29.0834L28.171 24.7427C28.0708 24.6425 27.9349 24.5862 27.7931 24.5861H26.7242ZM27.2586 27.2575C27.5421 27.2575 27.8141 27.3701 28.0146 27.5706C28.215 27.7711 28.3276 28.0429 28.3276 28.3264C28.3276 28.6099 28.215 28.8818 28.0146 29.0823C27.8141 29.2828 27.5421 29.3954 27.2586 29.3954C26.9751 29.3954 26.7033 29.2828 26.5028 29.0823C26.3024 28.8818 26.1897 28.6099 26.1897 28.3264C26.1897 28.0429 26.3024 27.7711 26.5028 27.5706C26.7033 27.3701 26.9751 27.2575 27.2586 27.2575ZM14.9656 24.5861C14.8238 24.5861 14.6879 24.6425 14.5877 24.7427L13.6753 25.6551H12.8277C12.7284 25.6551 12.631 25.6827 12.5466 25.7349C12.4621 25.7871 12.394 25.8617 12.3496 25.9505L11.8151 27.0195C11.778 27.0937 11.7586 27.1755 11.7586 27.2585C11.7586 27.3415 11.778 27.4234 11.8151 27.4976L12.2305 28.3275L11.8151 29.1574C11.778 29.2316 11.7586 29.3135 11.7586 29.3965C11.7586 29.4794 11.778 29.5613 11.8151 29.6355L12.3496 30.7045C12.394 30.7933 12.4621 30.8679 12.5466 30.9201C12.631 30.9723 12.7284 30.9999 12.8277 30.9999H13.6753L14.5877 31.9123C14.6879 32.0125 14.8238 32.0688 14.9656 32.0689H16.0345C16.1763 32.0688 16.3122 32.0125 16.4124 31.9123L17.3248 30.9999H18.1725C18.2717 30.9999 18.3691 30.9723 18.4535 30.9201C18.538 30.8679 18.6062 30.7932 18.6506 30.7045L19.1851 29.6355C19.2222 29.5613 19.2414 29.4794 19.2414 29.3965C19.2414 29.3135 19.2222 29.2316 19.1851 29.1574L18.7696 28.3275L19.1851 27.4976C19.2222 27.4234 19.2414 27.3415 19.2414 27.2585C19.2414 27.1755 19.2222 27.0937 19.1851 27.0195L18.6506 25.9505C18.6062 25.8617 18.538 25.7871 18.4535 25.7349C18.3691 25.6827 18.2717 25.6551 18.1725 25.6551H17.3248L16.4124 24.7427C16.3122 24.6425 16.1763 24.5862 16.0345 24.5861H14.9656ZM15.5001 27.2575C15.7836 27.2575 16.0555 27.3701 16.256 27.5706C16.4565 27.7711 16.569 28.0429 16.569 28.3264C16.569 28.6099 16.4565 28.8818 16.256 29.0823C16.0555 29.2828 15.7836 29.3954 15.5001 29.3954C15.2166 29.3954 14.9447 29.2828 14.7443 29.0823C14.5438 28.8818 14.4311 28.6099 14.4311 28.3264C14.4311 28.0429 14.5438 27.7711 14.7443 27.5706C14.9447 27.3701 15.2166 27.2575 15.5001 27.2575ZM3.20701 24.5861C3.06526 24.5861 2.92935 24.6425 2.82912 24.7427L1.91674 25.6551H1.06909C0.96982 25.6551 0.872471 25.6827 0.788019 25.7349C0.703568 25.7871 0.635388 25.8617 0.590982 25.9505L0.0565015 27.0195C0.0193888 27.0937 0 27.1755 0 27.2585C0 27.3415 0.0193888 27.4234 0.0565015 27.4976L0.471977 28.3275L0.0565015 29.1574C0.0193888 29.2316 0 29.3135 0 29.3965C0 29.4794 0.0193888 29.5613 0.0565015 29.6355L0.590982 30.7045C0.635388 30.7933 0.703568 30.8679 0.788019 30.9201C0.872471 30.9723 0.969821 30.9999 1.06909 30.9999H1.91674L2.82912 31.9123C2.92935 32.0125 3.06526 32.0688 3.20701 32.0689H4.27597C4.41771 32.0688 4.55365 32.0125 4.65387 31.9123L5.56624 30.9999H6.4139C6.51316 30.9999 6.61053 30.9723 6.69497 30.9201C6.77941 30.8679 6.8476 30.7932 6.89201 30.7045L7.42649 29.6355C7.4636 29.5613 7.48286 29.4794 7.48286 29.3965C7.48286 29.3135 7.4636 29.2316 7.42649 29.1574L7.01101 28.3275L7.42649 27.4976C7.4636 27.4234 7.48286 27.3415 7.48286 27.2585C7.48286 27.1755 7.4636 27.0937 7.42649 27.0195L6.89201 25.9505C6.8476 25.8617 6.77941 25.7871 6.69497 25.7349C6.61053 25.6827 6.51316 25.6551 6.4139 25.6551H5.56624L4.65387 24.7427C4.55365 24.6425 4.41771 24.5862 4.27597 24.5861H3.20701ZM3.74149 27.2575C4.025 27.2575 4.29695 27.3701 4.49741 27.5706C4.69788 27.7711 4.81044 28.0429 4.81046 28.3264C4.81044 28.6099 4.69788 28.8818 4.49741 29.0823C4.29695 29.2828 4.025 29.3954 3.74149 29.3954C3.45799 29.3954 3.18617 29.2828 2.98571 29.0823C2.78524 28.8818 2.67255 28.6099 2.67253 28.3264C2.67255 28.0429 2.78524 27.7711 2.98571 27.5706C3.18617 27.3701 3.45799 27.2575 3.74149 27.2575ZM7.48495 2.13792C7.39633 2.13753 7.30906 2.15917 7.23088 2.2009C7.15271 2.24263 7.08609 2.30313 7.03711 2.37698L6.19468 3.64846L4.98061 3.23925C4.88636 3.20755 4.78514 3.20278 4.68832 3.22546C4.5915 3.24815 4.50293 3.29739 4.43256 3.36765L3.3636 4.43452C3.29315 4.50499 3.24379 4.59374 3.22111 4.69077C3.19842 4.78779 3.20329 4.88922 3.2352 4.98362L3.64441 6.19559L2.37711 7.03594C2.30371 7.08463 2.24343 7.15071 2.20173 7.2283C2.16003 7.30588 2.13817 7.39257 2.13805 7.48065V9.6217C2.138 9.70996 2.15976 9.79686 2.20147 9.87464C2.24318 9.95242 2.30356 10.0187 2.37711 10.0674L3.63919 10.9047L3.23416 12.1208C3.2028 12.215 3.19838 12.3161 3.22124 12.4127C3.24409 12.5093 3.29336 12.5977 3.3636 12.6678L4.43256 13.7357C4.50284 13.8058 4.59118 13.8549 4.6878 13.8776C4.78441 13.9003 4.88545 13.8956 4.97957 13.8641L6.19572 13.4591L7.03815 14.7212C7.08677 14.7941 7.15252 14.854 7.22971 14.8955C7.3069 14.937 7.39313 14.9589 7.48077 14.9592L9.61869 14.9654C9.70712 14.9657 9.79426 14.9439 9.87223 14.9022C9.9502 14.8605 10.0166 14.8001 10.0655 14.7264L10.9079 13.4612L12.123 13.8704C12.2173 13.9021 12.3185 13.9069 12.4153 13.8842C12.5121 13.8615 12.6007 13.8123 12.6711 13.742L13.74 12.6741C13.8103 12.6039 13.8597 12.5156 13.8825 12.419C13.9054 12.3224 13.9008 12.2213 13.8695 12.1271L13.4644 10.9109L14.7265 10.0737C14.8001 10.0249 14.8605 9.95868 14.9022 9.8809C14.9439 9.80312 14.9656 9.71621 14.9656 9.62795V7.48689C14.9655 7.39881 14.9436 7.31213 14.9019 7.23454C14.8602 7.15696 14.7999 7.09088 14.7265 7.04219L13.4592 6.20184L13.8684 4.99091C13.9006 4.89637 13.9055 4.79474 13.8828 4.6975C13.8601 4.60027 13.8107 4.51133 13.74 4.44077L12.6711 3.37389C12.6008 3.30383 12.5124 3.25471 12.4158 3.23204C12.3192 3.20936 12.2182 3.21401 12.1241 3.24549L10.909 3.64949L10.0655 2.38218C10.0169 2.30927 9.95111 2.24944 9.87393 2.20793C9.79675 2.16643 9.7105 2.14452 9.62287 2.14417L7.48495 2.13792ZM8.55182 5.34481C10.3166 5.34481 11.7587 6.78689 11.7587 8.55169C11.7587 10.3164 10.3166 11.7586 8.55182 11.7586C6.78702 11.7586 5.34494 10.3164 5.34494 8.55169C5.34494 6.78689 6.78702 5.34481 8.55182 5.34481ZM20.3104 0C20.2224 1.52009e-06 20.1357 0.0217173 20.0582 0.063238C19.9806 0.104759 19.9145 0.164796 19.8657 0.238011L18.9554 1.60344H17.638C17.55 1.60344 17.4633 1.62516 17.3858 1.66668C17.3082 1.7082 17.2421 1.76824 17.1933 1.84145L16.1243 3.4449C16.0658 3.5327 16.0345 3.63585 16.0345 3.74137C16.0345 3.84688 16.0658 3.95004 16.1243 4.03784L16.996 5.34481L16.1243 6.65178C16.0658 6.73958 16.0345 6.84274 16.0345 6.94825C16.0345 7.05377 16.0658 7.15692 16.1243 7.24472L17.1933 8.84816C17.2421 8.92138 17.3082 8.9814 17.3858 9.02292C17.4633 9.06444 17.55 9.08617 17.638 9.08618H18.9554L19.8657 10.4516C19.9145 10.5248 19.9806 10.5848 20.0582 10.6264C20.1357 10.6679 20.2224 10.6896 20.3104 10.6896H22.4483C22.5363 10.6896 22.623 10.6679 22.7005 10.6264C22.7781 10.5848 22.8442 10.5248 22.893 10.4516L23.8033 9.08618H25.1207C25.2087 9.08617 25.2954 9.06444 25.3729 9.02292C25.4505 8.9814 25.5166 8.92137 25.5654 8.84816L26.6344 7.24472C26.6929 7.15692 26.7242 7.05377 26.7242 6.94825C26.7242 6.84274 26.6929 6.73958 26.6344 6.65178L25.7627 5.34481L26.6344 4.03784C26.6929 3.95004 26.7242 3.84688 26.7242 3.74137C26.7242 3.63585 26.6929 3.5327 26.6344 3.4449L25.5654 1.84145C25.5166 1.76825 25.4505 1.70822 25.3729 1.6667C25.2954 1.62518 25.2087 1.60345 25.1207 1.60344H23.8033L22.893 0.238011C22.8442 0.164804 22.7781 0.104775 22.7005 0.0632543C22.623 0.021734 22.5363 1.03181e-05 22.4483 0H20.3104ZM21.3794 3.20689C22.5538 3.20689 23.5173 4.17039 23.5173 5.34481C23.5173 6.51922 22.5538 7.48273 21.3794 7.48273C20.2049 7.48273 19.2414 6.51922 19.2414 5.34481C19.2414 4.17039 20.2049 3.20689 21.3794 3.20689Z" fill="#231F20"/>
</svg>
