<svg width="28" height="27" viewBox="0 0 28 27" fill="none" xmlns="http://www.w3.org/2000/svg">
<path d="M20.4843 0C17.1655 0 14.385 2.20906 13.446 5.223H1.62021C1.19989 5.22346 0.796909 5.39064 0.499695 5.68785C0.202482 5.98506 0.0353043 6.38804 0.0348432 6.80836V11.4774C0.0348432 11.9268 0.226481 12.3275 0.527875 12.6167C0.363289 12.7622 0.23121 12.9407 0.140255 13.1406C0.0492987 13.3405 0.00150818 13.5574 0 13.777L0 18.446C0.00108339 18.6625 0.0469979 18.8765 0.134851 19.0743C0.222703 19.2722 0.35059 19.4498 0.510453 19.5958C0.35059 19.7418 0.222703 19.9194 0.134851 20.1173C0.0469979 20.3152 0.00108339 20.5291 0 20.7456L0 25.4146C0 26.2892 0.710801 27 1.58537 27H21.0627C21.9373 27 22.6481 26.2892 22.6481 25.4146V20.7456C22.647 20.5291 22.6011 20.3152 22.5132 20.1173C22.4254 19.9194 22.2975 19.7418 22.1376 19.5958C22.2975 19.4498 22.4254 19.2722 22.5132 19.0743C22.6011 18.8765 22.647 18.6625 22.6481 18.446V14.4477C25.6725 13.5157 27.892 10.73 27.892 7.40418C27.8888 5.44086 27.1072 3.55892 25.7186 2.17097C24.3299 0.783013 22.4476 0.00230335 20.4843 0ZM20.4843 0.87108C22.2163 0.873385 23.8767 1.56243 25.1014 2.78713C26.3261 4.01182 27.0151 5.6722 27.0174 7.40418C27.0151 9.13616 26.3261 10.7965 25.1014 12.0212C23.8767 13.2459 22.2163 13.935 20.4843 13.9373C18.7523 13.935 17.092 13.2459 15.8673 12.0212C14.6426 10.7965 13.9535 9.13616 13.9512 7.40418C13.9535 5.6722 14.6426 4.01182 15.8673 2.78713C17.092 1.56243 18.7523 0.873385 20.4843 0.87108ZM20.4878 3.48432C19.439 3.48432 18.4495 3.89024 17.7073 4.63415C16.9751 5.37214 16.565 6.3702 16.567 7.40982C16.569 8.44945 16.9827 9.44596 17.7178 10.1812C17.7579 10.2215 17.8058 10.2533 17.8584 10.2749C17.9111 10.2964 17.9675 10.3072 18.0244 10.3066C18.1397 10.3073 18.2506 10.2622 18.3328 10.1812L20.1969 8.31185L19.5784 7.69686L18.0453 9.23519C17.7063 8.78166 17.5001 8.24275 17.4498 7.67874C17.3995 7.11473 17.5071 6.54784 17.7605 6.04148C18.014 5.53512 18.4033 5.10924 18.8849 4.81148C19.3666 4.51372 19.9216 4.3558 20.4878 4.3554H20.4983L20.5017 3.48432H20.4878ZM22.9477 4.50174C22.8319 4.50099 22.7204 4.54608 22.6376 4.62718L20.7909 6.48258L21.4059 7.09756L22.9233 5.57666C23.3188 6.10105 23.5331 6.73693 23.5331 7.40418C23.5331 8.21951 23.216 8.98258 22.6411 9.55749C22.0488 10.1533 21.2509 10.4582 20.4164 10.4564L20.399 11.3275H20.4808C21.5331 11.3275 22.5192 10.9199 23.2613 10.1742C24 9.43206 24.4059 8.44948 24.4042 7.4007C24.4051 6.88591 24.3039 6.37604 24.1065 5.90059C23.9092 5.42513 23.6195 4.9935 23.2544 4.63066C23.2146 4.58958 23.1669 4.55698 23.1142 4.53483C23.0615 4.51267 23.0049 4.50142 22.9477 4.50174ZM1.62021 6.09408H13.2125C13.1294 6.52595 13.0851 6.9644 13.0801 7.40418C13.0801 9.23868 13.7753 10.8972 14.8833 12.1916H1.62021C1.43077 12.1916 1.24909 12.1164 1.11513 11.9824C0.981178 11.8485 0.905923 11.6668 0.905923 11.4774V6.80836C0.905923 6.61892 0.981178 6.43724 1.11513 6.30329C1.24909 6.16933 1.43077 6.09408 1.62021 6.09408ZM3.05575 8.70732V9.5784H10.0244V8.70732H3.05575ZM1.58537 13.0627H15.7683C17.0866 14.1825 18.7581 14.8008 20.4878 14.8084C20.9303 14.8084 21.3571 14.7544 21.777 14.6794V18.446C21.777 18.6354 21.7017 18.8171 21.5678 18.9511C21.4338 19.085 21.2522 19.1603 21.0627 19.1603H1.58537C1.39593 19.1603 1.21424 19.085 1.08029 18.9511C0.946335 18.8171 0.87108 18.6354 0.87108 18.446V13.777C0.87108 13.5876 0.946335 13.4059 1.08029 13.2719C1.21424 13.138 1.39593 13.0627 1.58537 13.0627ZM18.7631 15.5889C18.6245 15.5889 18.4915 15.6439 18.3935 15.7419C18.2955 15.8399 18.2404 15.9729 18.2404 16.1115C18.2404 16.2501 18.2955 16.3831 18.3935 16.4811C18.4915 16.5791 18.6245 16.6341 18.7631 16.6341C18.8317 16.6341 18.8997 16.6206 18.9631 16.5944C19.0265 16.5681 19.0841 16.5296 19.1326 16.4811C19.1812 16.4325 19.2197 16.3749 19.2459 16.3115C19.2722 16.2481 19.2857 16.1801 19.2857 16.1115C19.2857 16.0429 19.2722 15.9749 19.2459 15.9115C19.2197 15.8481 19.1812 15.7905 19.1326 15.7419C19.0841 15.6934 19.0265 15.6549 18.9631 15.6286C18.8997 15.6024 18.8317 15.5889 18.7631 15.5889ZM3.49129 15.676V16.547H10.4599V15.676H3.49129ZM1.58537 20.0314H21.0627C21.1565 20.0314 21.2494 20.0498 21.3361 20.0857C21.4227 20.1216 21.5015 20.1742 21.5678 20.2406C21.6341 20.3069 21.6867 20.3856 21.7226 20.4723C21.7585 20.559 21.777 20.6518 21.777 20.7456V25.4146C21.777 25.6041 21.7017 25.7858 21.5678 25.9197C21.4338 26.0537 21.2522 26.1289 21.0627 26.1289H1.58537C1.39593 26.1289 1.21424 26.0537 1.08029 25.9197C0.946335 25.7858 0.87108 25.6041 0.87108 25.4146V20.7456C0.87108 20.6518 0.889556 20.559 0.925452 20.4723C0.961348 20.3856 1.01396 20.3069 1.08029 20.2406C1.14662 20.1742 1.22536 20.1216 1.31202 20.0857C1.39868 20.0498 1.49156 20.0314 1.58537 20.0314ZM18.7143 22.5575C18.576 22.558 18.4435 22.6132 18.3458 22.7112C18.2482 22.8092 18.1934 22.9418 18.1934 23.0801C18.1934 23.2188 18.2484 23.3517 18.3465 23.4497C18.4445 23.5477 18.5774 23.6028 18.716 23.6028C18.8546 23.6028 18.9876 23.5477 19.0856 23.4497C19.1836 23.3517 19.2387 23.2188 19.2387 23.0801C19.2387 22.9415 19.1836 22.8086 19.0856 22.7106C18.9876 22.6126 18.8546 22.5575 18.716 22.5575H18.7143ZM3.49129 22.6446V23.5157H10.4599V22.6446H3.49129Z" fill="#231F20"/>
</svg>
