<svg width="34" height="25" viewBox="0 0 34 25" fill="none" xmlns="http://www.w3.org/2000/svg">
<path d="M27.7108 1.45936C26.372 0.120421 24.3636 -0.34009 22.4694 0.257148L16.5417 2.12646L10.614 0.257148C8.71973 -0.340223 6.71143 0.120488 5.37263 1.45936L1.45575 5.3759C-0.572354 7.40427 -0.468625 10.8118 1.68734 12.9719C4.05429 15.3434 6.6071 17.9004 8.73533 20.0283C8.63686 20.3992 8.63677 20.7894 8.73507 21.1603C8.83337 21.5313 9.02667 21.8702 9.29591 22.1437L9.32444 22.1723C9.52798 22.3745 9.76948 22.5344 10.035 22.6429C10.3006 22.7514 10.585 22.8064 10.8719 22.8046C11.065 22.8044 11.2573 22.7802 11.4444 22.7326L11.6711 22.9581C12.0066 23.2938 12.4329 23.5241 12.8977 23.6206C13.2972 23.972 13.8122 24.1641 14.3443 24.1599C14.3713 24.1599 14.3984 24.1595 14.4255 24.1585C15.0387 24.135 15.6199 23.8789 16.051 23.4423L16.5417 22.9511L17.0329 23.4423C17.464 23.8789 18.0452 24.135 18.6584 24.1585C18.6856 24.1595 18.7126 24.1599 18.7396 24.1599C19.2704 24.1637 19.7841 23.9725 20.1833 23.6226C20.6487 23.5246 21.0757 23.2938 21.4125 22.9581L21.6402 22.7315C22.0116 22.8299 22.4022 22.8302 22.7737 22.7321C23.1451 22.6341 23.4847 22.4412 23.7591 22.1723L23.7872 22.1441C24.0556 21.8702 24.2484 21.5313 24.3465 21.1606C24.4447 20.7899 24.4449 20.4 24.3472 20.0292C26.4559 17.9211 28.9764 15.3964 31.396 12.9721C33.552 10.8122 33.6559 7.40447 31.6274 5.3761L27.7108 1.45936ZM10.0789 21.4184L10.0503 21.3899C9.98744 21.3268 9.93269 21.2561 9.88734 21.1795L10.2901 21.5817C10.2131 21.5363 10.1421 21.4814 10.0789 21.4183V21.4184ZM15.2963 22.6883C15.2293 22.755 15.156 22.8148 15.0772 22.8671C15.3013 22.5989 15.4562 22.2798 15.5283 21.9379L15.7875 22.1971L15.2963 22.6883ZM23.0328 21.3901L23.0047 21.4182C22.5477 21.8753 21.7654 21.8368 21.2609 21.3323L13.0706 13.1419C13.0213 13.0914 12.9624 13.0513 12.8975 13.0237C12.8326 12.9962 12.7628 12.9818 12.6923 12.9814C12.6217 12.981 12.5518 12.9946 12.4866 13.0214C12.4213 13.0483 12.3621 13.0877 12.3122 13.1376C12.2623 13.1875 12.2228 13.2468 12.196 13.312C12.1692 13.3773 12.1556 13.4472 12.156 13.5177C12.1564 13.5882 12.1708 13.658 12.1983 13.7229C12.2258 13.7879 12.266 13.8467 12.3164 13.896L19.4442 21.0238L19.4478 21.0275C19.693 21.2678 19.8376 21.5924 19.8522 21.9354C19.8608 22.0897 19.8367 22.244 19.7816 22.3882C19.7264 22.5325 19.6415 22.6636 19.5323 22.7728C19.423 22.882 19.292 22.9669 19.1477 23.022C19.0034 23.0772 18.8491 23.1012 18.6949 23.0927C18.3519 23.0782 18.0272 22.9336 17.787 22.6883L16.9187 21.82L10.6556 15.557C10.5556 15.457 10.42 15.4008 10.2785 15.4008C10.1371 15.4008 10.0014 15.457 9.90141 15.557C9.80139 15.657 9.7452 15.7927 9.7452 15.9341C9.7452 16.0756 9.80139 16.2112 9.90141 16.3112L14.1024 20.5122L14.1053 20.5151C14.3505 20.7554 14.4951 21.08 14.5097 21.4231C14.5173 21.5768 14.493 21.7305 14.4382 21.8744C14.3833 22.0183 14.2992 22.1492 14.1911 22.2588L14.1645 22.2855C13.7085 22.7413 12.9275 22.704 12.4234 22.2023C12.2763 22.0559 12.1223 21.9026 11.9613 21.7423L11.9586 21.7396C11.3301 21.1133 10.6016 20.3859 9.80668 19.5914C9.7622 19.5176 9.70042 19.4558 9.62669 19.4114C7.47179 17.2572 4.86025 14.6413 2.44217 12.2184C0.701319 10.4743 0.597257 7.74299 2.21018 6.13007L6.12679 2.21365C7.18327 1.15724 8.77966 0.797322 10.2933 1.27457L14.7684 2.68563L12.2686 3.47399C12.1523 3.51065 12.0521 3.58602 11.9847 3.68755C11.9172 3.78909 11.8866 3.91066 11.8979 4.03203L11.9589 4.6866C11.9741 5.09306 12.0724 5.49209 12.2477 5.85909C12.4231 6.22608 12.6718 6.55326 12.9785 6.82043C13.2928 7.09193 13.6597 7.29578 14.0563 7.41927C14.4529 7.54276 14.8706 7.58324 15.2836 7.5382L15.6389 7.50333L16.1648 8.02997L23.4868 15.3623C23.9905 15.8667 24.0287 16.6489 23.5719 17.1053L23.5691 17.1082C23.1229 17.5515 22.3697 17.5249 21.8658 17.0563C21.0348 16.2252 20.1288 15.3197 19.2682 14.4597C17.3389 12.5311 15.6725 10.8655 15.5115 10.7034C15.4117 10.6038 15.2765 10.5478 15.1355 10.5477C14.9945 10.5475 14.8592 10.6032 14.7592 10.7025C14.6591 10.8019 14.6025 10.9368 14.6016 11.0778C14.6008 11.2188 14.6558 11.3543 14.7546 11.4549C14.9171 11.6185 16.584 13.2847 18.5145 15.2141L21.0519 17.7506C21.059 17.7585 21.0663 17.7662 21.0739 17.7738C21.0903 17.7903 21.1072 17.8064 21.1237 17.8224C21.8036 18.5023 22.4337 19.132 22.9478 19.6462C23.4518 20.1506 23.4901 20.9328 23.0328 21.3899V21.3901ZM30.641 12.2184C28.3129 14.551 25.8908 16.9771 23.8329 19.0348C23.7911 18.9862 23.7478 18.9383 23.7017 18.8922C23.5597 18.7501 23.4088 18.5992 23.2505 18.4409C23.6577 18.3558 24.0314 18.1539 24.3257 17.8598L24.3297 17.8559C25.1982 16.9831 25.1591 15.5276 24.2413 14.6086L17.295 7.65279L17.775 7.17182C17.8526 7.09406 17.9044 6.99422 17.9231 6.88594C17.9419 6.77766 17.9267 6.66623 17.8797 6.56689C17.8327 6.46756 17.7562 6.38516 17.6606 6.33098C17.565 6.2768 17.455 6.25347 17.3456 6.26419L15.179 6.47665C14.9105 6.50695 14.6386 6.48163 14.3803 6.40227C14.122 6.3229 13.8828 6.19119 13.6776 6.01534C13.4791 5.84134 13.3186 5.62833 13.2061 5.38957C13.0935 5.15082 13.0314 4.89144 13.0235 4.6276C13.0235 4.61861 13.0225 4.60954 13.0217 4.60061L12.9994 4.36175L16.692 3.19727L16.6939 3.19674L22.7898 1.27443C24.3031 0.797056 25.8996 1.15697 26.9563 2.21352L30.8728 6.13007C32.4861 7.74299 32.382 10.4743 30.641 12.2184Z" fill="black"/>
</svg>
