<svg width="36" height="33" viewBox="0 0 36 33" fill="none" xmlns="http://www.w3.org/2000/svg">
<path fill-rule="evenodd" clip-rule="evenodd" d="M19.8621 0C17.3086 0 15.2317 2.09545 15.2317 4.66014C15.2317 5.87669 15.7097 6.97779 16.4743 7.80952H7.90883C7.45834 7.81113 7.02662 7.99012 6.70715 8.30773C6.38768 8.62535 6.20617 9.05601 6.20193 9.50648V11.6764H6.24786C5.31578 12.6747 4.79601 13.9888 4.79297 15.3546C4.79297 17.0541 5.59241 18.5549 6.81641 19.5517C3.00414 19.8199 0 23.0065 0 26.9032V31.6279C0 31.7925 0.0653939 31.9504 0.181796 32.0668C0.298198 32.1832 0.456073 32.2486 0.62069 32.2486H4.28276C4.39587 32.2814 4.51599 32.2814 4.6291 32.2486H15.7866C15.9001 32.2817 16.0207 32.2817 16.1342 32.2486H19.7938C19.9584 32.2486 20.1163 32.1832 20.2327 32.0668C20.3491 31.9504 20.4145 31.7925 20.4145 31.6279V27.6765H32.2299C34.313 27.6765 36 25.956 36 23.8556C36 23.691 35.9346 23.5331 35.8182 23.4167C35.7018 23.3003 35.5439 23.2349 35.3793 23.2349H33.5222V9.50648C33.518 9.05601 33.3365 8.62535 33.017 8.30773C32.6975 7.99012 32.2658 7.81113 31.8153 7.80952H23.2498C24.0459 6.95369 24.4896 5.82897 24.4924 4.66014C24.4924 2.09545 22.4156 0 19.8621 0ZM19.8621 1.24138C20.3094 1.24202 20.7523 1.33111 21.1651 1.50351C21.5779 1.67592 21.9526 1.92824 22.2675 2.24596C22.5825 2.56369 22.8315 2.94054 23.0003 3.35486C23.1691 3.76918 23.2543 4.21277 23.251 4.66014C23.2568 5.55059 22.912 6.40754 22.2911 7.04585C21.6702 7.68416 20.8231 8.05256 19.9328 8.07145H19.7913C18.901 8.05256 18.054 7.68416 17.4331 7.04585C16.8122 6.40754 16.4674 5.55059 16.4731 4.66014C16.4698 4.21277 16.555 3.76918 16.7238 3.35486C16.8926 2.94054 17.1416 2.56369 17.4566 2.24596C17.7715 1.92824 18.1462 1.67592 18.559 1.50351C18.9719 1.33111 19.4147 1.24202 19.8621 1.24138ZM7.90883 9.0509H14.1207C13.5141 9.43719 12.9787 9.92516 12.5379 10.4934C11.8086 10.1265 11.0044 9.93318 10.188 9.92855C9.18248 9.92855 8.25145 10.224 7.44455 10.7094V9.50648C7.44332 9.44558 7.45455 9.38506 7.47756 9.32866C7.50057 9.27225 7.53487 9.22114 7.57835 9.17848C7.62183 9.13581 7.67358 9.10248 7.73041 9.08054C7.78724 9.0586 7.84796 9.04852 7.90883 9.0509ZM25.6208 9.0509H31.8153C31.8763 9.04834 31.9371 9.0583 31.9941 9.08016C32.0511 9.10202 32.103 9.13532 32.1466 9.17801C32.1902 9.22069 32.2246 9.27186 32.2477 9.32835C32.2708 9.38484 32.2821 9.44547 32.2808 9.50648V23.2361H23.1207C22.9844 23.2364 22.8519 23.2815 22.7437 23.3645C22.6356 23.4475 22.5578 23.5638 22.5223 23.6954C22.4777 23.8618 22.3709 23.9537 22.2244 23.9537H19.8C19.389 23.012 18.7861 22.1663 18.0298 21.4709H30.4138C30.5784 21.4709 30.7363 21.4055 30.8527 21.2891C30.9691 21.1727 31.0345 21.0148 31.0345 20.8502V10.9192C31.0345 10.7546 30.9691 10.5967 30.8527 10.4803C30.7363 10.3639 30.5784 10.2985 30.4138 10.2985H27.031C26.6265 9.81427 26.1511 9.39282 25.6208 9.0509ZM17.4612 9.31159H18.7076L18.1837 15.624C18.1765 15.7137 18.1888 15.8039 18.2199 15.8884C18.251 15.9728 18.3001 16.0495 18.3637 16.1131L19.4375 17.1906C19.4952 17.2488 19.5639 17.295 19.6395 17.3265C19.7151 17.358 19.7963 17.3742 19.8782 17.3742C19.9601 17.3742 20.0413 17.358 20.1169 17.3265C20.1925 17.295 20.2612 17.2488 20.3189 17.1906L21.3914 16.1131C21.4551 16.0495 21.5042 15.9728 21.5353 15.8884C21.5664 15.8039 21.5787 15.7137 21.5714 15.624L21.0451 9.31283H22.2939C25.0808 9.31283 27.3103 11.5548 27.3103 14.3702V17.7232H25.3291V14.6905C25.3301 14.6075 25.3145 14.5252 25.2831 14.4483C25.2517 14.3715 25.2053 14.3018 25.1465 14.2432C25.0877 14.1846 25.0178 14.1385 24.9408 14.1074C24.8639 14.0763 24.7815 14.061 24.6985 14.0623C24.5343 14.065 24.3778 14.1325 24.2634 14.2503C24.1489 14.368 24.0857 14.5263 24.0877 14.6905V17.7232H15.0157C15.3836 16.9875 15.5776 16.1771 15.583 15.3546C15.583 13.6639 14.7923 12.1668 13.5794 11.1699C14.0458 10.5891 14.6368 10.1206 15.3088 9.79916C15.9807 9.4777 16.7164 9.31024 17.4612 9.31159ZM19.877 10.2414L20.3114 15.439L19.877 15.871L19.445 15.439L19.877 10.2414ZM10.188 11.1699C10.7359 11.1707 11.2782 11.2798 11.7838 11.4907C12.2894 11.7017 12.7483 12.0105 13.1343 12.3993C13.5202 12.7881 13.8255 13.2494 14.0327 13.7565C14.2399 14.2637 14.3449 14.8068 14.3417 15.3546C14.347 16.4391 13.9279 17.4827 13.174 18.2623C12.4201 19.0419 11.3912 19.4958 10.3072 19.5269H10.0676C8.98374 19.4958 7.95502 19.0421 7.20117 18.2628C6.44733 17.4834 6.02812 16.4401 6.0331 15.3559C6.02967 14.8078 6.13457 14.2645 6.34177 13.7571C6.54897 13.2497 6.8544 12.7883 7.24049 12.3993C7.62659 12.0103 8.08574 11.7015 8.59157 11.4905C9.0974 11.2795 9.63994 11.1706 10.188 11.1699ZM27.8528 11.5386H29.7931V20.2283H16.1888C15.364 19.8397 14.4732 19.6102 13.5633 19.5517C13.7843 19.3705 13.9928 19.1793 14.184 18.9646H24.5433C24.6506 18.9939 24.7638 18.9939 24.871 18.9646H27.931C28.0956 18.9646 28.2535 18.8992 28.3699 18.7828C28.4863 18.6664 28.5517 18.5085 28.5517 18.3439V14.3714C28.5517 13.3461 28.2848 12.3939 27.8528 11.5386ZM7.33283 20.7683H10.0676C10.1086 20.7695 10.1458 20.7807 10.1868 20.7807C10.2277 20.7807 10.265 20.7695 10.3059 20.7683H13.0817C16.4644 20.7683 19.1719 23.4919 19.1719 26.9032V31.0072H16.5799V27.283C16.5807 27.2003 16.565 27.1182 16.5336 27.0416C16.5022 26.965 16.4559 26.8954 16.3972 26.837C16.3386 26.7786 16.2689 26.7325 16.1921 26.7014C16.1154 26.6704 16.0332 26.655 15.9505 26.6561C15.7863 26.6584 15.6297 26.7257 15.515 26.8432C15.4003 26.9607 15.3368 27.1188 15.3385 27.283V31.0072H5.07724V27.283C5.07808 27.2002 5.06231 27.118 5.03087 27.0413C4.99943 26.9646 4.95295 26.895 4.89418 26.8366C4.8354 26.7781 4.76552 26.7321 4.68865 26.7011C4.61178 26.6701 4.52949 26.6548 4.44662 26.6561C4.28265 26.6588 4.12638 26.7262 4.01194 26.8436C3.8975 26.9611 3.8342 27.119 3.83586 27.283V31.0072H1.24138V26.9032C1.24138 23.4931 3.95007 20.7683 7.33283 20.7683ZM23.4211 24.4763H34.5103C34.2137 25.5687 33.3993 26.4352 32.2312 26.4352H20.3921C20.3665 26.017 20.3055 25.6017 20.2097 25.1938H22.2244C22.7508 25.1938 23.1418 24.876 23.4211 24.4763Z" fill="url(#paint0_linear_73_3725)"/>
<defs>
<linearGradient id="paint0_linear_73_3725" x1="0" y1="16.1367" x2="32.2759" y2="16.1367" gradientUnits="userSpaceOnUse">
<stop stop-color="#BE1687"/>
<stop offset="1" stop-color="#661E78"/>
</linearGradient>
</defs>
</svg>
