<svg width="52" height="59" viewBox="0 0 52 59" fill="none" xmlns="http://www.w3.org/2000/svg">
<path d="M26.0155 58.6699C25.4019 58.6695 24.8057 58.4667 24.3191 58.0929C24.3191 58.0929 22.19 56.4888 16.3046 53.2634C7.29772 48.3301 3.15489 42.4101 2.00666 32.832C1.11809 25.4175 0.54109 9.93094 0.518011 9.27317C0.501611 8.87746 0.569916 8.48281 0.718354 8.11564C0.866792 7.74846 1.09194 7.41722 1.37873 7.14408C1.66552 6.87095 2.00735 6.66222 2.38132 6.53185C2.7553 6.40149 3.15281 6.35251 3.54724 6.38818C3.60494 6.38818 9.62879 6.89594 14.8102 5.44191C18.2229 4.45773 21.4167 2.83239 24.221 0.65283C24.7239 0.23113 25.3592 0 26.0155 0C26.6718 0 27.3071 0.23113 27.81 0.65283C30.6114 2.84614 33.8054 4.48523 37.2208 5.4823C42.4137 6.93633 48.4261 6.42857 48.4895 6.42857C48.8837 6.39281 49.281 6.44178 49.6547 6.57218C50.0284 6.70259 50.3699 6.91142 50.6562 7.18466C50.9426 7.4579 51.1672 7.78923 51.3149 8.15641C51.4627 8.52359 51.5302 8.91813 51.513 9.31355C51.513 9.97133 50.936 25.4695 50.0243 32.8723C48.8703 42.4505 44.7333 48.3705 35.7321 53.298C29.8468 56.5234 27.7292 58.1217 27.7061 58.139C27.2155 58.4956 26.6218 58.682 26.0155 58.6699ZM6.19566 12.0543C6.39761 17.0222 6.89959 26.9004 7.5516 32.1742C8.3594 38.9135 10.4885 43.7141 18.9934 48.382C22.4554 50.2688 24.6826 51.6421 26.0386 52.5249C27.3945 51.6421 29.639 50.2688 33.0837 48.382C41.5944 43.7257 43.6947 38.9135 44.4794 32.1742C45.1314 26.9004 45.6334 17.0222 45.8353 12.0543C42.422 12.0865 39.0193 11.6694 35.7148 10.8137C32.2594 9.81839 28.985 8.27765 26.0155 6.2497C23.0459 8.27765 19.7716 9.81839 16.3162 10.8137C13.0117 11.6694 9.60898 12.0865 6.19566 12.0543Z" fill="#BE1687"/>
</svg>
