<svg width="67" height="37" viewBox="0 0 67 37" fill="none" xmlns="http://www.w3.org/2000/svg">
<path d="M40.2577 9.27236C40.2565 9.47521 40.2489 9.67797 40.235 9.88034C40.2281 9.98038 40.2176 10.0801 40.207 10.1799C40.171 10.5181 40.2506 9.90108 40.1981 10.2356C40.1325 10.655 40.0256 11.0671 39.894 11.4704C39.8641 11.5624 39.8307 11.6533 39.7974 11.7441C39.7776 11.798 39.6531 12.1025 39.782 11.7976C39.7073 11.9744 39.623 12.1468 39.5358 12.3176C39.3479 12.6854 39.1252 13.0347 38.8832 13.3691C38.6932 13.6315 39.0526 13.1593 38.8506 13.4123C38.7915 13.4864 38.7297 13.5584 38.6679 13.6305C38.5444 13.7744 38.4135 13.9117 38.2802 14.0465C38.1469 14.1813 38.0066 14.3091 37.8641 14.4342C37.7929 14.4968 37.7194 14.5569 37.646 14.617C37.5362 14.7041 37.5473 14.6961 37.6791 14.5929C37.6285 14.6309 37.5774 14.6684 37.5259 14.7052C37.217 14.9289 36.8887 15.1247 36.5513 15.3021C36.3815 15.3914 36.2071 15.4714 36.0314 15.5483C36.3342 15.4159 36.0321 15.543 35.9779 15.5636C35.8572 15.6096 35.7346 15.6503 35.612 15.6904C35.2391 15.812 34.8557 15.8989 34.4694 15.9644C34.1356 16.0209 34.7514 15.9331 34.4137 15.9732C34.3141 15.9851 34.2142 15.9932 34.1142 16.0012C33.8781 16.0204 33.6409 16.0248 33.4041 16.0233C33.2018 16.022 32.9997 16.0094 32.798 15.9931C32.6983 15.9844 32.5988 15.9738 32.4996 15.9614C32.8385 16.0017 32.5052 15.9579 32.4454 15.9478C32.0275 15.877 31.6174 15.7653 31.2164 15.6291C31.1249 15.598 31.0346 15.5636 30.9443 15.5292C30.637 15.4122 31.1934 15.6411 30.8928 15.5097C30.7172 15.4329 30.5459 15.3467 30.3763 15.2575C30.0109 15.0653 29.6644 14.8387 29.3332 14.5928C29.5944 14.7868 29.3375 14.5933 29.2928 14.5568C29.2198 14.4963 29.1478 14.4346 29.0769 14.3716C28.9344 14.2465 28.7987 14.1139 28.6655 13.979C28.5321 13.8441 28.406 13.7023 28.2826 13.5584C28.2208 13.4864 28.1616 13.4123 28.1024 13.3382C28.3141 13.6033 28.0555 13.2669 28.0185 13.2145C27.7984 12.9027 27.6064 12.5719 27.4329 12.2323C27.3893 12.147 27.3488 12.0601 27.3083 11.9732C27.2837 11.9204 27.1597 11.6185 27.2846 11.9239C27.1992 11.7148 27.1265 11.5009 27.0591 11.2854C26.9419 10.9105 26.8596 10.5254 26.7987 10.1376C26.8517 10.4752 26.8011 10.1406 26.7947 10.0804C26.7847 9.98039 26.7766 9.8802 26.7704 9.77987C26.7541 9.54314 26.7527 9.3056 26.7571 9.06843C26.7609 8.86662 26.7759 8.66525 26.7947 8.46438C26.8003 8.40458 26.8476 8.06817 26.7987 8.4072C26.8129 8.3092 26.8306 8.21186 26.8484 8.11452C26.9242 7.69823 27.0408 7.29017 27.1816 6.89149C27.2138 6.80048 27.2493 6.71063 27.2847 6.62085C27.1638 6.92721 27.2842 6.62514 27.3084 6.5716C27.3872 6.39707 27.4754 6.2269 27.5666 6.05856C27.6574 5.89079 27.7571 5.72805 27.8595 5.56726C27.9107 5.48702 27.9647 5.40867 28.0186 5.33038C28.0547 5.27793 28.3113 4.93869 28.1024 5.20671C28.3357 4.90741 28.595 4.62921 28.8677 4.36592C29.0041 4.23416 29.1475 4.10976 29.2928 3.98805C29.3366 3.95138 29.5927 3.75466 29.3332 3.95196C29.434 3.87528 29.538 3.80275 29.6424 3.73087C29.9569 3.51429 30.2902 3.32615 30.632 3.15664C30.7183 3.11456 30.8052 3.07403 30.8929 3.03507C31.1918 2.90005 30.6386 3.13627 30.9443 3.01557C31.1547 2.93249 31.3699 2.86236 31.5864 2.79754C31.7739 2.74145 31.9642 2.69576 32.1552 2.65356C32.2514 2.63232 32.3485 2.61464 32.4454 2.59696C32.5044 2.58619 32.8387 2.53883 32.4996 2.58336C32.9343 2.52625 33.3739 2.51286 33.8116 2.52654C34.0129 2.5328 34.2136 2.55033 34.4137 2.57157C34.7519 2.60751 34.1349 2.52792 34.4694 2.58037C34.567 2.59565 34.664 2.61457 34.7609 2.63348C35.1756 2.71438 35.5816 2.83573 35.978 2.98116C36.0319 3.00095 36.3364 3.1255 36.0314 2.99651C36.1199 3.03391 36.207 3.0745 36.294 3.1151C36.4674 3.19593 36.6364 3.28614 36.8036 3.37919C36.9701 3.47195 37.1316 3.57351 37.291 3.67783C37.3706 3.72992 37.4483 3.78478 37.5259 3.83963C37.5724 3.87251 37.8293 4.06931 37.5719 3.86873C37.8711 4.10197 38.1494 4.36126 38.4127 4.63401C38.5445 4.77042 38.6688 4.91374 38.7906 5.05909C38.8273 5.10289 39.0239 5.35898 38.8266 5.09947C38.8841 5.17513 38.939 5.25276 38.9937 5.33038C39.2138 5.64213 39.4059 5.97286 39.5793 6.31246C39.623 6.39787 39.6635 6.48474 39.704 6.57167C39.7286 6.62442 39.8525 6.92641 39.7276 6.62093C39.8008 6.79997 39.8641 6.98294 39.9241 7.16678C40.0457 7.53963 40.1326 7.92296 40.1981 8.30935C40.2547 8.64313 40.1668 8.02729 40.207 8.36507C40.2187 8.46467 40.2269 8.56463 40.235 8.66452C40.2515 8.86662 40.2564 9.0696 40.2577 9.27236C40.2621 9.96634 40.8336 10.5455 41.5309 10.5455C42.2217 10.5455 42.8084 9.96641 42.804 9.27236C42.7818 5.70135 40.6809 2.31614 37.4047 0.8363C33.9796 -0.710763 29.9962 -0.0738953 27.2059 2.43603C24.5221 4.8503 23.5384 8.83672 24.694 12.2389C25.2541 13.8876 26.2772 15.3885 27.64 16.4766C29.1167 17.6556 30.8221 18.3307 32.6982 18.53C35.2858 18.805 37.8924 17.8306 39.8065 16.1087C41.7217 14.3858 42.788 11.8318 42.804 9.27236C42.8083 8.57831 42.2216 7.99921 41.5308 7.99921C40.8336 7.99921 40.2621 8.57845 40.2577 9.27236Z" fill="url(#paint0_linear_653_90)"/>
<path d="M42.6704 18.2497C42.8486 18.3634 43.0237 18.4818 43.1955 18.6048C43.2293 18.6291 43.5088 18.8437 43.2742 18.6603C43.3572 18.7253 43.4381 18.7928 43.519 18.8604C43.8694 19.1529 44.1945 19.4749 44.5012 19.8126C44.6429 19.9686 44.7771 20.1313 44.9085 20.2959C44.723 20.0636 44.9391 20.341 44.9638 20.3749C45.0257 20.4604 45.0862 20.547 45.1453 20.6345C45.4045 21.0141 45.6307 21.4152 45.8344 21.8268C45.8812 21.9225 45.9264 22.019 45.97 22.1163C46.1177 22.4409 45.8744 21.8744 46.0081 22.2059C46.0885 22.4052 46.159 22.6082 46.2262 22.8123C46.3736 23.2603 46.481 23.7206 46.5625 24.1847C46.57 24.2281 46.6214 24.5923 46.5812 24.2829C46.5955 24.3931 46.6061 24.5037 46.6167 24.6143C46.6381 24.8377 46.6482 25.0621 46.6545 25.2864C46.6578 25.4023 46.657 25.5183 46.657 25.6341V32.125C46.657 32.2074 46.6544 32.2481 46.6504 32.3301C46.6339 32.6688 46.7035 32.059 46.6443 32.3887C46.6269 32.4856 46.6003 32.5805 46.5737 32.6752C46.5579 32.7313 46.44 33.0376 46.5678 32.7355C46.4929 32.9127 46.3935 33.0782 46.2875 33.2379C46.1094 33.5061 46.461 33.037 46.2517 33.2809C46.1689 33.3774 46.0761 33.4647 45.9824 33.5503C45.7449 33.7669 46.2019 33.3998 45.9394 33.586C45.8613 33.6415 45.7782 33.6896 45.6954 33.7375C45.612 33.7857 45.5244 33.8261 45.437 33.8664C45.7314 33.7308 45.4356 33.8536 45.3767 33.8722C45.2828 33.9018 45.1864 33.9223 45.0902 33.9428C44.7624 34.0127 45.3696 33.9215 45.0316 33.9489C44.9616 33.9546 44.8902 33.9556 44.8199 33.9556H22.13C22.0401 33.9556 22.0153 33.9533 21.9257 33.9489C21.587 33.9324 22.1968 34.002 21.8671 33.9428C21.7702 33.9254 21.6753 33.8988 21.5807 33.8722C21.5184 33.8536 21.4567 33.8331 21.3957 33.8106C21.5494 33.8799 21.5617 33.885 21.4327 33.826C21.2584 33.7457 21.0961 33.6415 20.94 33.5306C21.1995 33.7148 20.9506 33.528 20.9046 33.4859C20.8341 33.4217 20.7698 33.3511 20.7056 33.2809C20.4889 33.0434 20.856 33.5003 20.6698 33.2379C20.6144 33.1597 20.5663 33.0766 20.5183 32.9938C20.47 32.9105 20.4297 32.8228 20.3895 32.7354C20.5301 33.0408 20.3762 32.6486 20.3571 32.5808C20.3304 32.4855 20.3129 32.3881 20.2954 32.2909C20.3545 32.6196 20.3052 32.2941 20.302 32.2285C20.2999 32.186 20.3003 32.143 20.3003 32.1002V25.8592C20.3003 25.5176 20.302 25.1771 20.3231 24.8359C20.33 24.7243 20.3407 24.613 20.3514 24.5019C20.3556 24.4586 20.4045 24.0909 20.3607 24.4C20.3915 24.1824 20.4332 23.9664 20.4785 23.7514C20.5753 23.2919 20.7126 22.8416 20.8741 22.4009C20.911 22.3002 20.9513 22.2007 20.9914 22.1012C20.8787 22.3802 21.0166 22.0518 21.0341 22.0133C21.1225 21.8194 21.2203 21.6299 21.3211 21.4422C21.5383 21.0376 21.79 20.6523 22.0613 20.282C22.2698 19.9973 21.9005 20.481 22.1207 20.2057C22.1866 20.1232 22.2551 20.043 22.3237 19.9627C22.4607 19.8022 22.6052 19.6484 22.752 19.4971C22.8989 19.3457 23.0529 19.2013 23.2091 19.0596C23.2876 18.9891 23.3672 18.9199 23.448 18.852C23.4883 18.8176 23.8429 18.5388 23.603 18.722C23.7992 18.5722 24.0032 18.4331 24.21 18.2984C24.7905 17.9205 25.0303 17.177 24.6668 16.5565C24.3289 15.9797 23.507 15.7207 22.9249 16.0998C19.74 18.1736 17.7539 21.7125 17.7539 25.5295V31.1599C17.7539 32.2256 17.7799 33.2038 18.274 34.1946C18.9892 35.6285 20.5944 36.502 22.1666 36.502H44.8126C46.6621 36.502 48.273 35.3345 48.9326 33.6276C49.264 32.7698 49.2034 31.8409 49.2034 30.9396V25.5131C49.2034 23.5417 48.668 21.5914 47.6821 19.8866C46.7796 18.3258 45.4709 17.0179 43.9557 16.0511C43.37 15.6775 42.554 15.9269 42.2138 16.5078C41.8527 17.1241 42.0865 17.8772 42.6704 18.2497ZM60.2444 16.3512C60.2425 16.5524 60.2311 16.7535 60.21 16.9536C60.2455 16.6157 60.2069 16.9438 60.1956 17.0058C60.178 17.1021 60.155 17.1972 60.132 17.2923C60.0866 17.4805 60.0253 17.6646 59.9591 17.8463C59.8472 18.1536 60.0736 17.5989 59.9398 17.8961C59.8875 18.012 59.8279 18.1245 59.7673 18.2362C59.677 18.4031 59.573 18.5623 59.4651 18.7182C59.2817 18.9833 59.6369 18.5108 59.4351 18.7616C59.3759 18.8352 59.3127 18.9056 59.2496 18.9758C59.1235 19.1164 58.9861 19.2465 58.8457 19.3726C58.7753 19.4357 58.7017 19.4949 58.6281 19.5542C58.8923 19.3416 58.5565 19.5948 58.5017 19.6314C58.3434 19.7367 58.1768 19.8289 58.0081 19.9164C57.9232 19.9603 57.8361 19.9997 57.7489 20.0389C58.0498 19.9034 57.7523 20.0313 57.696 20.0519C57.5136 20.1184 57.326 20.1693 57.1375 20.2148C57.0421 20.2378 56.9455 20.2555 56.8491 20.2731C56.7045 20.2959 56.7193 20.2947 56.8936 20.2699C56.8275 20.2775 56.7612 20.2837 56.6949 20.2889C56.4933 20.3062 56.2905 20.3061 56.0884 20.3004C55.988 20.2975 55.8879 20.2889 55.7879 20.2803C55.4503 20.2513 56.0653 20.3273 55.7333 20.2731C55.5404 20.2417 55.3504 20.1939 55.1624 20.141C55.0694 20.1148 54.9779 20.0834 54.8865 20.0519C54.826 20.0305 54.7659 20.008 54.7063 19.9844C54.8624 20.0522 54.8757 20.0573 54.7462 19.9996C54.5725 19.9213 54.4055 19.8289 54.2415 19.7322C54.1598 19.684 54.0808 19.6314 54.0018 19.5789C53.9538 19.547 53.6959 19.3539 53.9543 19.5542C53.6306 19.3032 53.3444 19.0066 53.0881 18.688C53.2922 18.9417 53.097 18.6889 53.0634 18.6405C53.0094 18.5626 52.9597 18.4817 52.9101 18.4009C52.8103 18.2386 52.724 18.0684 52.6427 17.8962C52.5034 17.6014 52.7409 18.1516 52.6233 17.8464C52.5885 17.7564 52.5589 17.6645 52.5293 17.5727C52.4594 17.3559 52.41 17.1331 52.3691 16.9091C52.3087 16.5782 52.3974 17.1915 52.3619 16.8546C52.3514 16.7547 52.3467 16.6544 52.3419 16.5541C52.3323 16.3519 52.3399 16.1494 52.3534 15.9477C52.3575 15.8868 52.402 15.5514 52.3532 15.8908C52.3672 15.7934 52.3867 15.6969 52.4062 15.6006C52.4511 15.3784 52.5168 15.1609 52.5903 14.9467C52.6094 14.8912 52.7338 14.5891 52.6034 14.8937C52.641 14.8059 52.6835 14.7202 52.7258 14.6346C52.8102 14.4642 52.9085 14.3011 53.011 14.141C53.062 14.0612 53.1173 13.9843 53.1727 13.9075C52.9834 14.1706 53.1694 13.9147 53.2079 13.8685C53.3491 13.6993 53.5053 13.5431 53.6665 13.3931C53.7357 13.3287 53.8082 13.2681 53.8808 13.2077C53.9901 13.1202 53.9789 13.1286 53.8472 13.2329C53.8981 13.1956 53.9497 13.1592 54.0019 13.1238C54.1843 12.9976 54.3777 12.8882 54.5744 12.7862C54.6592 12.7422 54.7464 12.7029 54.8335 12.6637C54.5203 12.8048 54.9141 12.6412 54.9777 12.6193C55.2238 12.5349 55.4778 12.4762 55.7333 12.4295C56.0643 12.369 55.451 12.4578 55.7879 12.4223C55.9213 12.4083 56.0555 12.4032 56.1896 12.3993C56.4247 12.3926 56.66 12.4081 56.8937 12.4327C56.5557 12.3972 56.8839 12.4358 56.946 12.4471C57.0742 12.4705 57.2006 12.5024 57.3265 12.5353C57.4514 12.568 57.5739 12.6088 57.696 12.6506C57.7564 12.672 57.8165 12.6945 57.8761 12.7181C57.72 12.6503 57.7067 12.6453 57.8362 12.703C58.0388 12.7942 58.2326 12.9039 58.4218 13.0201C58.5025 13.0697 58.5805 13.1237 58.6584 13.1777C58.7714 13.2606 58.7612 13.2509 58.6281 13.1485C58.6775 13.1875 58.7263 13.2274 58.7743 13.2682C58.9435 13.4095 59.0996 13.5656 59.2496 13.7268C59.3355 13.8191 59.4154 13.9166 59.4943 14.0147C59.2817 13.7505 59.535 14.0862 59.5715 14.1411C59.6945 14.3259 59.8004 14.5215 59.899 14.7202C59.9254 14.7736 60.049 15.0724 59.9246 14.7666C59.9731 14.8857 60.0137 15.0077 60.0532 15.13C60.1231 15.3468 60.1725 15.5696 60.2133 15.7936C60.2361 15.9382 60.2349 15.9234 60.2101 15.749C60.2177 15.8152 60.2239 15.8814 60.2291 15.9478C60.2406 16.0818 60.2431 16.2166 60.2444 16.3512C60.251 17.0451 60.8185 17.6244 61.5175 17.6244C62.2066 17.6244 62.7973 17.0453 62.7907 16.3512C62.773 14.4967 61.9838 12.6874 60.5747 11.4675C59.0519 10.1492 57.1265 9.67465 55.1539 9.95809C53.3396 10.2188 51.7331 11.4168 50.7613 12.9356C49.7534 14.5104 49.5331 16.5724 50.1037 18.3415C50.5794 19.8159 51.5765 21.0498 52.8756 21.881C54.2368 22.7521 55.856 22.9703 57.4287 22.7442C60.5175 22.3003 62.7617 19.3893 62.7907 16.3512C62.7973 15.6572 62.2066 15.0781 61.5175 15.0781C60.8185 15.0781 60.251 15.6573 60.2444 16.3512Z" fill="url(#paint1_linear_653_90)"/>
<path d="M62.0771 22.5815C62.1654 22.6382 62.2529 22.6963 62.3393 22.7558C62.3751 22.7805 62.6515 22.9936 62.4166 22.8082C62.5808 22.9379 62.7354 23.0793 62.8863 23.2241C63.0371 23.369 63.1773 23.5247 63.3133 23.6834C63.3418 23.7167 63.553 23.9934 63.3736 23.7544C63.4575 23.8663 63.5351 23.9828 63.6116 24.0998C63.7268 24.2761 63.8288 24.4606 63.9262 24.6472C63.9751 24.7409 64.0193 24.837 64.0634 24.9331C63.9371 24.6584 64.0803 24.9796 64.0965 25.022C64.173 25.2222 64.2343 25.4278 64.2901 25.6346C64.3184 25.739 64.3413 25.8447 64.3642 25.9504C64.3764 26.0065 64.4479 26.4678 64.4071 26.1509C64.5263 27.074 64.4536 28.0457 64.4536 28.9733V31.2356C64.4536 31.3026 64.4503 31.3694 64.4438 31.4361C64.4692 31.261 64.4676 31.2448 64.4392 31.3875C64.4251 31.4506 64.3087 31.7444 64.4397 31.4449C64.4017 31.5317 64.3516 31.6128 64.3019 31.6932C64.1368 31.9605 64.4784 31.4991 64.2674 31.7305C64.2245 31.7776 63.9843 31.9722 64.2416 31.7781C64.166 31.835 64.083 31.8812 64.0005 31.9269C63.7236 32.0805 64.2545 31.8436 63.9512 31.943C63.8866 31.9642 63.5722 32.0144 63.9065 31.9733C63.8458 31.9808 63.7646 31.9831 63.7036 31.9831H52.3797C51.6857 31.9831 51.1066 32.5622 51.1066 33.2562C51.1066 33.9503 51.6857 34.5294 52.3797 34.5294H63.0582C63.9555 34.5294 64.8444 34.4917 65.602 33.92C66.4597 33.2728 67 32.3227 67 31.2293V27.1424C67 25.5405 66.5987 23.9762 65.6942 22.64C65.0776 21.7295 64.2868 20.9764 63.3625 20.383C62.7779 20.0077 61.9601 20.2602 61.6206 20.8397C61.2586 21.4572 61.4943 22.2073 62.0771 22.5815ZM14.6422 16.3512C14.6404 16.5524 14.6289 16.7535 14.6079 16.9536C14.6435 16.6157 14.6048 16.9439 14.5935 17.0058C14.5759 17.1021 14.5529 17.1973 14.53 17.2923C14.4845 17.4805 14.4232 17.6646 14.357 17.8463C14.2451 18.1536 14.4715 17.5989 14.3376 17.8961C14.2854 18.0121 14.2258 18.1245 14.1653 18.2362C14.0748 18.4031 13.9709 18.5623 13.863 18.7183C13.6796 18.9833 14.0348 18.5108 13.833 18.7616C13.7738 18.8353 13.7106 18.9056 13.6476 18.9758C13.5214 19.1164 13.3841 19.2465 13.2436 19.3726C13.1732 19.4357 13.0996 19.495 13.026 19.5542C13.2902 19.3416 12.9544 19.5949 12.8995 19.6314C12.7412 19.7367 12.5746 19.829 12.4059 19.9164C12.3211 19.9604 12.2339 19.9997 12.1468 20.0389C12.4476 19.9035 12.1503 20.0314 12.0938 20.052C11.9115 20.1184 11.7239 20.1693 11.5354 20.2148C11.4401 20.2378 11.3435 20.2555 11.2471 20.2731C11.1024 20.2959 11.1173 20.2947 11.2916 20.2699C11.2254 20.2775 11.1592 20.2837 11.0928 20.2889C10.8912 20.3062 10.6884 20.3061 10.4864 20.3004C10.386 20.2975 10.2859 20.2889 10.1858 20.2803C9.84826 20.2514 10.4632 20.3273 10.1313 20.2731C9.93832 20.2417 9.74844 20.194 9.56045 20.141C9.4674 20.1148 9.37588 20.0834 9.2845 20.052C9.22402 20.0306 9.16394 20.0081 9.1043 19.9844C9.26042 20.0522 9.27381 20.0573 9.14424 19.9996C8.97043 19.9214 8.80347 19.8289 8.63949 19.7322C8.55779 19.684 8.47878 19.6314 8.39992 19.5789C8.3519 19.547 8.09392 19.3539 8.35234 19.5543C8.02859 19.3033 7.74246 19.0066 7.48608 18.688C7.69022 18.9417 7.49503 18.6889 7.46149 18.6405C7.40751 18.5626 7.35782 18.4817 7.3082 18.4009C7.20839 18.2386 7.12211 18.0684 7.04077 17.8962C6.90145 17.6015 7.13898 18.1516 7.02134 17.8464C6.98664 17.7564 6.95703 17.6645 6.92742 17.5727C6.85751 17.3559 6.80811 17.1331 6.76722 16.9092C6.70677 16.5782 6.79552 17.1915 6.76002 16.8546C6.74954 16.7547 6.74474 16.6544 6.74001 16.5541C6.73034 16.3519 6.73805 16.1494 6.75151 15.9477C6.75558 15.8868 6.80011 15.5514 6.75136 15.8908C6.76533 15.7934 6.78483 15.697 6.8044 15.6006C6.84929 15.3784 6.91498 15.1609 6.98846 14.9467C7.00752 14.8912 7.132 14.5891 7.00148 14.8937C7.0391 14.8059 7.08158 14.7202 7.12392 14.6346C7.20839 14.4643 7.3066 14.3011 7.40896 14.141C7.46004 14.0612 7.5154 13.9843 7.57069 13.9075C7.38146 14.1706 7.56742 13.9147 7.60598 13.8685C7.74719 13.6993 7.90339 13.5431 8.0646 13.3931C8.13379 13.3287 8.20632 13.2681 8.27886 13.2077C8.38813 13.1202 8.37693 13.1286 8.24532 13.2329C8.29621 13.1956 8.34777 13.1592 8.39999 13.1238C8.58238 12.9976 8.77575 12.8882 8.97247 12.7862C9.0573 12.7422 9.14446 12.7029 9.23154 12.6637C8.91827 12.8048 9.31222 12.6412 9.37573 12.6193C9.62171 12.5349 9.87576 12.4762 10.1313 12.4295C10.4622 12.369 9.84898 12.4578 10.1859 12.4223C10.3193 12.4083 10.4535 12.4032 10.5876 12.3993C10.8227 12.3927 11.0579 12.4081 11.2916 12.4327C10.9537 12.3972 11.2819 12.4358 11.3439 12.4471C11.4721 12.4705 11.5985 12.5024 11.7245 12.5353C11.8494 12.568 11.9719 12.6088 12.094 12.6506C12.1544 12.672 12.2145 12.6945 12.2742 12.7181C12.118 12.6503 12.1046 12.6453 12.2342 12.703C12.4369 12.7942 12.6307 12.9039 12.8198 13.0201C12.9006 13.0698 12.9785 13.1237 13.0565 13.1777C13.1694 13.2607 13.1593 13.2509 13.0261 13.1485C13.0756 13.1875 13.1243 13.2274 13.1723 13.2682C13.3415 13.4095 13.4977 13.5656 13.6477 13.7268C13.7336 13.8191 13.8134 13.9166 13.8924 14.0147C13.6799 13.7505 13.9331 14.0862 13.9696 14.1411C14.0927 14.326 14.1986 14.5215 14.297 14.7202C14.3235 14.7736 14.447 15.0724 14.3227 14.7666C14.3712 14.8857 14.4117 15.0077 14.4512 15.13C14.5211 15.3468 14.5705 15.5696 14.6114 15.7936C14.6341 15.9382 14.6329 15.9234 14.6081 15.7491C14.6157 15.8152 14.622 15.8814 14.6271 15.9478C14.6384 16.0818 14.6409 16.2166 14.6422 16.3512C14.6488 17.0451 15.2164 17.6244 15.9154 17.6244C16.6044 17.6244 17.1952 17.0453 17.1885 16.3512C17.1709 14.4967 16.3816 12.6874 14.9727 11.4675C13.4498 10.1492 11.5243 9.67465 9.55172 9.95809C7.73758 10.2188 6.13108 11.4168 5.15919 12.9356C4.15136 14.5105 3.93107 16.5725 4.50174 18.3415C4.97739 19.8159 5.97445 21.0498 7.27357 21.8811C8.63476 22.7521 10.2539 22.9703 11.8266 22.7443C14.9154 22.3003 17.1597 19.3893 17.1886 16.3512C17.1952 15.6572 16.6045 15.0781 15.9155 15.0781C15.2163 15.0781 14.6488 15.6573 14.6422 16.3512ZM14.6248 31.9829H3.34717C3.24088 31.9829 2.92914 31.9357 3.24139 31.9897C3.14586 31.9732 3.05347 31.9429 2.96166 31.9128C3.25717 32.0096 2.98879 31.9184 2.92091 31.8808C2.86126 31.8477 2.62809 31.6571 2.87275 31.8601C2.81622 31.8132 2.55461 31.5046 2.7557 31.7709C2.69866 31.6954 2.65261 31.6124 2.60685 31.5299C2.45327 31.253 2.69015 31.7838 2.59077 31.4806C2.5696 31.416 2.51933 31.1015 2.5605 31.4359C2.55352 31.3791 2.55068 31.2908 2.55068 31.2339V26.9284C2.55068 26.7034 2.56414 26.4794 2.58546 26.2556C2.62045 25.888 2.54093 26.518 2.60073 26.1563C2.61856 26.0483 2.64191 25.9414 2.66527 25.8344C2.71154 25.6228 2.77388 25.4148 2.84132 25.2092C2.87479 25.1071 2.91342 25.0069 2.95198 24.9066C2.84278 25.1903 3.01564 24.7734 3.04001 24.723C3.13248 24.5319 3.23913 24.3481 3.35 24.1672C3.4053 24.0772 3.46495 23.9898 3.52461 23.9025C3.54833 23.8677 3.76105 23.5878 3.57764 23.8217C3.85948 23.4623 4.18723 23.1407 4.53775 22.8488C4.80758 22.624 4.33077 22.9982 4.61494 22.7913C4.70035 22.7292 4.78881 22.6712 4.87713 22.6133C5.45638 22.2338 5.69814 21.4932 5.33387 20.8714C4.99674 20.296 4.17304 20.0339 3.59198 20.4148C1.91032 21.5167 0.674707 23.1909 0.209824 25.1576C-0.0473532 26.2453 0.00422771 27.3647 0.00422771 28.4725V31.2212C0.00422771 33.0475 1.52066 34.5293 3.33684 34.5293H14.6245C15.3186 34.5293 15.8977 33.9502 15.8977 33.2561C15.8977 32.562 15.3187 31.9829 14.6248 31.9829Z" fill="url(#paint2_linear_653_90)"/>
<defs>
<linearGradient id="paint0_linear_653_90" x1="14.9232" y1="-12.4681" x2="44.7401" y2="-0.872053" gradientUnits="userSpaceOnUse">
<stop stop-color="#BE1687"/>
<stop offset="1" stop-color="#661E78"/>
</linearGradient>
<linearGradient id="paint1_linear_653_90" x1="-4.76451" y1="-7.9899" x2="53.3048" y2="30.191" gradientUnits="userSpaceOnUse">
<stop stop-color="#BE1687"/>
<stop offset="1" stop-color="#661E78"/>
</linearGradient>
<linearGradient id="paint2_linear_653_90" x1="-33.5" y1="-6.6659" x2="24.9747" y2="55.1084" gradientUnits="userSpaceOnUse">
<stop stop-color="#BE1687"/>
<stop offset="1" stop-color="#661E78"/>
</linearGradient>
</defs>
</svg>
