<svg width="66" height="66" viewBox="0 0 66 66" fill="none" xmlns="http://www.w3.org/2000/svg">
<path d="M46.4488 23.0335L44.9831 24.4987C46.9755 27.5573 47.7642 31.2454 47.197 34.8513C46.6299 38.4572 44.747 41.7252 41.912 44.0244C39.0769 46.3236 35.4906 47.4911 31.8453 47.3016C28.2 47.112 24.7542 45.5787 22.1729 42.9978C19.5917 40.4168 18.058 36.9712 17.868 33.3259C17.678 29.6806 18.845 26.0942 21.1439 23.2588C23.4429 20.4235 26.7106 18.5403 30.3164 17.9727C33.9222 17.4051 37.6105 18.1934 40.6693 20.1854L42.135 18.7197C38.6832 16.3442 34.4683 15.3444 30.3173 15.9167C26.1664 16.4889 22.3791 18.5918 19.6988 21.8127C17.0186 25.0336 15.6388 29.1398 15.8302 33.3257C16.0216 37.5115 17.7705 41.4747 20.7336 44.4374C23.6967 47.4001 27.6601 49.1486 31.846 49.3395C36.0318 49.5305 40.1379 48.1502 43.3584 45.4695C46.579 42.7888 48.6814 39.0014 49.2532 34.8504C49.825 30.6993 48.8247 26.4845 46.4488 23.033V23.0335ZM40.8548 10.6349C40.9804 10.6848 41.1147 10.7092 41.2498 10.7065C41.3849 10.7039 41.5182 10.6744 41.6417 10.6197C41.7653 10.565 41.8767 10.4862 41.9695 10.3879C42.0622 10.2897 42.1345 10.1739 42.182 10.0474C42.2295 9.92088 42.2513 9.78617 42.2462 9.65113C42.241 9.51609 42.209 9.38344 42.152 9.26092C42.095 9.1384 42.0141 9.02847 41.9141 8.93757C41.8141 8.84666 41.697 8.77659 41.5697 8.73147C39.6501 8.01102 37.6501 7.52651 35.6136 7.2886C35.481 7.27311 35.3466 7.2839 35.2182 7.32034C35.0897 7.35679 34.9697 7.41818 34.865 7.50101C34.7602 7.58384 34.6728 7.68649 34.6078 7.80309C34.5427 7.9197 34.5012 8.04798 34.4857 8.18061C34.4703 8.31323 34.481 8.44761 34.5175 8.57608C34.5539 8.70454 34.6153 8.82456 34.6981 8.9293C34.781 9.03403 34.8836 9.12143 35.0002 9.18649C35.1168 9.25156 35.2451 9.29302 35.3777 9.30851C37.2504 9.52754 39.0896 9.9726 40.8548 10.6349ZM8.22873 31.5697H8.22721C8.09368 31.5699 7.96149 31.5964 7.8382 31.6477C7.71491 31.6989 7.60293 31.774 7.50866 31.8686C7.41438 31.9631 7.33965 32.0753 7.28873 32.1988C7.23782 32.3222 7.21171 32.4545 7.21192 32.588C7.21512 34.6367 7.46502 36.6776 7.95623 38.6665C8.0224 38.9268 8.18882 39.1503 8.41916 39.2882C8.6495 39.4262 8.92506 39.4675 9.18571 39.403C9.44637 39.3386 9.67096 39.1737 9.81046 38.9443C9.94997 38.7148 9.99308 38.4396 9.93038 38.1785C9.47834 36.3477 9.24841 34.4692 9.24555 32.5834C9.24501 32.3141 9.13764 32.056 8.94701 31.8658C8.75638 31.6755 8.49806 31.5687 8.22873 31.5687V31.5697ZM11.4642 20.344C11.2252 20.2195 10.9466 20.1947 10.6894 20.2753C10.4322 20.3558 10.2174 20.535 10.092 20.7736C9.14181 22.5905 8.41623 24.5163 7.93131 26.5085C7.89977 26.6382 7.89409 26.7729 7.9146 26.9049C7.93511 27.0368 7.98141 27.1635 8.05086 27.2775C8.19111 27.5079 8.41712 27.6731 8.67918 27.7368C8.94124 27.8005 9.21788 27.7575 9.44823 27.6172C9.67858 27.477 9.84379 27.251 9.9075 26.9889C10.3533 25.1573 11.0203 23.3867 11.8938 21.7162C11.9558 21.5979 11.9938 21.4685 12.0058 21.3355C12.0177 21.2024 12.0033 21.0683 11.9634 20.9409C11.9235 20.8134 11.8589 20.695 11.7733 20.5925C11.6876 20.49 11.5826 20.4059 11.4642 20.344ZM23.9106 10.7554C24.0347 10.7553 24.1577 10.7324 24.2736 10.6878C26.0338 10.0143 27.8694 9.55749 29.74 9.32732C29.8725 9.31096 30.0005 9.26866 30.1167 9.20283C30.2329 9.137 30.335 9.04894 30.4171 8.94366C30.4993 8.83838 30.5599 8.71795 30.5955 8.58925C30.6311 8.46055 30.641 8.3261 30.6246 8.19357C30.6083 8.06104 30.566 7.93303 30.5001 7.81685C30.4343 7.70067 30.3463 7.59859 30.241 7.51645C30.1357 7.4343 30.0153 7.3737 29.8866 7.33809C29.7579 7.30249 29.6234 7.29258 29.4909 7.30894C27.4571 7.55978 25.4612 8.05657 23.5471 8.78841C23.3251 8.87331 23.1399 9.03329 23.0236 9.24055C22.9073 9.4478 22.8673 9.68925 22.9105 9.92294C22.9537 10.1566 23.0774 10.3678 23.2601 10.5198C23.4428 10.6718 23.6729 10.7555 23.9106 10.7554ZM46.8688 13.9864L48.3188 12.5364C47.8904 12.1987 47.4512 11.8748 47.002 11.5653C46.8921 11.4861 46.7674 11.4296 46.6354 11.3992C46.5033 11.3688 46.3665 11.3651 46.233 11.3883C46.0995 11.4115 45.9719 11.4612 45.8579 11.5344C45.7439 11.6077 45.6456 11.7029 45.5689 11.8147C45.4922 11.9264 45.4387 12.0523 45.4113 12.1851C45.384 12.3178 45.3835 12.4547 45.4098 12.5876C45.4361 12.7205 45.4888 12.8469 45.5646 12.9592C45.6405 13.0715 45.738 13.1675 45.8515 13.2416C46.1982 13.4795 46.5358 13.7296 46.8688 13.9864ZM55.0999 20.6364C54.9717 20.4015 54.756 20.2267 54.4998 20.1498C54.2435 20.0729 53.9672 20.1001 53.7309 20.2256C53.4945 20.351 53.3171 20.5645 53.2372 20.8199C53.1572 21.0752 53.1811 21.3518 53.3037 21.5896C54.1871 23.2544 54.8648 25.0203 55.3221 26.8486C55.3874 27.1103 55.5539 27.3354 55.7851 27.4743C56.0163 27.6132 56.2933 27.6546 56.555 27.5893C56.8167 27.5241 57.0418 27.3575 57.1807 27.1263C57.3196 26.8951 57.361 26.6182 57.2957 26.3565C56.7983 24.3678 56.061 22.447 55.0999 20.6364ZM56.0913 39.361C56.3531 39.4252 56.6296 39.3827 56.8601 39.2431C57.0907 39.1034 57.2563 38.8779 57.3207 38.6162C57.8078 36.6261 58.0536 34.5845 58.0528 32.5357V32.4274C58.0509 32.1589 57.9429 31.9021 57.7524 31.713C57.562 31.5238 57.3044 31.4177 57.0359 31.4177H57.0278C56.8943 31.4187 56.7623 31.4461 56.6393 31.4982C56.5163 31.5503 56.4049 31.626 56.3112 31.7212C56.2175 31.8164 56.1435 31.9291 56.0934 32.0529C56.0433 32.1766 56.0181 32.3091 56.0191 32.4426V32.5362C56.02 34.4213 55.794 36.2996 55.346 38.1307C55.3141 38.2604 55.3081 38.3952 55.3283 38.5272C55.3485 38.6593 55.3945 38.786 55.4637 38.9003C55.5329 39.0146 55.624 39.1141 55.7317 39.1931C55.8394 39.2722 55.9616 39.3292 56.0913 39.361ZM45.9287 51.7784C44.3795 52.8509 42.7062 53.7321 40.9453 54.4028C40.8182 54.4485 40.7015 54.5191 40.602 54.6105C40.5025 54.7018 40.4221 54.8121 40.3657 54.9348C40.3093 55.0575 40.2779 55.1903 40.2733 55.3253C40.2688 55.4603 40.2911 55.5949 40.3392 55.7211C40.3872 55.8474 40.4599 55.9628 40.5531 56.0606C40.6462 56.1585 40.7579 56.2368 40.8816 56.291C41.0054 56.3452 41.1387 56.3742 41.2737 56.3763C41.4088 56.3784 41.5429 56.3535 41.6683 56.3032C43.5826 55.5744 45.4017 54.6166 47.0859 53.4506C47.1974 53.3753 47.293 53.2787 47.3669 53.1663C47.4408 53.0538 47.4917 52.9279 47.5166 52.7956C47.5415 52.6634 47.5399 52.5275 47.5119 52.3959C47.4839 52.2643 47.4301 52.1396 47.3535 52.0289C47.2769 51.9183 47.1791 51.8239 47.0658 51.7513C46.9525 51.6788 46.826 51.6294 46.6934 51.6061C46.5609 51.5828 46.4251 51.586 46.2938 51.6156C46.1626 51.6452 46.0385 51.7005 45.9287 51.7784ZM35.4764 55.7516C33.604 55.9762 31.7116 55.9784 29.8386 55.7582C29.5708 55.7265 29.3013 55.8026 29.0895 55.9695C28.8777 56.1365 28.7409 56.3808 28.7092 56.6487C28.6775 56.9166 28.7535 57.186 28.9205 57.3978C29.0875 57.6096 29.3318 57.7464 29.5997 57.7781C31.6332 58.0188 33.6881 58.0163 35.7209 57.7705C35.9838 57.7325 36.2213 57.5931 36.3827 57.3823C36.5442 57.1714 36.6167 56.9058 36.5848 56.6421C36.553 56.3785 36.4192 56.1377 36.2121 55.9714C36.0051 55.8051 35.7412 55.7264 35.4769 55.7521L35.4764 55.7516ZM53.3479 43.4003C52.4702 45.0694 51.3944 46.6265 50.144 48.038C49.9652 48.24 49.8739 48.5046 49.8903 48.7738C49.9066 49.0431 50.0292 49.2947 50.2312 49.4735C50.4331 49.6523 50.6978 49.7436 50.967 49.7272C51.2362 49.7109 51.4879 49.5883 51.6666 49.3863C53.0253 47.8523 54.1943 46.1601 55.1482 44.3465C55.268 44.1084 55.2896 43.8328 55.2082 43.579C55.1268 43.3252 54.949 43.1134 54.7131 42.9894C54.4771 42.8654 54.2019 42.839 53.9467 42.9158C53.6915 42.9927 53.4762 43.1667 53.3479 43.4003ZM19.373 51.8043C19.1509 51.6558 18.8793 51.6007 18.6169 51.6509C18.3545 51.7011 18.1224 51.8526 17.9708 52.0725C17.8191 52.2925 17.7602 52.5633 17.8066 52.8264C17.853 53.0895 18.0012 53.3238 18.219 53.4785C19.9064 54.642 21.7286 55.5968 23.6457 56.322C23.898 56.4174 24.1778 56.4086 24.4236 56.2976C24.6694 56.1866 24.8611 55.9825 24.9564 55.7303C25.0517 55.478 25.0429 55.1982 24.9319 54.9524C24.821 54.7066 24.6169 54.5149 24.3646 54.4196C22.6013 53.7526 20.9252 52.8744 19.373 51.8043ZM13.6301 49.4224C13.8093 49.624 14.0612 49.7462 14.3305 49.762C14.5997 49.7778 14.8642 49.686 15.0658 49.5068C15.2674 49.3276 15.3895 49.0757 15.4054 48.8064C15.4212 48.5372 15.3294 48.2727 15.1502 48.0711C13.8974 46.6627 12.8189 45.1085 11.9381 43.442C11.8121 43.2036 11.5965 43.0249 11.3388 42.9454C11.0811 42.8659 10.8023 42.892 10.5639 43.018C10.3254 43.144 10.1468 43.3596 10.0672 43.6173C9.98772 43.875 10.0138 44.1538 10.1398 44.3922C11.0971 46.203 12.269 47.8919 13.6301 49.4224ZM19.2963 13.3219C19.4085 13.2468 19.5047 13.15 19.5792 13.0373C19.6536 12.9246 19.7049 12.7982 19.73 12.6655C19.755 12.5327 19.7534 12.3963 19.7251 12.2642C19.6969 12.1321 19.6426 12.007 19.5655 11.8961C19.4883 11.7852 19.3899 11.6908 19.2758 11.6184C19.1618 11.546 19.0345 11.497 18.9013 11.4744C18.7682 11.4517 18.6318 11.4558 18.5002 11.4865C18.3687 11.5171 18.2445 11.5736 18.1351 11.6528C16.4536 12.8228 14.9187 14.1906 13.5635 15.7267C13.4724 15.8263 13.4022 15.9432 13.3568 16.0703C13.3113 16.1974 13.2917 16.3323 13.299 16.4671C13.3062 16.6019 13.3403 16.7339 13.3991 16.8554C13.4579 16.9769 13.5404 17.0855 13.6416 17.1748C13.7428 17.2641 13.8608 17.3324 13.9887 17.3756C14.1166 17.4188 14.2518 17.4362 14.3865 17.4266C14.5211 17.417 14.6525 17.3807 14.773 17.3198C14.8935 17.2589 15.0006 17.1746 15.0882 17.0719C16.3359 15.6581 17.7487 14.3991 19.2963 13.3219Z" fill="url(#paint0_linear_549_268)"/>
<path d="M59.4165 14.1063C59.3743 14.119 59.3337 14.1338 59.291 14.1444L57.3031 14.6417C61.8172 20.8623 63.8208 28.5558 62.9143 36.1881C62.0077 43.8204 58.2576 50.8306 52.4119 55.8206C46.5661 60.8107 39.0543 63.414 31.3743 63.1114C23.6943 62.8088 16.4106 59.6225 10.9756 54.1879C5.54059 48.7533 2.35375 41.4698 2.05055 33.7899C1.74735 26.1099 4.35009 18.5979 9.33972 12.7517C14.3294 6.9056 21.3392 3.155 28.9715 2.24788C36.6037 1.34075 44.2974 3.34375 50.5183 7.85744L51.0151 5.86956C51.0257 5.82685 51.041 5.78618 51.0537 5.74398C44.3597 1.13587 36.1851 -0.80409 28.1344 0.304824C20.0836 1.41374 12.7379 5.49146 7.539 11.7377C2.34007 17.984 -0.336734 25.9477 0.0339324 34.066C0.404599 42.1843 3.79597 49.871 9.54247 55.6175C15.289 61.364 22.9757 64.7554 31.094 65.1261C39.2123 65.4967 47.1761 62.8199 53.4223 57.621C59.6685 52.4221 63.7463 45.0764 64.8552 37.0256C65.9641 28.9749 64.0241 20.8003 59.416 14.1063H59.4165Z" fill="url(#paint1_linear_549_268)"/>
<path d="M33.1894 28.0467C32.9307 27.7932 32.6099 27.6121 32.2591 27.5214C31.9084 27.4308 31.5401 27.4338 31.1909 27.5301C30.842 27.6301 30.5263 27.8217 30.2764 28.0849C30.0265 28.3481 29.8516 28.6733 29.7699 29.0269C29.7699 29.0269 28.598 34.1054 28.5965 34.111C28.5327 34.4086 28.5357 34.7167 28.6053 35.0131C28.6748 35.3094 28.8092 35.5867 28.9987 35.8249C29.1882 36.0631 29.4281 36.2564 29.7012 36.3908C29.9744 36.5252 30.2739 36.5974 30.5782 36.6022C31.5432 36.6022 35.2068 35.5874 36.1199 35.3769C36.4736 35.2952 36.7989 35.1204 37.0622 34.8705C37.3255 34.6206 37.5171 34.3048 37.6171 33.9558C37.7171 33.6069 37.7219 33.2376 37.631 32.8861C37.5401 32.5347 37.3568 32.214 37.1001 31.9574L35.8636 30.7204L52.9594 13.6252L58.7867 12.1686C59.0484 12.1032 59.2734 11.9365 59.4121 11.7053C59.5509 11.474 59.5921 11.1971 59.5267 10.9354C59.4613 10.6738 59.2947 10.4488 59.0634 10.31C58.8322 10.1713 58.5552 10.13 58.2936 10.1954L55.7541 10.8299L58.5519 8.03266L64.3792 6.57607C64.6409 6.51067 64.8658 6.34401 65.0046 6.11275C65.1434 5.88149 65.1846 5.60458 65.1192 5.34292C65.0538 5.08127 64.8872 4.85631 64.6559 4.71754C64.4246 4.57876 64.1477 4.53754 63.8861 4.60293L59.4294 5.71686L60.5438 1.26065C60.604 1.00089 60.5598 0.727853 60.4207 0.500379C60.2815 0.272906 60.0586 0.109197 59.7999 0.0445226C59.5412 -0.0201516 59.2674 0.0193853 59.0376 0.154615C58.8078 0.289845 58.6403 0.509945 58.5712 0.767496L57.1136 6.59539L54.3163 9.39265L54.9513 6.85315C55.0128 6.59296 54.9694 6.31901 54.8303 6.09062C54.6913 5.86223 54.468 5.69778 54.2086 5.63287C53.9492 5.56797 53.6748 5.60782 53.4446 5.74382C53.2144 5.87981 53.047 6.101 52.9787 6.35949L51.5211 12.1874L34.4259 29.2826L33.1894 28.0467ZM30.5782 34.5691L31.7511 29.485L35.6623 33.3957L30.5782 34.5691Z" fill="url(#paint2_linear_549_268)"/>
<defs>
<linearGradient id="paint0_linear_549_268" x1="32.6323" y1="7.28174" x2="-72.4142" y2="114.17" gradientUnits="userSpaceOnUse">
<stop stop-color="#0C7D03"/>
<stop offset="1" stop-color="#16940B" stop-opacity="0"/>
</linearGradient>
<linearGradient id="paint1_linear_549_268" x1="32.58" y1="-3.01927e-06" x2="-102.5" y2="137" gradientUnits="userSpaceOnUse">
<stop stop-color="#0C7D03"/>
<stop offset="1" stop-color="#16940B" stop-opacity="0"/>
</linearGradient>
<linearGradient id="paint2_linear_549_268" x1="46.8502" y1="0.0141585" x2="-28.9984" y2="76.9634" gradientUnits="userSpaceOnUse">
<stop stop-color="#0C7D03"/>
<stop offset="1" stop-color="#16940B" stop-opacity="0"/>
</linearGradient>
</defs>
</svg>
