<svg width="59" height="60" viewBox="0 0 59 60" fill="none" xmlns="http://www.w3.org/2000/svg">
<path d="M54.9447 30.344L56.0624 27.8979C56.1173 27.7777 56.1457 27.647 56.1457 27.5149L56.1447 22.4063C55.8557 15.4398 53.0118 9.57678 47.9198 5.45108C43.1223 1.6587 37.1133 -0.267192 31.005 0.0298828C30.9839 0.028984 20.0271 0.0103022 19.8205 0.0103022C15.9899 0.0413533 12.2491 1.17277 9.04338 3.2698C5.83771 5.36683 3.30234 8.34108 1.73926 11.8383C0.176175 15.3356 -0.348746 19.2084 0.227014 22.9955C0.802775 26.7826 2.45495 30.3245 4.98676 33.1992C5.44975 33.7242 5.91255 34.2236 6.36009 34.7066C8.6075 37.1318 10.3847 39.0496 10.5587 42.2721V45.1822C10.5587 45.6712 10.753 46.1401 11.0988 46.4859C11.4445 46.8317 11.9135 47.0259 12.4025 47.0259H27.2226C27.3632 47.0248 27.5031 47.0075 27.6397 46.9744C30.2874 54.9974 44.1369 59.0103 47.6678 59.0103C48.5019 59.0096 49.3204 58.7842 50.0373 58.3578C50.7593 57.925 51.3567 57.3122 51.771 56.5794C52.1853 55.8466 52.4023 55.0188 52.401 54.177V52.2531L53.926 51.0461C54.1117 50.8992 54.2337 50.6864 54.2668 50.452C54.2999 50.2176 54.2415 49.9794 54.1038 49.7868L52.9461 48.1679L54.7876 47.5281C55.0172 47.4483 55.206 47.2812 55.3129 47.063C55.4199 46.8448 55.4364 46.5932 55.3588 46.3629L54.382 43.464H57.0581C57.3714 43.4632 57.6799 43.3863 57.957 43.2399C58.2341 43.0936 58.4715 42.8822 58.6489 42.6239C58.8313 42.3592 58.9468 42.0542 58.9855 41.7351C59.0242 41.416 58.985 41.0922 58.8712 40.7916L54.9447 30.344ZM27.2384 42.2247H27.2226V45.1822H12.4025V42.2246C12.1727 37.5696 9.20208 35.1918 6.36964 31.9797C4.0725 29.3712 2.57322 26.1575 2.05024 22.7212C1.52726 19.285 2.0026 15.7708 3.41969 12.5969C4.83679 9.42308 7.13595 6.72322 10.0436 4.81867C12.9512 2.91413 16.3448 1.8851 19.8205 1.85405C20.0082 1.85405 20.1976 1.85698 20.3867 1.86281C23.8122 2.00045 27.1286 3.10593 29.9515 5.05114C32.7745 6.99635 34.9885 9.70167 36.337 12.8536C37.6854 16.0055 38.1131 19.4751 37.5706 22.8601C37.028 26.2452 35.5373 29.4072 33.2713 31.9798C30.5201 35.0996 27.4601 37.7331 27.2384 42.2247ZM57.131 41.5766C57.1239 41.5898 57.1134 41.6008 57.1006 41.6085C57.0877 41.6162 57.073 41.6203 57.0581 41.6203H53.0987C52.9523 41.6203 52.8081 41.6552 52.6779 41.722C52.5478 41.7887 52.4353 41.8856 52.35 42.0044C52.2646 42.1232 52.2087 42.2607 52.187 42.4054C52.1653 42.5501 52.1783 42.6979 52.2249 42.8365L53.3197 46.0861L51.1766 46.8308C51.0412 46.8778 50.9186 46.9557 50.8186 47.0584C50.7185 47.1611 50.6438 47.2857 50.6004 47.4223C50.557 47.5589 50.546 47.7037 50.5683 47.8453C50.5907 47.9869 50.6457 48.1213 50.7291 48.2379L52.0931 50.1451L50.907 51.0841C50.7979 51.1704 50.7098 51.2803 50.6492 51.4055C50.5886 51.5307 50.5572 51.668 50.5572 51.807V54.177C50.5592 54.6988 50.4258 55.2122 50.1699 55.667C49.914 56.1218 49.5445 56.5024 49.0974 56.7716C48.665 57.0293 48.1711 57.1657 47.6678 57.1666C43.8884 57.1666 29.634 52.5081 29.0664 44.7366V42.4654C29.0729 42.4161 29.0775 42.3662 29.08 42.3156C29.2373 39.1282 31.1872 37.0002 33.445 34.5361C33.841 34.1039 34.2506 33.657 34.6542 33.1993C36.7034 30.871 38.1833 28.0981 38.9768 25.0996C39.7703 22.1012 39.8557 18.9592 39.2264 15.9221C38.597 12.8849 37.2701 10.0357 35.3503 7.59948C33.4306 5.16326 30.9707 3.20678 28.165 1.88458C29.2828 1.8855 31.0212 1.87588 31.0627 1.87183C42.1666 1.45636 53.7176 8.39112 54.3019 22.4445V27.3143L53.1081 29.9265C53.0577 30.037 53.0296 30.1563 53.0254 30.2777C53.0212 30.3991 53.0411 30.5201 53.0838 30.6338L57.1463 41.4429C57.1553 41.4647 57.1587 41.4884 57.156 41.5118C57.1533 41.5351 57.1447 41.5575 57.131 41.5766Z" fill="#BE1687"/>
<path d="M27.1953 49.7925C27.1953 49.548 27.0981 49.3135 26.9252 49.1406C26.7524 48.9677 26.5179 48.8706 26.2734 48.8706H13.3671C13.1226 48.8706 12.8881 48.9677 12.7152 49.1406C12.5423 49.3135 12.4452 49.548 12.4452 49.7925C12.4452 50.037 12.5423 50.2715 12.7152 50.4443C12.8881 50.6172 13.1226 50.7144 13.3671 50.7144H26.2734C26.5179 50.7143 26.7524 50.6172 26.9252 50.4443C27.0981 50.2715 27.1953 50.037 27.1953 49.7925ZM15.2108 52.5581C14.9663 52.5581 14.7319 52.6552 14.559 52.8281C14.3861 53.001 14.289 53.2355 14.289 53.48C14.289 53.7245 14.3861 53.959 14.559 54.1318C14.7319 54.3047 14.9663 54.4019 15.2108 54.4019H24.4296C24.6741 54.4019 24.9086 54.3047 25.0815 54.1318C25.2544 53.959 25.3515 53.7245 25.3515 53.48C25.3515 53.2355 25.2544 53.001 25.0815 52.8281C24.9086 52.6552 24.6741 52.5581 24.4296 52.5581H15.2108ZM19.8202 6.00342C17.0853 6.00343 14.4118 6.81445 12.1378 8.33392C9.86375 9.85338 8.09138 12.013 7.04477 14.5398C5.99817 17.0666 5.72434 19.8469 6.25791 22.5293C6.79148 25.2117 8.10849 27.6756 10.0424 29.6095C11.9763 31.5434 14.4402 32.8604 17.1226 33.394C19.805 33.9275 22.5854 33.6537 25.1121 32.6071C27.6389 31.5604 29.7985 29.788 31.318 27.514C32.8374 25.24 33.6484 22.5665 33.6484 19.8315C33.6443 16.1654 32.186 12.6505 29.5936 10.0582C27.0013 7.46578 23.4864 6.00757 19.8202 6.00342ZM19.8202 31.8159C17.45 31.8159 15.1329 31.113 13.1621 29.7962C11.1913 28.4793 9.65522 26.6076 8.74816 24.4177C7.8411 22.2279 7.60377 19.8182 8.0662 17.4935C8.52863 15.1687 9.67003 13.0333 11.3461 11.3573C13.0221 9.68125 15.1575 8.53986 17.4823 8.07744C19.807 7.61503 22.2167 7.85236 24.4065 8.75943C26.5964 9.6665 28.4681 11.2026 29.7849 13.1734C31.1018 15.1442 31.8047 17.4613 31.8047 19.8315C31.8011 23.0089 30.5373 26.0551 28.2906 28.3019C26.0438 30.5486 22.9976 31.8124 19.8202 31.8159Z" fill="#BE1687"/>
<path d="M29.0391 18.9097C28.7946 18.9097 28.5601 19.0068 28.3872 19.1797C28.2143 19.3526 28.1172 19.587 28.1172 19.8315C28.1172 21.4725 27.6306 23.0767 26.7189 24.4411C25.8073 25.8055 24.5115 26.869 22.9954 27.4969C21.4793 28.1249 19.8111 28.2892 18.2016 27.9691C16.5922 27.649 15.1138 26.8588 13.9535 25.6984C12.7931 24.5381 12.0029 23.0597 11.6828 21.4503C11.3626 19.8408 11.5269 18.1726 12.1549 16.6565C12.7829 15.1404 13.8463 13.8446 15.2107 12.933C16.5752 12.0213 18.1793 11.5347 19.8203 11.5347C20.0648 11.5347 20.2992 11.4375 20.4721 11.2647C20.645 11.0918 20.7421 10.8573 20.7421 10.6128C20.7421 10.3683 20.645 10.1338 20.4721 9.96093C20.2992 9.78804 20.0648 9.69092 19.8203 9.69092C17.8146 9.69093 15.8541 10.2857 14.1864 11.3999C12.5188 12.5142 11.2191 14.098 10.4516 15.9509C9.68407 17.8039 9.48326 19.8428 9.87455 21.8099C10.2658 23.777 11.2316 25.5839 12.6498 27.0021C14.068 28.4203 15.8749 29.386 17.842 29.7773C19.8091 30.1686 21.848 29.9678 23.701 29.2003C25.5539 28.4327 27.1377 27.133 28.2519 25.4654C29.3662 23.7978 29.9609 21.8372 29.9609 19.8315C29.9609 19.587 29.8638 19.3526 29.6909 19.1797C29.518 19.0068 29.2836 18.9097 29.0391 18.9097Z" fill="#BE1687"/>
<path d="M13.3672 19.8318C13.3672 21.1081 13.7456 22.3558 14.4547 23.417C15.1638 24.4782 16.1716 25.3053 17.3508 25.7938C18.53 26.2822 19.8275 26.41 21.0793 26.161C22.3311 25.912 23.4809 25.2974 24.3834 24.3949C25.2859 23.4924 25.9005 22.3426 26.1495 21.0908C26.3985 19.839 26.2707 18.5415 25.7823 17.3623C25.2939 16.1832 24.4668 15.1753 23.4056 14.4662C22.3443 13.7571 21.0967 13.3787 19.8204 13.3787C18.1095 13.3806 16.4692 14.0611 15.2594 15.2708C14.0496 16.4806 13.3691 18.1209 13.3672 19.8318ZM24.4298 19.8318C24.4298 20.7434 24.1594 21.6346 23.653 22.3926C23.1465 23.1507 22.4266 23.7415 21.5843 24.0903C20.7421 24.4392 19.8153 24.5305 18.9211 24.3527C18.027 24.1748 17.2057 23.7358 16.561 23.0912C15.9164 22.4465 15.4774 21.6252 15.2995 20.7311C15.1217 19.8369 15.213 18.9101 15.5618 18.0679C15.9107 17.2256 16.5015 16.5057 17.2595 15.9992C18.0175 15.4927 18.9087 15.2224 19.8204 15.2224C21.0424 15.2238 22.214 15.7099 23.0782 16.574C23.9423 17.4381 24.4284 18.6097 24.4298 19.8318Z" fill="#BE1687"/>
<path d="M17.0547 19.8318C17.0547 20.0763 17.1518 20.3108 17.3247 20.4837C17.4976 20.6565 17.7321 20.7537 17.9766 20.7537C18.2211 20.7537 18.4555 20.6565 18.6284 20.4837C18.8013 20.3108 18.8984 20.0763 18.8984 19.8318C18.8984 19.6495 18.9525 19.4712 19.0538 19.3196C19.1551 19.168 19.2991 19.0499 19.4675 18.9801C19.636 18.9103 19.8213 18.8921 20.0002 18.9276C20.179 18.9632 20.3432 19.051 20.4722 19.1799C20.6011 19.3088 20.6889 19.4731 20.7245 19.6519C20.76 19.8307 20.7418 20.0161 20.672 20.1846C20.6023 20.353 20.4841 20.497 20.3325 20.5983C20.1809 20.6996 20.0027 20.7537 19.8203 20.7537C19.5758 20.7537 19.3414 20.8508 19.1685 21.0237C18.9956 21.1966 18.8985 21.431 18.8985 21.6755C18.8985 21.92 18.9956 22.1545 19.1685 22.3274C19.3414 22.5003 19.5758 22.5974 19.8203 22.5974C20.3673 22.5974 20.902 22.4352 21.3568 22.1313C21.8116 21.8274 22.1661 21.3955 22.3754 20.8901C22.5847 20.3848 22.6395 19.8287 22.5328 19.2922C22.4261 18.7557 22.1627 18.263 21.7759 17.8762C21.3891 17.4894 20.8963 17.226 20.3598 17.1193C19.8234 17.0126 19.2673 17.0674 18.7619 17.2767C18.2566 17.486 17.8247 17.8405 17.5208 18.2953C17.2169 18.7501 17.0547 19.2848 17.0547 19.8318Z" fill="#BE1687"/>
</svg>
