<svg width="19" height="16" viewBox="0 0 19 16" fill="none" xmlns="http://www.w3.org/2000/svg">
<path d="M18.7264 2.6775C18.0277 2.98063 17.2887 3.18102 16.5326 3.27243C17.3303 2.79585 17.9281 2.04611 18.2151 1.16228C17.4655 1.60854 16.6448 1.92295 15.7889 2.09186C15.2168 1.47143 14.4549 1.05844 13.6228 0.917664C12.7907 0.776884 11.9354 0.916276 11.191 1.31398C10.4467 1.71168 9.85534 2.3452 9.50982 3.11518C9.1643 3.88515 9.08412 4.74804 9.28185 5.56849C7.7661 5.49183 6.28343 5.09715 4.93016 4.41011C3.57688 3.72306 2.38328 2.75902 1.42688 1.58059C1.09143 2.16639 0.915167 2.82978 0.915614 3.50482C0.914425 4.13172 1.06827 4.74918 1.36345 5.30223C1.65862 5.85528 2.08597 6.32676 2.60745 6.67469C2.00134 6.6582 1.40819 6.49556 0.878431 6.20061V6.24709C0.882974 7.12544 1.19077 7.97526 1.74974 8.65281C2.30872 9.33036 3.08457 9.79403 3.94605 9.96541C3.61443 10.0663 3.27013 10.1195 2.92351 10.1234C2.68358 10.1206 2.44424 10.0989 2.20773 10.0584C2.45306 10.8139 2.92781 11.4743 3.56592 11.9474C4.20404 12.4206 4.97377 12.6831 5.76803 12.6984C4.42683 13.7537 2.77095 14.3297 1.06435 14.3344C0.753621 14.3355 0.443141 14.3168 0.134766 14.2787C1.8772 15.4037 3.90776 16.0009 5.98184 15.9984C7.41311 16.0133 8.83299 15.7428 10.1586 15.2027C11.4841 14.6627 12.6888 13.864 13.7022 12.8531C14.7156 11.8423 15.5175 10.6397 16.0609 9.31555C16.6043 7.99137 16.8784 6.57219 16.8672 5.14089C16.8672 4.98286 16.8672 4.81553 16.8672 4.64821C17.5967 4.10423 18.2258 3.43736 18.7264 2.6775Z" fill="#FEFEFE" fill-opacity="0.9"/>
</svg>
