<svg width="44" height="54" viewBox="0 0 44 54" fill="none" xmlns="http://www.w3.org/2000/svg">
<path d="M21.5223 0V1.85319H23.0883L24.7924 1.99488L25.0795 2.04522L25.3964 0.206946L25.0609 0.151015H24.9807L23.2039 0H21.5204H21.5223ZM17.5922 0.503382L15.9608 0.891173L15.9235 0.909817L15.8881 0.92846L14.268 1.4915L14.2307 1.51015L14.199 1.52879L13.8932 1.66302L14.6502 3.36707L14.9168 3.25147L16.4791 2.70521H16.5034L18.0545 2.3081L17.5922 0.503382ZM29.1699 1.1093L28.5491 2.87673L29.6062 3.24775L31.066 3.89655L31.0847 3.91519L31.8155 4.31417L32.716 2.68284L31.9646 2.26708L31.9274 2.24844L31.8957 2.22793L30.3296 1.52879L30.2979 1.51015L30.2606 1.4915L29.1699 1.1093ZM10.4646 3.44723L9.59771 4.0196L9.56415 4.04197L9.53619 4.06248L8.20316 5.10653L8.1696 5.13077L8.14163 5.15873L7.40893 5.83737L8.67671 7.20582L9.34975 6.57566L9.37212 6.55702L10.6604 5.55212L10.6828 5.53347L11.4882 5.00585L10.4628 3.44723H10.4646ZM22.2363 4.63111C13.3358 4.63111 6.0759 11.6785 6.0759 20.3795C6.0759 25.1449 8.54061 28.3423 10.8058 31.6497C12.9816 34.8228 15.0193 38.1452 15.1834 43.4307C15.0904 43.5845 15.039 43.7599 15.0342 43.9397V50.8584C15.0342 52.3443 16.2722 53.5561 17.7581 53.5561H26.7164C28.2023 53.5561 29.4384 52.3443 29.4384 50.8584V43.9397C29.4384 43.7532 29.3769 43.5854 29.2893 43.4307C29.4533 38.1452 31.493 34.8228 33.6668 31.6497C35.9339 28.3423 38.3968 25.143 38.3968 20.3795C38.3968 11.6803 31.1387 4.63111 22.2363 4.63111ZM35.9283 4.83619L34.7743 6.30346L35.1471 6.60176L35.1714 6.6204L36.318 7.69429L37.3266 8.79613L38.7062 7.54514L37.6771 6.41159L37.651 6.3799L37.6212 6.3538L36.3832 5.19788L36.3553 5.17365L36.3273 5.15128L35.9302 4.83433L35.9283 4.83619ZM22.2363 6.49549C30.1581 6.49549 36.5324 12.7151 36.5324 20.3795C36.5324 24.5054 34.4294 27.2367 32.1268 30.5963C30.0015 33.6986 27.932 37.4665 27.6039 42.8546H23.135V32.662C23.1357 32.5429 23.1126 32.4247 23.067 32.3146C23.0214 32.2045 22.9543 32.1047 22.8695 32.0209C22.7847 31.9372 22.684 31.8712 22.5733 31.827C22.4627 31.7828 22.3443 31.7612 22.2251 31.7634C22.1081 31.7639 21.9922 31.7876 21.8843 31.8331C21.7765 31.8787 21.6787 31.9451 21.5967 32.0287C21.5147 32.1123 21.4501 32.2113 21.4066 32.32C21.3631 32.4287 21.3416 32.545 21.3433 32.662V42.8546H16.8706C16.5444 37.4665 14.4731 33.6986 12.3495 30.5982C10.047 27.2367 7.94215 24.5054 7.94215 20.3814C7.94215 12.7151 14.3165 6.49549 22.2363 6.49549ZM4.8305 8.73274L4.60864 9.01986L4.5844 9.05155L4.56203 9.08511L3.63357 10.5225L3.6112 10.5561L3.59255 10.5878L2.81697 12.0495L4.46322 12.922L5.22761 11.4864L5.2388 11.4678L6.10573 10.1292L6.30522 9.87188L4.83236 8.73088L4.8305 8.73274ZM22.2363 8.75698V8.76444C15.8341 8.76444 10.6194 13.8877 10.5914 20.2061C10.5914 20.4407 10.6858 20.6658 10.8538 20.8317C11.0218 20.9976 11.2497 21.0908 11.4873 21.0908C11.7248 21.0908 11.9527 20.9976 12.1207 20.8317C12.2887 20.6658 12.3831 20.4407 12.3831 20.2061C12.4055 14.8404 16.8017 10.5225 22.2363 10.5225C22.3572 10.528 22.4779 10.5093 22.5912 10.4674C22.7045 10.4255 22.808 10.3613 22.8955 10.2788C22.983 10.1963 23.0526 10.0971 23.1002 9.9873C23.1478 9.87746 23.1723 9.75923 23.1723 9.63976C23.1723 9.5203 23.1478 9.40207 23.1002 9.29223C23.0526 9.18239 22.983 9.08321 22.8955 9.0007C22.808 8.91818 22.7045 8.85404 22.5912 8.81215C22.4779 8.77026 22.3572 8.7515 22.2363 8.75698ZM40.9826 10.7705L39.3364 11.6524L40.0206 12.9388L40.0281 12.9574L40.6918 14.5216H40.6955L40.8148 14.8889L42.586 14.311L42.4387 13.8654L42.4275 13.8281L42.4145 13.7852L41.7358 12.2005L41.7228 12.1651L41.7042 12.1278L40.9826 10.7705ZM1.43547 15.7633L1.06819 17.3331L1.06073 17.3723L1.05327 17.4133L0.80531 19.1341L0.801581 19.1751L0.797852 19.2143L0.777344 19.589L2.64172 19.6953L2.65477 19.3597L2.89155 17.7228L3.24951 16.1847L1.43547 15.7633ZM43.5182 18.0826L41.6725 18.3473L41.8142 19.328L41.9092 20.9742V20.9929L41.8831 21.9027L43.7456 21.9605L43.7736 21.0395L43.7773 20.9948L43.7736 20.9556L43.6804 19.218L43.6748 19.1789L43.6692 19.1378L43.5182 18.0826ZM2.68833 23.2562L0.838868 23.4725L0.95446 24.4774L0.958188 24.5166L0.965646 24.5576L1.30123 26.2094L1.30869 26.2467L1.31988 26.2859L1.60699 27.274L3.39493 26.752L3.12087 25.8048L2.79833 24.2034L2.7946 24.1847L2.68833 23.2562ZM41.432 25.4338L41.3481 25.8496L40.8932 27.397L40.3357 28.8326L42.0733 29.5038L42.6419 28.0421L42.6569 28.0048L42.6662 27.9657L43.1435 26.3437L43.1546 26.3045L43.1621 26.2672L43.2553 25.8048L41.432 25.4338ZM4.73169 30.065L3.05375 30.8722L3.18053 31.1332L3.19544 31.1705L3.21595 31.2004L4.07356 32.6546L4.09034 32.69L4.11644 32.7217L5.09151 34.1069L5.11389 34.1349L5.13812 34.1684L5.17541 34.2113L6.3798 33.1952L6.61284 33.0312L6.59979 33.0107L6.58115 32.9883L5.67879 31.7131L5.66388 31.6926L4.83982 30.2905L4.73169 30.065ZM38.6634 31.892L37.8524 33.0349L36.7971 34.284L36.7785 34.3064L36.4149 34.6662L37.733 35.9844L38.1525 35.5667L38.1768 35.5406L38.2029 35.5089L39.2991 34.2113L39.3233 34.1834L39.3457 34.1498L40.1847 32.9771L38.6634 31.892ZM9.04399 35.6077L7.8396 37.0321L8.87993 37.9177L8.91348 37.9419L8.94704 37.9643L10.3733 38.9804L10.4069 39.0028L10.4385 39.0233L10.9643 39.329L11.9095 37.7238L11.4304 37.4442L10.0601 36.471L9.04399 35.6077ZM33.7041 36.9687L33.0889 37.4218L33.0628 37.4404L31.588 38.3092H31.5731L30.6223 38.7623L31.4277 40.4439L32.4513 39.9517L32.4885 39.9331L32.5202 39.9089L34.036 39.0158L34.0677 38.9972L34.1012 38.9729L34.7854 38.4882L33.7041 36.9687ZM16.9023 45.0229H27.5796V50.8584C27.5807 50.9703 27.5591 51.0813 27.5159 51.1847C27.4728 51.288 27.4091 51.3815 27.3287 51.4594C27.2483 51.5374 27.1529 51.5982 27.0483 51.6381C26.9437 51.678 26.832 51.6963 26.7202 51.6917H17.7581C17.6464 51.696 17.5349 51.6776 17.4305 51.6375C17.3261 51.5975 17.231 51.5367 17.1508 51.4587C17.0706 51.3808 17.0071 51.2874 16.964 51.1842C16.921 51.081 16.8994 50.9702 16.9005 50.8584V50.3009H25.8197V48.5353H16.9005V47.4689H25.8215V45.6978H16.9005V45.021L16.9023 45.0229Z" fill="white"/>
</svg>
