<svg width="52" height="51" viewBox="0 0 52 51" fill="none" xmlns="http://www.w3.org/2000/svg">
<path d="M34.4536 50.8594H18.0881C17.1757 50.9042 16.2823 50.5877 15.6016 49.9784C14.9209 49.3692 14.5076 48.5163 14.4513 47.6045V38.2579C14.5634 36.6769 15.2946 35.2039 16.4862 34.1587C17.6778 33.1135 19.2335 32.5805 20.8157 32.6755H31.726C33.3082 32.5805 34.864 33.1135 36.0556 34.1587C37.2471 35.2039 37.9783 36.6769 38.0904 38.2579V47.6045C38.0341 48.5163 37.6208 49.3692 36.9401 49.9784C36.2594 50.5877 35.3661 50.9042 34.4536 50.8594ZM20.8157 34.4939C19.7162 34.4023 18.6247 34.745 17.7749 35.4486C16.9251 36.1522 16.3848 37.1607 16.2697 38.2579V47.6045C16.3244 48.0343 16.5455 48.4256 16.8855 48.6942C17.2255 48.9628 17.6573 49.0873 18.0881 49.041H34.4536C34.8845 49.0873 35.3163 48.9628 35.6563 48.6942C35.9963 48.4256 36.2174 48.0343 36.272 47.6045V38.2579C36.157 37.1607 35.6166 36.1522 34.7669 35.4486C33.9171 34.745 32.8255 34.4023 31.726 34.4939H20.8157ZM26.2709 29.4933C25.2819 29.4933 24.315 29.2 23.4927 28.6505C22.6704 28.1011 22.0294 27.3201 21.6509 26.4063C21.2725 25.4926 21.1734 24.4872 21.3664 23.5171C21.5593 22.5471 22.0356 21.6561 22.7349 20.9568C23.4343 20.2574 24.3253 19.7812 25.2953 19.5882C26.2653 19.3953 27.2708 19.4943 28.1845 19.8728C29.0982 20.2513 29.8792 20.8922 30.4287 21.7145C30.9782 22.5369 31.2715 23.5037 31.2715 24.4927C31.2715 25.8189 30.7446 27.0909 29.8068 28.0287C28.869 28.9664 27.5971 29.4933 26.2709 29.4933ZM26.2709 21.3105C25.6415 21.3105 25.0263 21.4972 24.5029 21.8468C23.9796 22.1965 23.5718 22.6935 23.3309 23.2749C23.0901 23.8564 23.027 24.4962 23.1498 25.1135C23.2726 25.7308 23.5757 26.2978 24.0207 26.7429C24.4658 27.1879 25.0328 27.491 25.6501 27.6138C26.2673 27.7365 26.9072 27.6735 27.4886 27.4327C28.0701 27.1918 28.5671 26.7839 28.9168 26.2606C29.2664 25.7373 29.4531 25.1221 29.4531 24.4927C29.4483 23.6502 29.1115 22.8436 28.5157 22.2478C27.92 21.6521 27.1134 21.3153 26.2709 21.3105ZM13.5421 23.5835C13.3901 23.5821 13.2405 23.5447 13.1057 23.4744L8.99615 21.2196L4.94113 23.4744C4.79592 23.5627 4.62922 23.6094 4.45926 23.6094C4.2893 23.6094 4.1226 23.5627 3.97739 23.4744C3.83616 23.377 3.72537 23.2417 3.6578 23.084C3.59023 22.9264 3.56864 22.7528 3.59552 22.5834L4.45017 17.7101L1.06796 14.3097C0.944616 14.1972 0.855353 14.0524 0.810343 13.8916C0.765333 13.7309 0.766387 13.5607 0.813383 13.4005C0.863968 13.2426 0.956783 13.1015 1.08178 12.9925C1.20678 12.8835 1.35921 12.8108 1.52256 12.7823L6.06854 12.0913L8.17787 7.74531C8.26094 7.60185 8.38027 7.48275 8.52389 7.39995C8.66751 7.31716 8.83037 7.27357 8.99615 7.27357C9.16192 7.27357 9.32479 7.31716 9.4684 7.39995C9.61202 7.48275 9.73135 7.60185 9.81442 7.74531L11.8692 12.0913L16.4152 12.7823C16.5883 12.8013 16.7524 12.8697 16.8878 12.9793C17.0232 13.0889 17.1242 13.2351 17.1789 13.4005C17.2326 13.5558 17.2424 13.7229 17.2071 13.8833C17.1718 14.0438 17.0928 14.1913 16.9789 14.3097L13.5421 17.7101L14.3422 22.5288C14.3691 22.6983 14.3475 22.8718 14.2799 23.0295C14.2124 23.1872 14.1016 23.3225 13.9604 23.4199C13.8361 23.5072 13.6927 23.5633 13.5421 23.5835ZM8.99615 19.2739C9.15117 19.2711 9.30338 19.3155 9.43256 19.4012L12.2874 20.965L11.7237 17.5646C11.6964 17.4249 11.7036 17.2806 11.7448 17.1443C11.786 17.008 11.8599 16.8839 11.9601 16.7827L14.3786 14.3097L11.1055 13.8187C10.9583 13.7944 10.819 13.7356 10.6989 13.6471C10.5788 13.5586 10.4813 13.4429 10.4145 13.3096L8.99615 10.2729L7.5778 13.3096C7.51095 13.4429 7.4135 13.5586 7.29341 13.6471C7.17331 13.7356 7.03399 13.7944 6.88681 13.8187L3.61371 14.3097L6.01398 16.7827C6.11417 16.8839 6.18809 17.008 6.2293 17.1443C6.2705 17.2806 6.27774 17.4249 6.25037 17.5646L5.70486 20.965L8.55973 19.4012C8.68891 19.3155 8.84113 19.2711 8.99615 19.2739ZM48.0916 23.5835C47.9395 23.5821 47.79 23.5447 47.6552 23.4744L43.5456 21.2196L39.4906 23.4744C39.3454 23.5627 39.1787 23.6094 39.0087 23.6094C38.8387 23.6094 38.6721 23.5627 38.5268 23.4744C38.3856 23.377 38.2748 23.2417 38.2072 23.084C38.1397 22.9264 38.1181 22.7528 38.145 22.5834L38.9996 17.7101L35.6174 14.3097C35.4941 14.1972 35.4048 14.0524 35.3598 13.8916C35.3148 13.7309 35.3158 13.5607 35.3628 13.4005C35.4134 13.2426 35.5062 13.1015 35.6312 12.9925C35.7562 12.8835 35.9087 12.8108 36.072 12.7823L40.618 12.0913L42.6728 7.74531C42.7558 7.60185 42.8752 7.48275 43.0188 7.39995C43.1624 7.31716 43.3253 7.27357 43.491 7.27357C43.6568 7.27357 43.8197 7.31716 43.9633 7.39995C44.1069 7.48275 44.2262 7.60185 44.3093 7.74531L46.3641 12.0913L50.9101 12.7823C51.0928 12.791 51.2687 12.8547 51.4147 12.965C51.5607 13.0753 51.67 13.2271 51.7284 13.4005C51.7821 13.5558 51.7918 13.7229 51.7565 13.8833C51.7212 14.0438 51.6423 14.1913 51.5283 14.3097L48.0916 17.7101L48.8917 22.5288C48.9186 22.6983 48.897 22.8718 48.8294 23.0295C48.7618 23.1872 48.651 23.3225 48.5098 23.4199C48.3856 23.5072 48.2421 23.5633 48.0916 23.5835ZM43.5456 19.2739C43.7006 19.2711 43.8528 19.3155 43.982 19.4012L46.8369 20.965L46.2732 17.5646C46.2458 17.4249 46.2531 17.2806 46.2943 17.1443C46.3355 17.008 46.4094 16.8839 46.5096 16.7827L48.928 14.3097L45.6549 13.8187C45.5078 13.7944 45.3684 13.7356 45.2483 13.6471C45.1282 13.5586 45.0308 13.4429 44.9639 13.3096L43.5456 10.2729L42.1273 13.3096C42.0604 13.4429 41.9629 13.5586 41.8429 13.6471C41.7228 13.7356 41.5834 13.7944 41.4363 13.8187L38.1632 14.3097L40.5634 16.7827C40.6636 16.8839 40.7375 17.008 40.7787 17.1443C40.8199 17.2806 40.8272 17.4249 40.7998 17.5646L40.2543 20.965L43.1092 19.4012C43.2384 19.3155 43.3906 19.2711 43.5456 19.2739ZM30.7623 16.3099C30.6103 16.3085 30.4607 16.2711 30.3259 16.2008L26.2709 13.946L22.2159 16.2008C22.0706 16.2892 21.9039 16.3359 21.734 16.3359C21.564 16.3359 21.3973 16.2892 21.2521 16.2008C21.1109 16.1035 21.0001 15.9681 20.9325 15.8105C20.865 15.6528 20.8434 15.4792 20.8702 15.3098L21.6703 10.4911L18.3427 7.03613C18.2288 6.91776 18.1498 6.77019 18.1145 6.60974C18.0792 6.44928 18.0889 6.2822 18.1427 6.12694C18.1932 5.96901 18.2861 5.82792 18.4111 5.71895C18.5361 5.60998 18.6885 5.53726 18.8518 5.50868L23.3978 4.81769L25.4526 0.471734C25.5357 0.328274 25.655 0.209175 25.7986 0.126379C25.9422 0.0435831 26.1051 0 26.2709 0C26.4366 0 26.5995 0.0435831 26.7431 0.126379C26.8867 0.209175 27.0061 0.328274 27.0891 0.471734L29.1439 4.81769L33.6899 5.50868C33.8533 5.53726 34.0057 5.60998 34.1307 5.71895C34.2557 5.82792 34.3485 5.96901 34.3991 6.12694C34.4528 6.2822 34.4626 6.44928 34.4273 6.60974C34.392 6.77019 34.313 6.91776 34.1991 7.03613L30.8714 10.4365L31.726 15.2553C31.7529 15.4247 31.7313 15.5983 31.6638 15.7559C31.5962 15.9136 31.4854 16.0489 31.3442 16.1463C31.1734 16.263 30.9689 16.3205 30.7623 16.3099ZM26.2709 12.0003C26.4259 11.9975 26.5781 12.0419 26.7073 12.1276L29.5622 13.6915L29.0166 10.2911C28.9893 10.1513 28.9965 10.007 29.0377 9.87074C29.0789 9.73446 29.1528 9.61032 29.253 9.50915L31.726 7.03613L28.4529 6.54517C28.3058 6.52082 28.1664 6.462 28.0464 6.37351C27.9263 6.28502 27.8288 6.16937 27.762 6.03602L26.2709 2.9993L24.8525 6.03602C24.7857 6.16937 24.6882 6.28502 24.5681 6.37351C24.448 6.462 24.3087 6.52082 24.1615 6.54517L20.8157 7.03613L23.216 9.50915C23.3162 9.61032 23.3901 9.73446 23.4313 9.87074C23.4725 10.007 23.4797 10.1513 23.4524 10.2911L22.9068 13.6915L25.7617 12.1276C25.9111 12.0264 26.0914 11.9813 26.2709 12.0003Z" fill="#661E78"/>
</svg>
