<svg width="46" height="45" viewBox="0 0 46 45" fill="none" xmlns="http://www.w3.org/2000/svg">
<path d="M23.2773 0C18.8273 0 14.4771 1.3196 10.777 3.79193C7.07692 6.26426 4.19304 9.77828 2.49006 13.8896C0.787093 18.001 0.341518 22.525 1.20968 26.8895C2.07785 31.2541 4.22077 35.2632 7.36745 38.4099C10.5141 41.5566 14.5232 43.6995 18.8878 44.5677C23.2524 45.4358 27.7764 44.9902 31.8877 43.2873C35.9991 41.5843 39.5131 38.7004 41.9854 35.0003C44.4577 31.3002 45.7773 26.9501 45.7773 22.5C45.7703 16.5348 43.3975 10.8159 39.1794 6.59791C34.9614 2.37987 29.2425 0.00707109 23.2773 0ZM24.6836 42.1158V39.375C24.6836 39.002 24.5354 38.6443 24.2717 38.3806C24.008 38.1169 23.6503 37.9687 23.2773 37.9687C22.9044 37.9687 22.5467 38.1169 22.283 38.3806C22.0193 38.6443 21.8711 39.002 21.8711 39.375V42.1158C17.155 41.7732 12.7197 39.7447 9.37618 36.4012C6.03261 33.0576 4.00412 28.6223 3.66157 23.9062H6.40235C6.77531 23.9062 7.133 23.7581 7.39672 23.4944C7.66044 23.2306 7.8086 22.873 7.8086 22.5C7.8086 22.127 7.66044 21.7693 7.39672 21.5056C7.133 21.2419 6.77531 21.0937 6.40235 21.0937H3.66157C4.00412 16.3777 6.03261 11.9424 9.37618 8.59882C12.7197 5.25526 17.155 3.22677 21.8711 2.88422V5.625C21.8711 5.99796 22.0193 6.35564 22.283 6.61937C22.5467 6.88309 22.9044 7.03125 23.2773 7.03125C23.6503 7.03125 24.008 6.88309 24.2717 6.61937C24.5354 6.35564 24.6836 5.99796 24.6836 5.625V2.88422C29.3997 3.22677 33.835 5.25526 37.1785 8.59882C40.5221 11.9424 42.5506 16.3777 42.8931 21.0937H40.1523C39.7794 21.0937 39.4217 21.2419 39.158 21.5056C38.8943 21.7693 38.7461 22.127 38.7461 22.5C38.7461 22.873 38.8943 23.2306 39.158 23.4944C39.4217 23.7581 39.7794 23.9062 40.1523 23.9062H42.8931C42.5506 28.6223 40.5221 33.0576 37.1785 36.4012C33.835 39.7447 29.3997 41.7732 24.6836 42.1158Z" fill="#661E78"/>
<path d="M31.7148 21.0937H24.6836V12.6562C24.6836 12.2833 24.5354 11.9256 24.2717 11.6619C24.008 11.3982 23.6503 11.25 23.2773 11.25C22.9044 11.25 22.5467 11.3982 22.283 11.6619C22.0193 11.9256 21.8711 12.2833 21.8711 12.6562V22.5C21.8711 22.873 22.0193 23.2306 22.283 23.4944C22.5467 23.7581 22.9044 23.9062 23.2773 23.9062H31.7148C32.0878 23.9062 32.4455 23.7581 32.7092 23.4944C32.9729 23.2306 33.1211 22.873 33.1211 22.5C33.1211 22.127 32.9729 21.7694 32.7092 21.5056C32.4455 21.2419 32.0878 21.0937 31.7148 21.0937Z" fill="#661E78"/>
</svg>
